<?xml version="1.0" encoding="UTF-8" standalone="no"?>
<svg
   width="499.8125"
   zoomAndPan="magnify"
   viewBox="0 0 374.85938 110.4414"
   height="147.2552"
   preserveAspectRatio="xMidYMid meet"
   version="1.0"
   id="svg234"
   sodipodi:docname="crew_banner.svg"
   inkscape:version="1.1.1 (3bf5ae0d25, 2021-09-20)"
   xmlns:inkscape="http://www.inkscape.org/namespaces/inkscape"
   xmlns:sodipodi="http://sodipodi.sourceforge.net/DTD/sodipodi-0.dtd"
   xmlns="http://www.w3.org/2000/svg"
   xmlns:svg="http://www.w3.org/2000/svg">
  <sodipodi:namedview
     id="namedview236"
     pagecolor="#ffffff"
     bordercolor="#666666"
     borderopacity="1.0"
     inkscape:pageshadow="2"
     inkscape:pageopacity="0.0"
     inkscape:pagecheckerboard="0"
     showgrid="false"
     inkscape:zoom="1.185111"
     inkscape:cx="187.74613"
     inkscape:cy="170.02627"
     inkscape:window-width="1920"
     inkscape:window-height="1001"
     inkscape:window-x="-9"
     inkscape:window-y="-9"
     inkscape:window-maximized="1"
     inkscape:current-layer="svg234" />
  <defs
     id="defs40">
    <g
       id="g2" />
    <clipPath
       id="20c496b613">
      <path
         d="M 83.726562,64.703125 H 200.72656 V 174.9375 H 83.726562 Z m 0,0"
         clip-rule="nonzero"
         id="path4" />
    </clipPath>
    <clipPath
       id="7ce81c7f4a">
      <path
         d="M 27.527344,74.269531 H 106.27734 V 175.14453 H 27.527344 Z m 0,0"
         clip-rule="nonzero"
         id="path7" />
    </clipPath>
    <clipPath
       id="ff277b1efb">
      <path
         d="m 239.35156,64.703125 h 117 V 174.9375 h -117 z m 0,0"
         clip-rule="nonzero"
         id="path10" />
    </clipPath>
    <clipPath
       id="251e1515d7">
      <path
         d="m 183.14844,74.269531 h 78.75 V 175.14453 h -78.75 z m 0,0"
         clip-rule="nonzero"
         id="path13" />
    </clipPath>
    <clipPath
       id="29cdf26ef2">
      <path
         d="M 40.335938,89.183594 H 69.574219 V 104.18359 H 40.335938 Z m 0,0"
         clip-rule="nonzero"
         id="path16" />
    </clipPath>
    <clipPath
       id="5afb7997cb">
      <path
         d="m 76,99.808594 h 29.11328 V 114.80859 H 76 Z m 0,0"
         clip-rule="nonzero"
         id="path19" />
    </clipPath>
    <clipPath
       id="4ade7790dc">
      <path
         d="m 331,115 h 3.84766 v 4 H 331 Z m 0,0"
         clip-rule="nonzero"
         id="path22" />
    </clipPath>
    <clipPath
       id="998dc5daa0">
      <path
         d="m 312,92.0625 h 5 V 97 h -5 z m 0,0"
         clip-rule="nonzero"
         id="path25" />
    </clipPath>
    <clipPath
       id="94b1269d5e">
      <path
         d="m 297,92.0625 h 4 V 97 h -4 z m 0,0"
         clip-rule="nonzero"
         id="path28" />
    </clipPath>
    <clipPath
       id="6ea640b0a3">
      <path
         d="m 46.832031,118.75781 h 29.238281 v 15 H 46.832031 Z m 0,0"
         clip-rule="nonzero"
         id="path31" />
    </clipPath>
    <clipPath
       id="55dca5529d">
      <path
         d="m 0,118.57813 h 24.75 v 12.74999 H 0 Z m 0,0"
         clip-rule="nonzero"
         id="path34" />
    </clipPath>
    <clipPath
       id="35730377f7">
      <path
         d="M 350.30078,112.92969 H 375 v 12.75 h -24.69922 z m 0,0"
         clip-rule="nonzero"
         id="path37" />
    </clipPath>
  </defs>
  <g
     clip-path="url(#20c496b613)"
     id="g48"
     transform="translate(-0.140625,-64.703125)">
    <path
       fill="#f0f1f1"
       d="m 193.4375,147.30078 c -2.47266,0.98438 -5.30469,1.05469 -7.8125,0.15234 -0.65625,-0.23828 -1.33594,-0.54296 -2.05469,0.004 -0.29297,0.22656 -0.5039,0.55469 -0.58594,0.91406 -0.24609,1.04688 0.40235,2.00782 1.2461,2.5586 1.20312,0.78125 2.73047,0.82031 4.16797,0.79297 1.67968,-0.0312 3.44922,-0.10938 4.86718,0.91796 0.6836,0.49219 1.16407,1.25 1.21485,2.08985 0.10156,1.69531 -1.46485,2.55078 -2.89063,2.53906 -1.09375,-0.004 -2.13672,-0.41406 -3.16797,-0.77344 -6.55468,-2.29297 -13.58203,-2.78906 -20.51171,-3.26172 -1.65235,-0.11718 -3.33204,-0.22656 -4.94922,0.14063 -4.52344,1.02344 -7.51953,5.72656 -7.82032,10.35547 -0.1914,2.91797 0.47657,5.8125 0.78516,8.71875 0.043,0.40234 0.0742,0.83203 -0.125,1.17969 -0.23047,0.41015 -0.71094,0.59765 -1.16016,0.74218 -2.4414,0.77344 -5.04296,1.03516 -7.59375,0.76172 -1.44531,-0.15234 -3.0664,-0.62109 -3.70312,-1.93359 -0.28516,-0.58203 -0.32422,-1.25391 -0.35547,-1.90235 -0.0898,-1.64453 -0.17578,-3.29296 -0.26562,-4.9414 -0.16797,-3.17969 -0.9961,-6.6211 -3.42969,-8.67578 -1.91016,-1.60938 -4.70313,-2.53516 -6.92578,-1.39453 -1.34766,0.6875 -2.2461,1.99218 -3.24219,3.13281 -0.99609,1.14453 -2.30469,2.22265 -3.82031,2.16797 -1.14063,-0.043 -2.16797,-0.72657 -3.07813,-1.36328 -0.37109,-0.25782 -0.66015,-0.625 -0.77734,-1.0586 -0.23047,-0.85156 0.32812,-1.26562 0.84375,-1.6289 1.19141,-0.83985 2.37891,-1.67969 3.57031,-2.51954 0.29297,-0.21093 0.60547,-0.4375 0.51563,-0.93359 -0.082,-0.42969 -0.4375,-0.76172 -0.86719,-0.84375 -3.61328,-0.70312 -7.21875,2.58984 -10.60547,1.30078 -1.375,-0.52344 -2.375,-1.71875 -3.62891,-2.49219 -3.01562,-1.87109 -6.87109,-1.07031 -10.39843,-0.67968 -1.093754,0.12109 -2.250004,0.18359 -3.210941,-0.42578 -0.539063,-0.34375 -0.933594,-0.90235 -0.972657,-1.53907 -0.07031,-1.25 1.1875,-1.93359 2.304688,-1.9414 0.96875,-0.0117 1.89453,0.33593 2.84375,0.5 1.12891,0.1914 2.30078,0.12109 3.39453,-0.21094 0.33203,-0.10156 0.63672,-0.30078 0.80469,-0.60547 0.51562,-0.91406 -0.51172,-1.73828 -1.37891,-2.16797 -2.35547,-1.16015 -4.765622,-2.21875 -7.214841,-3.16406 -2.199219,-0.84766 -4.472657,-1.625 -6.070313,-3.54297 -0.535156,-0.64062 -0.894531,-1.41797 -1.0625,-2.23828 -0.101562,-0.50391 -0.144531,-1.10938 0.144532,-1.56641 0.59375,-0.9414 2.050781,-0.6289 3.003906,-0.0469 0.949218,0.58203 2.023437,1.35547 3.070312,0.97265 -0.136718,-1.99609 0.07422,-4.01562 0.617188,-5.9414 0.175781,-0.62891 0.417968,-1.29688 1.171875,-1.48438 0.761719,-0.1914 1.546875,0.2461 1.886721,0.95313 0.75781,1.57422 -0.0664,3.10937 -0.15625,4.68359 -0.152346,2.64844 2.10937,5.19922 4.7539,5.35938 0.42188,-2.3711 1.41797,-4.63672 2.88282,-6.55078 0.13672,-0.17579 0.3125,-0.32422 0.52343,-0.39454 0.47657,-0.16015 0.73829,0.14844 0.91797,0.45313 0.65235,1.09375 0.70703,2.51953 0.14453,3.66016 -0.54296,1.10937 -1.61328,1.9375 -1.97265,3.12109 -0.41406,1.35937 0.23047,2.82812 1.11719,3.94141 2.32031,2.91796 6.17187,4.19531 9.8789,4.54296 2.82031,0.26563 5.65625,0.082 8.48828,0.082 1.03516,0 1.29688,-1.44141 0.32422,-1.80079 l -0.0312,-0.0117 c -7.29297,-2.71875 -13.44531,-8.36719 -16.78125,-15.39844 -0.40234,-0.85547 -0.79687,-1.76563 -1.53906,-2.35156 -0.67188,-0.52735 -1.53906,-0.71485 -2.37109,-0.89063 -5.375,-1.13281 -10.750005,-2.26172 -16.125005,-3.39062 -1.457031,-0.3086 -2.949219,-0.62891 -4.222656,-1.40235 -1.324219,-0.80859 -2.390625,-2.21875 -2.3125,-3.78515 0.02344,-0.4375 0.175781,-0.8711 0.480469,-1.1875 0.523437,-0.54297 1.085937,-0.3711 1.609374,-0.19922 2.621094,0.84375 5.242188,1.6914 7.859376,2.53906 0.445312,-1.16016 0.1875,-2.47656 -0.257813,-3.63672 -0.445313,-1.16015 -1.070313,-2.25781 -1.386719,-3.45703 -0.339844,-1.27734 -0.269531,-2.76953 0.667969,-3.73047 0.699219,-0.71094 1.792969,-0.94922 2.644531,-0.42578 0.738282,0.44922 0.875,1.25781 0.996094,2.01953 0.15625,1.01563 0.316406,2.03516 0.472656,3.05078 0.210938,1.35157 0.433594,2.73438 1.109375,3.92188 1.367188,2.39844 4.648439,3.48828 7.175779,2.38281 -1.11328,-2.92187 -1.54687,-5.99219 -2.83984,-8.83594 -1.07031,-2.35937 -2.394532,-4.8789 -4.781251,-5.88281 -1.667969,-0.70312 -3.644531,-0.55469 -5.195313,-1.48437 -1.652344,-0.9961 -2.53125,-3.19922 -1.738281,-5.054692 0.3125,-0.730469 0.929687,-1.316407 1.703125,-1.511719 3.015625,-0.773438 4.738281,4.523441 7.95703,3.726561 0.91797,-0.22656 1.64844,-0.92578 2.00781,-1.80078 0.83204,-2.011719 0.14063,-4 -0.35546,-5.953125 -0.46094,-1.828125 -0.73829,-3.863281 0.51953,-5.453125 1.42578,-1.796875 4.14843,-1.988281 5.8125,-0.410156 2.05468,1.953125 1.44531,5.261718 0.33593,7.816406 -1.34765,3.113281 -3.29296,6.19141 -3.11718,9.57813 0.0977,1.87109 0.84765,3.63671 1.58593,5.35937 2.26954,5.29688 4.53907,10.59766 7.08204,15.76953 1.5039,3.05469 3.23437,6.20313 6.125,8 0.41015,0.25391 0.91796,0.48828 1.35156,-0.008 0.17187,-0.19531 0.2539,-0.44922 0.26562,-0.70703 0.19922,-3.83985 0.39844,-7.67578 0.59766,-11.51172 0.0586,-1.07031 0.10156,-2.19922 -0.39063,-3.14844 -0.44531,-0.85937 -1.26953,-1.44922 -2.08984,-1.96094 -1.99609,-1.24609 -4.25391,-2.30078 -5.54297,-4.26953 -1.28906,-1.96875 -0.9375,-5.23828 1.30469,-5.95703 0.26562,-0.0859 0.55469,-0.1289 0.82031,-0.0391 0.30078,0.10937 0.51172,0.375 0.69531,0.63672 1.79688,2.52734 3.04297,5.9375 6.01954,6.79687 1.07812,-2.57031 2.17187,-5.21875 2.22265,-8.00781 0.0508,-2.78906 -1.18359,-5.785156 -3.6914,-7.007812 -1.875,-0.914063 -4.14063,-0.71875 -6.01954,-1.625 C 113.84375,96.195312 112.54297,94.125 112.60156,92 c 0.0117,-0.382812 0.16797,-0.761719 0.47266,-0.996094 0.89062,-0.703125 1.92187,0.332032 2.64453,1.109375 1.66016,1.777344 4.19141,2.695313 6.60547,2.390625 -0.0156,-1.625 -1.29297,-2.949218 -2.61328,-3.898437 -1.69141,-1.214844 -3.67969,-2.210938 -4.25391,-4.449219 -0.27344,-1.0625 0.125,-2.214844 1.0586,-2.785156 1.51562,-0.933594 3.26562,0.300781 4.34765,1.601562 1.01953,1.226563 2.05078,2.714844 3.63281,2.925782 0.67579,-1.957032 -0.61328,-4.039063 -2.07812,-5.503907 -1.82422,-1.824219 -4.12891,-3.425781 -4.18359,-6.3125 -0.0273,-1.464843 1.01171,-2.78125 2.47265,-2.886719 1.61328,-0.117187 2.59375,1.328126 3.35156,2.621094 2.54297,4.324219 5.10938,8.71875 6.39844,13.566406 0.78125,2.957032 1.07031,6.019532 1.31641,9.070313 0.125,1.519531 0.23828,3.042965 0.34375,4.566405 0.0898,1.30078 1.71875,1.80078 2.54687,0.79297 0.0195,-0.0273 0.0391,-0.0508 0.0625,-0.0742 0.90235,-1.07812 2.33203,-1.99219 3.6875,-1.25 0.67578,0.36719 1.10156,1.0586 1.26563,1.8086 0.6289,2.84375 -1.86719,5.66406 -4.66016,5.71484 -1.78125,0.0352 -3.71484,-0.88281 -5.07422,1.17187 -0.40234,0.60938 -0.61719,1.32422 -0.67187,2.05469 -0.58985,7.66016 -0.69922,15.35547 -0.32032,23.02734 0.0586,1.17579 0.12891,2.3711 0.53516,3.47657 0.53906,1.48437 1.63672,2.69922 2.82813,3.73828 2.12109,1.86328 4.61328,3.30078 7.28906,4.20312 0.52344,0.17969 1.11719,0.33594 1.5664,-0.28125 0.21485,-0.28906 0.3125,-0.64843 0.32032,-1.00781 l 0.29687,-10.68359 c 0.0703,-2.41407 -0.16406,-5.35547 -2.32812,-6.42188 -2.26563,-1.11328 -5.58594,0.51953 -7.23828,-1.39453 -0.76172,-0.88281 -0.77344,-2.16015 -0.0977,-3.10937 1.40625,-1.97657 4.20703,-1.28516 5.26562,0.48437 -0.0937,-1.63672 -1.10937,-3.05469 -1.90625,-4.48828 -0.875,-1.57422 -1.52343,-3.55469 -0.43359,-5.09766 0.26172,-0.36718 0.67578,-0.625 1.12891,-0.62109 1.03515,0.0117 1.36718,1.16406 1.63281,2.07422 0.71484,2.41797 2.39844,4.53516 4.59375,5.77344 1.11328,-2.1211 2.22266,-4.24219 3.33203,-6.36328 0.98047,-1.8711 1.98047,-3.82032 2.08203,-5.9336 0.14063,-2.8789 -1.41015,-5.55078 -3.07422,-7.91015 -3.34375,-4.746099 -7.35156,-9.011724 -10.57422,-13.839849 -3.22656,-4.832031 -5.6875,-10.457031 -5.38671,-16.257812 0.12109,-2.292969 1.125,-5.019531 3.43359,-5.324219 0.34766,-0.04297 0.71094,-0.01953 1.02344,0.136719 0.77734,0.382812 0.76953,1.1875 0.71484,1.894531 -0.16797,2.339844 -0.5,4.671875 -0.98828,6.96875 -0.30469,1.429688 0.62891,2.847656 2.07031,3.089844 0.69531,0.117187 1.42578,0.02734 2.08203,-0.292969 1.58203,-0.777344 2.625,-2.339844 3.41407,-3.914063 0.78125,-1.558593 1.39062,-3.199218 1.8164,-4.886718 0.42969,-1.714844 0.69922,-3.546875 2.08985,-4.800782 0.66015,-0.59375 1.55078,-0.90625 2.41796,-0.722656 1.94532,0.417969 2.23438,2.78125 1.46094,4.367188 -0.68359,1.394531 -1.92969,2.414062 -2.91797,3.613281 -0.98437,1.199219 -1.74218,2.828125 -1.1875,4.277344 0.67969,1.78125 2.86328,2.328125 4.67969,2.902343 1.88281,0.597657 4.01953,2.109376 3.41406,4.070313 -0.32422,1.054687 -1.32812,1.730469 -2.42578,1.8125 -2.42187,0.175781 -4.16406,-1.460937 -6.25781,-2.210937 -1.92969,-0.6875 -4.63672,-0.304688 -4.84375,2.210937 -0.0781,0.972656 0.26562,1.933594 0.88672,2.6875 L 151.35156,102.75 c 0.54297,0.66406 1.10938,1.34766 1.87891,1.72656 1.125,0.55469 2.59375,0.3086 3.47656,-0.58203 0.88672,-0.89453 1.12109,-2.36328 0.55469,-3.48828 -0.41406,-0.8125 -1.16406,-1.394531 -1.78125,-2.066406 -1.92188,-2.09375 -2.52344,-5.304688 -1.48828,-7.953125 0.15234,-0.386719 0.39843,-0.8125 0.8125,-0.878907 0.23047,-0.03516 0.46484,0.05859 0.66797,0.171876 2.45312,1.390624 1.91015,5.8125 4.53125,6.855468 1.32421,-2.589844 2.6875,-5.527344 1.8164,-8.304687 -0.71094,-2.265625 -2.73047,-3.816407 -4.21484,-5.667969 -1.31641,-1.640625 -2.26563,-3.722656 -2.00781,-5.8125 0.14843,-1.175781 0.77343,-2.3125 1.66406,-3.074219 0.96094,-0.816406 2.44531,-0.257812 2.63281,0.988281 0.375,2.492188 1.41797,4.886719 3.00781,6.84375 0.22266,0.273438 0.49219,0.511719 0.80469,0.675782 1.48047,0.78125 2.59766,-0.441406 3.22656,-1.613282 1.6836,-3.140624 2,-7.0625 4.46875,-9.632812 1.92578,-2.007812 5.02735,-2.785156 7.67188,-1.929688 0.41015,0.132813 0.83594,0.324219 1.08203,0.683594 0.25781,0.378906 0.26562,0.875 0.1875,1.328125 -0.38281,2.332031 -2.49609,3.902344 -4.13281,5.613281 -4.3125,4.511719 -5.75782,10.964844 -7.03125,17.074219 -0.0781,0.367188 -0.15235,0.761719 0.004,1.101563 0.4336,0.949218 2.01953,0.519531 2.67578,-0.132813 0.3711,-0.371093 0.83204,-0.65625 1.35157,-0.714843 1.94531,-0.214844 1.94922,1.992187 1.10547,3.144531 -0.98047,1.34375 -2.64063,2.117187 -4.30079,2.167969 -1.13281,0.03125 -2.30468,-0.234376 -3.375,0.144531 -1.14062,0.402343 -1.91015,1.449221 -2.60156,2.441411 -2.47265,3.52343 -4.9414,7.04687 -7.41406,10.57031 -0.26563,0.38281 -0.55078,0.83203 -0.22656,1.30859 0.21875,0.31641 0.60156,0.48047 0.98828,0.47266 l 7.65625,-0.14063 c 1.90234,-0.0352 3.83984,-0.0742 5.64453,-0.67968 2.34375,-0.78516 4.26953,-2.45704 6.12891,-4.08594 1.79296,-1.57031 3.58593,-3.14453 5.38281,-4.71485 1.39062,-1.22265 2.82422,-2.49218 3.63672,-4.15625 0.80468,-1.648434 0.93359,-3.535152 1.35937,-5.320309 0.4961,-2.089843 1.60156,-4.285156 3.87891,-4.714843 1.28125,-0.242188 2.61328,0.40625 3.03906,1.636718 0.42188,1.214844 -0.29297,2.21875 -0.96484,3.121094 -1.44922,1.933594 -2.89453,3.867188 -4.33985,5.80078 1.80469,0.96875 3.96875,1.24219 5.95313,0.75 1.39062,-0.34375 2.69922,-1.04297 4.1914,-0.85547 0.6875,0.0859 1.33594,0.41407 1.73047,0.98047 1.09766,1.58203 -0.60547,3.50781 -2.35937,3.83594 -1.64844,0.30859 -3.33594,-0.20313 -5.01172,-0.13672 -3.96875,0.16016 -7.06641,3.44922 -9.74609,6.28906 -0.34375,0.36328 -0.59375,0.81641 -0.66407,1.3086 -0.42968,2.95312 5.05469,2.625 5.17188,5.55859 0.0508,1.21875 -0.92969,2.23828 -2.14453,2.35156 -2.76172,0.25782 -4.36719,-1.86328 -6.45313,-3.07812 -4.07031,-2.36328 -9.19531,-0.97266 -13.67578,0.48047 -0.99609,0.32031 -2.04297,0.67187 -2.63672,1.60156 -0.28906,0.44531 -0.39844,1 -0.22265,1.50391 0.52343,1.51171 2.71093,0.85546 3.09375,2.66406 0.23828,1.15234 -0.59375,2.30469 -1.73438,2.58203 -2.14062,0.51172 -3.84766,-1.00391 -5.41016,-2.30859 -2.14062,-1.78516 -5.29296,-3.375 -7.51953,-1.53907 -0.37109,0.3086 -0.64453,0.73828 -0.68359,1.21485 -0.13672,1.66015 2.34375,2.20312 3.75781,1.91406 0.51172,-0.10547 1.03516,-0.12109 1.53906,0.0117 3.02344,0.78906 1.97266,3.5039 0.28516,4.20703 -1.18359,0.49609 -2.53125,0.29297 -3.80469,0.10937 -0.70703,-0.10156 -1.45312,-0.19531 -2.11718,0.0664 -0.89454,0.35156 -1.4336,1.25391 -1.85938,2.11719 -1.02344,2.08984 -1.75781,4.32031 -2.16797,6.60937 -0.10156,0.57031 -0.18359,1.17188 0.008,1.72266 0.33204,0.95703 1.42579,1.47656 2.44141,1.46094 1.01563,-0.0195 1.96875,-0.45313 2.89063,-0.87891 2.64062,-1.22266 5.27734,-2.44531 7.91796,-3.66797 2.57032,-1.19141 5.32422,-2.55469 6.57032,-5.09375 0.72265,-1.46484 0.83984,-3.14062 1.09765,-4.7539 0.31641,-2 0.94922,-4.10938 2.91407,-5.08985 1.05859,-0.52734 2.36328,-0.39844 3.1914,0.44531 1.50781,1.52344 0.34375,3.9336 -1.03515,5.44922 -1.32032,1.44922 -2.96094,3.04297 -2.71875,4.98828 5.39843,-3.13672 10.67187,-6.49609 15.79687,-10.0625 1.30078,-0.90625 2.70313,-1.86328 4.38281,-1.51953 0.83594,0.17188 1.55078,0.78907 1.71485,1.62891 0.26953,1.35547 -0.94141,2.28516 -2.10157,2.76953 -0.66796,0.28125 -1.42187,0.52734 -1.60156,1.375 -0.17969,0.83984 0.35156,1.67187 1.16016,1.95312 1.78515,0.61719 3.25781,-0.5039 4.83984,-1.07421 1.27344,-0.45704 3.01563,-0.37891 3.60547,0.84375 0.21094,0.43359 0.23047,0.9375 0.16406,1.41406 -0.39062,2.75 -3.98437,4.46484 -6.36718,3.03515 -2.3086,-1.38281 -3.39844,-4.94921 -6.61329,-3.99218 -0.44531,0.13281 -0.86328,0.34765 -1.2539,0.60547 l -24.97266,16.5 c -1.98047,1.30468 -4.07812,2.77734 -5.30078,4.73046 -0.65625,1.04688 0.42578,2.28516 1.54688,1.76563 0.9414,-0.43359 1.83203,-1.11328 2.68359,-1.71094 2.74609,-1.92578 5.94531,-3.20312 9.26562,-3.69531 2.13672,-0.31641 4.32032,-0.31641 6.42188,-0.8125 2.10156,-0.5 4.19922,-1.60547 5.20703,-3.51563 0.80469,-1.53125 0.80859,-3.33593 1.0625,-5.04296 0.30078,-2.03125 1.19531,-4.26172 3.45703,-4.625 1.29688,-0.20704 2.50781,0.625 2.57422,1.9375 0.0664,1.25781 -1.01953,1.90625 -1.78125,2.71875 -0.64062,0.67968 -1.03125,1.875 -0.31641,2.47265 0.29688,0.2461 0.69922,0.3125 1.08204,0.32422 2.45312,0.0977 4.64453,-1.41406 7.01562,-2.04297 2.86328,-0.76562 7.05859,0.76172 5.4375,4.48047 -0.62109,1.42188 -1.83203,2.49219 -3.26953,3.0625"
       fill-opacity="1"
       fill-rule="nonzero"
       id="path46" />
  </g>
  <g
     clip-path="url(#7ce81c7f4a)"
     id="g52"
     transform="translate(-0.140625,-64.703125)">
    <path
       fill="#f0f1f1"
       d="m 106.42188,129.20312 c -0.21485,-1.07031 -1,-1.94921 -1.90235,-2.55859 -0.84375,-0.57031 -2.00781,-0.9375 -2.84375,-0.35937 -0.3789,0.26172 -0.61719,0.67187 -0.83984,1.07422 -1.42969,2.55078 -2.640628,5.22656 -3.613284,7.98437 -0.445312,1.25391 -1.03125,2.71094 -2.320312,3.04297 -0.433594,-1.9375 -1.078125,-3.82813 -1.921875,-5.625 -0.457031,-0.97656 -1.082031,-2.02344 -2.128907,-2.29688 -1.339843,-0.35156 -2.59375,0.72266 -3.566406,1.71094 -0.367187,0.375 -0.753906,0.77734 -0.867187,1.28906 -0.195313,0.8711 0.441406,1.6836 0.996093,2.38672 2.472657,3.13672 4.0625,7.02344 4.167969,11.01563 0.105469,3.99218 -1.347656,8.0625 -4.191406,10.86718 -3.132813,3.09375 -7.820313,4.65625 -9.972656,8.4961 -0.01563,0.0234 -0.02734,0.0508 -0.04297,0.082 -1.070312,-1.92188 -1.242188,-4.67578 -0.183594,-6.55859 1.125,-2.00391 2.796875,-3.64844 4.003906,-5.60157 2.910157,-4.71875 2.8125,-10.625 2.707032,-16.16797 -0.101563,-5.51953 -0.109375,-11.1289 1.390625,-16.4414 1.496093,-5.3125 4.710937,-10.37891 9.613281,-12.91797 1.433594,-0.73828 2.984375,-1.25781 4.324219,-2.15625 1.335942,-0.90234 2.472662,-2.32031 2.468752,-3.93359 0,-0.94532 -0.39063,-1.84375 -0.77344,-2.710941 -0.17969,-0.402344 -0.39453,-0.839844 -0.80078,-0.996094 -0.558595,-0.210937 -1.13672,0.203125 -1.585939,0.589844 -4.324218,3.726561 -8.546874,7.566411 -12.660156,11.515621 -0.230468,-3.72265 -0.800781,-7.27734 -1.03125,-10.999996 -0.3125,-5.117188 -0.621094,-10.292969 0.320313,-15.335938 0.292969,-1.542968 0.699219,-3.070312 0.871093,-4.636718 0.08594,-0.761719 0.109376,-1.550782 -0.140624,-2.277344 -0.652344,-1.902344 -2.867188,-2.6875 -4.808594,-3.222656 -0.597656,-0.167969 -1.269532,-0.324219 -1.808594,-0.01563 -0.757812,0.433594 -0.804688,1.488282 -0.738281,2.359376 0.332031,4.390624 1.082031,8.75 2.234375,13 -1.660156,-1.089844 -3.980469,-2.214844 -5.824219,-2.941407 -0.894531,-0.351562 -1.878906,-0.660156 -2.792969,-0.386719 -1.816406,0.546876 -2.246094,2.878907 -2.347656,4.773438 -0.01953,0.308594 -0.01563,0.664062 0.226562,0.859375 0.148438,0.121094 0.355469,0.144531 0.546876,0.15625 2.582031,0.175781 5.460937,-0.394531 7.535156,1.144531 1.429687,1.0625 2.070312,2.867188 2.546875,4.582032 0.980469,3.523446 1.609375,7.148446 1.867187,10.800786 0.179688,2.58984 0.175782,5.1875 0.175782,7.78516 -0.0039,3.1914 -0.0078,6.3789 -0.01172,9.57031 0,0.45703 -1.070313,0.28906 -1.519531,0.21484 -1.542969,-0.25781 -3.167969,-0.60937 -4.3125,-1.67578 -0.847657,-0.78906 -1.339844,-1.89062 -2.125,-2.74219 -0.785157,-0.84765 -2.132813,-1.41797 -3.09375,-0.76953 -0.585938,0.39453 -0.84375,1.11719 -1.042969,1.79297 -0.273438,0.91797 -0.511719,1.84375 -0.710938,2.77734 -0.07813,0.35938 -0.125,0.78907 0.140625,1.03907 0.183594,0.16797 0.457032,0.1914 0.707032,0.20703 2.714843,0.18359 5.390624,0.91015 7.828124,2.125 0.945313,0.46875 1.949219,1.03125 2.992188,0.86328 0.625,3.76172 -0.417969,8.07812 -2.128906,11.48828 -1.78125,3.55469 -4.738282,6.55859 -5.742188,10.41016 -0.339844,1.30859 -0.441406,2.67968 -0.898437,3.94921 -0.457031,1.27344 -1.378907,2.49219 -2.695313,2.79297 -2.152344,0.49219 -3.960937,-1.55078 -5.21875,-3.36328 -1.375,-1.98047 -2.808594,-4.17187 -2.625,-6.57422 0.101563,-1.29687 0.671875,-2.5039 1.234375,-3.67968 0.925781,-1.9375 1.851563,-3.875 2.777344,-5.8125 1.707031,-3.57032 0.460937,-8.11329 0.523437,-12.06641 0.03516,-2.25781 0.07031,-4.52344 0.367188,-6.76172 0.394531,-3.00781 1.242188,-6.14453 0.214844,-9 -0.703125,-1.95703 -2.222656,-3.53906 -2.917969,-5.5 -1.578125,-4.45312 1.429687,-9.113284 2.097656,-13.789065 0.1875,-1.3125 0.167969,-2.726563 -0.507812,-3.871094 -0.671875,-1.144531 -2.160157,-1.882813 -3.375,-1.351563 -1.445313,0.628907 -1.75,2.507813 -1.855469,4.082032 -0.238281,3.632812 -0.472656,7.265625 -0.710938,10.89844 -0.03906,0.5625 -0.238281,1.29688 -0.804687,1.3086 -0.191406,0.004 -0.367187,-0.0859 -0.53125,-0.1836 -1.875,-1.13281 -2.675781,-3.46094 -2.855469,-5.644534 -0.179687,-2.179688 0.113282,-4.394531 -0.234375,-6.558594 C 55.332031,88.59375 54.125,86.355469 52.039062,85.6875 c -1.972656,-0.632812 -4.078124,0.292969 -5.910156,1.253906 -0.234375,0.125 -0.492187,0.277344 -0.558594,0.535156 -0.08984,0.367188 0.253907,0.679688 0.554688,0.910157 2.429688,1.863281 4.304688,4.441406 5.335938,7.324219 0.761718,2.136718 1.089843,4.472652 2.347656,6.363282 1.570312,2.36328 4.316406,3.62109 6.441406,5.50391 1.777344,1.57421 3.128906,3.625 3.878906,5.875 0.820313,2.45312 0.921875,5.07812 1.019532,7.66015 0.1875,5.0586 0.375,10.11328 0.5625,15.17188 0.01953,0.55078 0.02734,1.14062 -0.273438,1.59765 -0.613281,0.9336 -2.15625,0.69922 -2.886719,-0.14453 -0.730469,-0.84375 -0.890625,-2.01953 -1.09375,-3.11719 -0.585937,-3.16797 -1.824219,-6.3164 -4.117187,-8.57421 -1.464844,-1.44141 -3.324219,-2.49219 -4.523438,-4.16016 -1.417968,-1.97656 -1.703125,-4.52734 -1.875,-6.95703 -0.128906,-1.80078 -0.214844,-3.60156 -0.25,-5.40625 -0.02344,-1.34375 -0.03125,-2.75 -0.644531,-3.94531 -0.617187,-1.19532 -2.058594,-2.08985 -3.316406,-1.60547 -1.769531,0.67968 -1.742188,3.20703 -1.113281,4.99609 1.078124,3.05078 3.003906,6.16797 2.109374,9.27734 -1.796874,-0.44921 -2.445312,-2.59375 -3.03125,-4.35156 -0.8125,-2.42578 -2.066406,-4.69922 -3.6875,-6.67969 -0.277343,-0.33984 -0.585937,-0.6875 -1,-0.83984 -0.398437,-0.14844 -0.839843,-0.10156 -1.261718,-0.0469 -1.949219,0.23828 -4.003906,0.51562 -5.554688,1.72265 -0.402344,0.3125 -0.777344,0.72266 -0.84375,1.22656 -0.171875,1.3125 1.585938,1.84766 2.863282,2.20704 5.835937,1.65625 8.046874,8.94531 13.179687,12.17578 1.65625,1.03906 3.570313,1.62109 5.207031,2.6914 2.605469,1.69922 4.320313,4.53125 5.21875,7.51172 0.894532,2.98047 1.050782,6.12891 1.09375,9.23828 0.01563,1.36719 0.0078,2.77344 -0.503906,4.03906 -0.515625,1.26563 -1.648438,2.3711 -3.011719,2.44532 -1.386719,0.0742 -2.609375,-0.89844 -3.507812,-1.95703 -3.222657,-3.78516 -4.039063,-9.44922 -2.023438,-13.99219 0.414063,-0.9336 0.945313,-1.85938 0.980469,-2.87891 0.05078,-1.39844 -0.875,-2.6875 -2.042969,-3.45703 -1.167969,-0.77344 -2.554687,-1.12109 -3.914062,-1.45703 -0.0039,1.51953 -0.01172,3.04297 -0.01563,4.56641 0,0.72656 -0.03516,1.53125 -0.539063,2.05859 -0.550781,0.57422 -1.515625,0.58594 -2.207031,0.19141 -0.691406,-0.39844 -1.144531,-1.11329 -1.449219,-1.84766 -1.164062,-2.81641 -0.507812,-6.07031 -1.308593,-9.00781 -0.167969,-0.625 -0.417969,-1.25 -0.894532,-1.6836 -0.621094,-0.5664 -1.511718,-0.70703 -2.347656,-0.78125 -1.484375,-0.1289 -3.207031,-0.0156 -4.105469,1.17188 -1.203125,1.58594 -0.08203,3.875 1.28125,5.32812 1.363281,1.44922 3.085938,2.90625 3.15625,4.89844 -1.074219,0.33984 -2.199219,-0.44141 -2.863281,-1.35547 -0.667969,-0.91406 -1.101562,-2.01172 -1.9375,-2.77343 -0.628906,-0.57032 -1.464844,-0.91016 -2.3125,-0.94141 -0.738281,-0.0273 -1.523438,0.20312 -1.988281,0.77734 -0.464844,0.57422 -1.0625,0.0977 -0.738281,0.76172 1.125,2.29297 2.265624,4.60547 3.875,6.58984 1.609374,1.98047 3.761718,3.62891 6.257812,4.15625 1.734375,0.36719 3.570312,0.1875 5.253906,0.74219 3.425782,1.12891 5.1875,4.86719 6.222656,8.32031 1.035157,3.45704 1.871094,7.25782 4.601563,9.61719 2.769531,2.38672 6.90625,2.72656 9.585937,5.21875 1.988282,1.84375 2.847657,4.57031 3.605469,7.17188 0.285157,0.97265 0.566407,1.95703 1.070313,2.83203 1.082031,1.8789 3.160156,3.10937 5.320312,3.26953 2.160156,0.16406 4.351563,-0.70313 5.910156,-2.21094 1.339844,-1.30078 2.203126,-3.0039 3.371094,-4.45703 2.777344,-3.45312 7.292969,-5.55859 8.980469,-9.65625 0.917969,-2.23047 0.84375,-4.76562 1.683594,-7.03125 0.480469,-1.29687 1.25,-2.46875 2.011719,-3.62891 3.199218,-4.85937 6.398447,-9.72265 9.601567,-14.58593 0.86328,-1.3125 1.76563,-2.8125 1.45313,-4.35157"
       fill-opacity="1"
       fill-rule="nonzero"
       id="path50" />
  </g>
  <g
     clip-path="url(#ff277b1efb)"
     id="g56"
     transform="translate(-0.140625,-64.703125)">
    <path
       fill="#f0f1f1"
       d="m 349.05859,147.30078 c -2.46875,0.98438 -5.30468,1.05469 -7.80859,0.15234 -0.65625,-0.23828 -1.33594,-0.54296 -2.05469,0.004 -0.29297,0.22656 -0.5039,0.55469 -0.58984,0.91406 -0.24219,1.04688 0.40234,2.00782 1.25,2.5586 1.20312,0.78125 2.73047,0.82031 4.16797,0.79297 1.67578,-0.0312 3.44531,-0.10938 4.86718,0.91796 0.67969,0.49219 1.16016,1.25 1.21094,2.08985 0.10547,1.69531 -1.46484,2.55078 -2.88672,2.53906 -1.09375,-0.004 -2.13672,-0.41406 -3.16797,-0.77344 -6.55468,-2.29297 -13.58593,-2.78906 -20.51171,-3.26172 -1.65235,-0.11718 -3.33594,-0.22656 -4.94922,0.14063 -4.52735,1.02344 -7.51953,5.72656 -7.82422,10.35547 -0.1875,2.91797 0.48047,5.8125 0.78906,8.71875 0.043,0.40234 0.0742,0.83203 -0.125,1.17969 -0.23437,0.41015 -0.71484,0.59765 -1.16406,0.74218 -2.44141,0.77344 -5.04297,1.03516 -7.58985,0.76172 -1.44921,-0.15234 -3.07031,-0.62109 -3.70312,-1.93359 -0.28516,-0.58203 -0.32422,-1.25391 -0.35938,-1.90235 -0.0859,-1.64453 -0.17578,-3.29296 -0.26171,-4.9414 -0.16797,-3.17969 -0.9961,-6.6211 -3.42969,-8.67578 -1.91016,-1.60938 -4.70313,-2.53516 -6.92578,-1.39453 -1.35157,0.6875 -2.25,1.99218 -3.2461,3.13281 -0.99609,1.14453 -2.30468,2.22265 -3.8164,2.16797 -1.14063,-0.043 -2.16797,-0.72657 -3.08203,-1.36328 -0.36719,-0.25782 -0.65625,-0.625 -0.77344,-1.0586 -0.23047,-0.85156 0.32812,-1.26562 0.84375,-1.6289 1.1875,-0.83985 2.3789,-1.67969 3.5664,-2.51954 0.29688,-0.21093 0.60938,-0.4375 0.51954,-0.93359 -0.082,-0.42969 -0.44141,-0.76172 -0.86719,-0.84375 -3.61328,-0.70312 -7.22266,2.58984 -10.60938,1.30078 -1.375,-0.52344 -2.375,-1.71875 -3.625,-2.49219 -3.01562,-1.87109 -6.875,-1.07031 -10.39843,-0.67968 -1.09375,0.12109 -2.25,0.18359 -3.21094,-0.42578 -0.53906,-0.34375 -0.9375,-0.90235 -0.97266,-1.53907 -0.0703,-1.25 1.1836,-1.93359 2.30469,-1.9414 0.96484,-0.0117 1.89453,0.33593 2.84375,0.5 1.125,0.1914 2.29687,0.12109 3.39453,-0.21094 0.33203,-0.10156 0.63281,-0.30078 0.80469,-0.60547 0.51172,-0.91406 -0.51172,-1.73828 -1.37891,-2.16797 -2.35547,-1.16015 -4.76562,-2.21875 -7.21875,-3.16406 -2.19922,-0.84766 -4.46875,-1.625 -6.0664,-3.54297 -0.53516,-0.64062 -0.89844,-1.41797 -1.0625,-2.23828 -0.10547,-0.50391 -0.14844,-1.10938 0.14062,-1.56641 0.59766,-0.9414 2.05469,-0.6289 3.00781,-0.0469 0.94922,0.58203 2.02344,1.35547 3.07032,0.97265 -0.13672,-1.99609 0.0703,-4.01562 0.61328,-5.9414 0.17578,-0.62891 0.42187,-1.29688 1.17187,-1.48438 0.76563,-0.1914 1.54688,0.2461 1.89063,0.95313 0.75781,1.57422 -0.0664,3.10937 -0.15625,4.68359 -0.15625,2.64844 2.10547,5.19922 4.7539,5.35938 0.42188,-2.3711 1.41797,-4.63672 2.87891,-6.55078 0.13672,-0.17579 0.31641,-0.32422 0.52734,-0.39454 0.47657,-0.16015 0.73438,0.14844 0.91797,0.45313 0.64844,1.09375 0.70703,2.51953 0.14453,3.66016 -0.54687,1.10937 -1.61328,1.9375 -1.97265,3.12109 -0.41407,1.35937 0.23047,2.82812 1.11328,3.94141 2.32031,2.91796 6.17187,4.19531 9.88281,4.54296 2.81641,0.26563 5.65625,0.082 8.48828,0.082 1.03516,0 1.29297,-1.44141 0.32031,-1.80079 l -0.0273,-0.0117 c -7.29297,-2.71875 -13.44922,-8.36719 -16.78125,-15.39844 -0.40625,-0.85547 -0.79687,-1.76563 -1.54297,-2.35156 -0.66797,-0.52735 -1.53515,-0.71485 -2.37109,-0.89063 -5.3711,-1.13281 -10.7461,-2.26172 -16.1211,-3.39062 -1.45703,-0.3086 -2.94921,-0.62891 -4.22265,-1.40235 -1.32813,-0.80859 -2.39453,-2.21875 -2.3125,-3.78515 0.0234,-0.4375 0.17578,-0.8711 0.47656,-1.1875 0.52344,-0.54297 1.08984,-0.3711 1.61328,-0.19922 2.61719,0.84375 5.23828,1.6914 7.85938,2.53906 0.44531,-1.16016 0.1875,-2.47656 -0.25782,-3.63672 -0.44531,-1.16015 -1.07031,-2.25781 -1.39062,-3.45703 -0.33594,-1.27734 -0.26563,-2.76953 0.67187,-3.73047 0.69922,-0.71094 1.79297,-0.94922 2.64454,-0.42578 0.73437,0.44922 0.875,1.25781 0.99218,2.01953 0.16016,1.01563 0.31641,2.03516 0.47657,3.05078 0.21093,1.35157 0.43359,2.73438 1.10937,3.92188 1.36328,2.39844 4.64453,3.48828 7.17188,2.38281 -1.10938,-2.92187 -1.54297,-5.99219 -2.83594,-8.83594 -1.07031,-2.35937 -2.39453,-4.8789 -4.78125,-5.88281 -1.66797,-0.70312 -3.64844,-0.55469 -5.19922,-1.48437 -1.65234,-0.9961 -2.52734,-3.19922 -1.73438,-5.054692 0.3125,-0.730469 0.92969,-1.316407 1.69922,-1.511719 3.01563,-0.773438 4.74219,4.523441 7.95703,3.726561 0.92188,-0.22656 1.65235,-0.92578 2.01172,-1.80078 0.82813,-2.011719 0.13672,-4 -0.35547,-5.953125 -0.46093,-1.828125 -0.73828,-3.863281 0.51954,-5.453125 1.42187,-1.796875 4.14843,-1.988281 5.8125,-0.410156 2.05468,1.953125 1.4414,5.261718 0.33593,7.816406 -1.35156,3.113281 -3.29687,6.19141 -3.11718,9.57813 0.0976,1.87109 0.84375,3.63671 1.58203,5.35937 2.26953,5.29688 4.53906,10.59766 7.08593,15.76953 1.50391,3.05469 3.23047,6.20313 6.125,8 0.40625,0.25391 0.91407,0.48828 1.35157,-0.008 0.16797,-0.19531 0.25,-0.44922 0.26562,-0.70703 0.19922,-3.83985 0.39844,-7.67578 0.59766,-11.51172 0.0547,-1.07031 0.0976,-2.19922 -0.39453,-3.14844 -0.44532,-0.85937 -1.26563,-1.44922 -2.08594,-1.96094 -2,-1.24609 -4.25391,-2.30078 -5.54297,-4.26953 -1.29297,-1.96875 -0.9375,-5.23828 1.30469,-5.95703 0.26172,-0.0859 0.55469,-0.1289 0.8164,-0.0391 0.30079,0.10937 0.51172,0.375 0.69922,0.63672 1.79688,2.52734 3.03907,5.9375 6.01953,6.79687 1.07813,-2.57031 2.17188,-5.21875 2.22266,-8.00781 0.0508,-2.78906 -1.1875,-5.785156 -3.69141,-7.007812 -1.875,-0.914063 -4.14453,-0.71875 -6.02343,-1.625 C 269.46484,96.195312 268.16797,94.125 268.22656,92 c 0.008,-0.382812 0.16797,-0.761719 0.47266,-0.996094 0.89062,-0.703125 1.91797,0.332032 2.64453,1.109375 1.65625,1.777344 4.19141,2.695313 6.60156,2.390625 -0.0117,-1.625 -1.28906,-2.949218 -2.60937,-3.898437 -1.69532,-1.214844 -3.6836,-2.210938 -4.25782,-4.449219 -0.26953,-1.0625 0.12891,-2.214844 1.0625,-2.785156 1.51563,-0.933594 3.26563,0.300781 4.34375,1.601562 1.01954,1.226563 2.05469,2.714844 3.63672,2.925782 0.67578,-1.957032 -0.61328,-4.039063 -2.07812,-5.503907 -1.82422,-1.824219 -4.13281,-3.425781 -4.1875,-6.3125 -0.0234,-1.464843 1.01562,-2.78125 2.47656,-2.886719 1.60938,-0.117187 2.59375,1.328126 3.35156,2.621094 2.53907,4.324219 5.10938,8.71875 6.39453,13.566406 0.78516,2.957032 1.07422,6.019532 1.32032,9.070313 0.125,1.519531 0.23828,3.042965 0.34375,4.566405 0.0898,1.30078 1.71484,1.80078 2.54297,0.79297 0.0234,-0.0273 0.043,-0.0508 0.0625,-0.0742 0.90625,-1.07812 2.33203,-1.99219 3.6914,-1.25 0.67578,0.36719 1.09766,1.0586 1.26563,1.8086 0.6289,2.84375 -1.86719,5.66406 -4.66016,5.71484 -1.78516,0.0352 -3.71484,-0.88281 -5.07422,1.17187 -0.40234,0.60938 -0.61719,1.32422 -0.67578,2.05469 -0.58984,7.66016 -0.69531,15.35547 -0.31641,23.02734 0.0547,1.17579 0.12891,2.3711 0.53125,3.47657 0.54297,1.48437 1.64063,2.69922 2.82813,3.73828 2.12109,1.86328 4.61719,3.30078 7.28906,4.20312 0.52344,0.17969 1.1211,0.33594 1.57031,-0.28125 0.21094,-0.28906 0.3086,-0.64843 0.32032,-1.00781 l 0.29687,-10.68359 c 0.0664,-2.41407 -0.16406,-5.35547 -2.33203,-6.42188 -2.26562,-1.11328 -5.58203,0.51953 -7.23437,-1.39453 -0.76563,-0.88281 -0.77344,-2.16015 -0.0977,-3.10937 1.40234,-1.97657 4.20703,-1.28516 5.26172,0.48437 -0.0937,-1.63672 -1.10547,-3.05469 -1.90625,-4.48828 -0.875,-1.57422 -1.52344,-3.55469 -0.42969,-5.09766 0.26172,-0.36718 0.67578,-0.625 1.125,-0.62109 1.03906,0.0117 1.36719,1.16406 1.63672,2.07422 0.71094,2.41797 2.39844,4.53516 4.59375,5.77344 1.10937,-2.1211 2.21875,-4.24219 3.32812,-6.36328 0.98047,-1.8711 1.98438,-3.82032 2.08594,-5.9336 0.13672,-2.8789 -1.41406,-5.55078 -3.07422,-7.91015 -3.34765,-4.746099 -7.35156,-9.011724 -10.57812,-13.839849 -3.22266,-4.832031 -5.6875,-10.457031 -5.38281,-16.257812 0.11718,-2.292969 1.12109,-5.019531 3.43359,-5.324219 0.34766,-0.04297 0.70703,-0.01953 1.02344,0.136719 0.77343,0.382812 0.76562,1.1875 0.71484,1.894531 -0.16797,2.339844 -0.5,4.671875 -0.98828,6.96875 -0.30469,1.429688 0.62891,2.847656 2.07031,3.089844 0.69531,0.117187 1.42578,0.02734 2.08203,-0.292969 1.58203,-0.777344 2.625,-2.339844 3.41407,-3.914063 0.78125,-1.558593 1.39062,-3.199218 1.8125,-4.886718 0.42968,-1.714844 0.69921,-3.546875 2.09375,-4.800782 0.66015,-0.59375 1.55078,-0.90625 2.41796,-0.722656 1.94532,0.417969 2.23438,2.78125 1.45704,4.367188 -0.67969,1.394531 -1.92579,2.414062 -2.91407,3.613281 -0.98828,1.199219 -1.74609,2.828125 -1.1914,4.277344 0.68359,1.78125 2.86328,2.328125 4.67968,2.902343 1.88282,0.597657 4.01954,2.109376 3.41407,4.070313 -0.32422,1.054687 -1.32422,1.730469 -2.42188,1.8125 -2.42187,0.175781 -4.16406,-1.460937 -6.25781,-2.210937 -1.92969,-0.6875 -4.63672,-0.304688 -4.84375,2.210937 -0.082,0.972656 0.26562,1.933594 0.88281,2.6875 L 306.97266,102.75 c 0.54296,0.66406 1.10937,1.34766 1.8789,1.72656 1.125,0.55469 2.59766,0.3086 3.48047,-0.58203 0.88672,-0.89453 1.11719,-2.36328 0.55078,-3.48828 -0.41015,-0.8125 -1.16406,-1.394531 -1.78125,-2.066406 -1.91797,-2.09375 -2.51953,-5.304688 -1.48437,-7.953125 0.15234,-0.386719 0.39843,-0.8125 0.80859,-0.878907 0.23438,-0.03516 0.46484,0.05859 0.66797,0.171876 2.45703,1.390624 1.91016,5.8125 4.53516,6.855468 1.32421,-2.589844 2.68359,-5.527344 1.8125,-8.304687 -0.71094,-2.265625 -2.73047,-3.816407 -4.21485,-5.667969 -1.3164,-1.640625 -2.26562,-3.722656 -2.0039,-5.8125 0.14453,-1.175781 0.76953,-2.3125 1.66406,-3.074219 0.95703,-0.816406 2.4414,-0.257812 2.6289,0.988281 0.37891,2.492188 1.41797,4.886719 3.01172,6.84375 0.21875,0.273438 0.48828,0.511719 0.80078,0.675782 1.48047,0.78125 2.60157,-0.441406 3.23047,-1.613282 1.6836,-3.140624 2,-7.0625 4.46875,-9.632812 1.92188,-2.007812 5.02344,-2.785156 7.66797,-1.929688 0.41406,0.132813 0.83985,0.324219 1.08594,0.683594 0.25781,0.378906 0.26172,0.875 0.1875,1.328125 -0.38672,2.332031 -2.5,3.902344 -4.13281,5.613281 -4.3125,4.511719 -5.76172,10.964844 -7.03516,17.074219 -0.0742,0.367188 -0.14844,0.761719 0.008,1.101563 0.42969,0.949218 2.01563,0.519531 2.67578,-0.132813 0.3711,-0.371093 0.82813,-0.65625 1.35157,-0.714843 1.9414,-0.214844 1.94922,1.992187 1.10547,3.144531 -0.98047,1.34375 -2.64063,2.117187 -4.30469,2.167969 -1.12891,0.03125 -2.30469,-0.234376 -3.3711,0.144531 -1.14062,0.402343 -1.91015,1.449221 -2.60546,2.441411 -2.46875,3.52343 -4.94141,7.04687 -7.41016,10.57031 -0.26563,0.38281 -0.55078,0.83203 -0.22656,1.30859 0.21875,0.31641 0.60156,0.48047 0.98437,0.47266 l 7.65625,-0.14063 c 1.90235,-0.0352 3.83985,-0.0742 5.64453,-0.67968 2.34375,-0.78516 4.27344,-2.45704 6.13282,-4.08594 1.79296,-1.57031 3.58593,-3.14453 5.3789,-4.71485 1.39453,-1.22265 2.82422,-2.49218 3.64063,-4.15625 0.80468,-1.648434 0.93359,-3.535152 1.35547,-5.320309 0.49609,-2.089843 1.60156,-4.285156 3.88281,-4.714843 1.28125,-0.242188 2.61328,0.40625 3.03906,1.636718 0.41797,1.214844 -0.29297,2.21875 -0.96875,3.121094 -1.44531,1.933594 -2.89062,3.867188 -4.33594,5.80078 1.80078,0.96875 3.96485,1.24219 5.95313,0.75 1.39062,-0.34375 2.69922,-1.04297 4.1914,-0.85547 0.6836,0.0859 1.33594,0.41407 1.73047,0.98047 1.09766,1.58203 -0.60547,3.50781 -2.36328,3.83594 -1.64453,0.30859 -3.33594,-0.20313 -5.00781,-0.13672 -3.97266,0.16016 -7.07031,3.44922 -9.74609,6.28906 -0.34375,0.36328 -0.59375,0.81641 -0.66407,1.3086 -0.42968,2.95312 5.05078,2.625 5.17188,5.55859 0.0508,1.21875 -0.9336,2.23828 -2.14844,2.35156 -2.75781,0.25782 -4.36719,-1.86328 -6.44922,-3.07812 -4.07031,-2.36328 -9.19922,-0.97266 -13.67578,0.48047 -0.99609,0.32031 -2.04297,0.67187 -2.64062,1.60156 -0.28516,0.44531 -0.39454,1 -0.22266,1.50391 0.52734,1.51171 2.71484,0.85546 3.09375,2.66406 0.24219,1.15234 -0.58984,2.30469 -1.73438,2.58203 -2.14062,0.51172 -3.84765,-1.00391 -5.41015,-2.30859 -2.13672,-1.78516 -5.28906,-3.375 -7.51953,-1.53907 -0.3711,0.3086 -0.64063,0.73828 -0.67969,1.21485 -0.13672,1.66015 2.34375,2.20312 3.75781,1.91406 0.50781,-0.10547 1.03516,-0.12109 1.53906,0.0117 3.01954,0.78906 1.97266,3.5039 0.28516,4.20703 -1.1875,0.49609 -2.53516,0.29297 -3.80469,0.10937 -0.70703,-0.10156 -1.45312,-0.19531 -2.11718,0.0664 -0.89454,0.35156 -1.4375,1.25391 -1.85938,2.11719 -1.02734,2.08984 -1.75781,4.32031 -2.17187,6.60937 -0.10157,0.57031 -0.17969,1.17188 0.008,1.72266 0.33203,0.95703 1.42969,1.47656 2.44531,1.46094 1.01172,-0.0195 1.96875,-0.45313 2.89063,-0.87891 2.63671,-1.22266 5.27734,-2.44531 7.91796,-3.66797 2.56641,-1.19141 5.32032,-2.55469 6.57032,-5.09375 0.72265,-1.46484 0.83984,-3.14062 1.09765,-4.7539 0.31641,-2 0.94922,-4.10938 2.91407,-5.08985 1.05468,-0.52734 2.35937,-0.39844 3.1875,0.44531 1.50781,1.52344 0.34375,3.9336 -1.03516,5.44922 -1.31641,1.44922 -2.96094,3.04297 -2.71484,4.98828 5.39843,-3.13672 10.66796,-6.49609 15.79296,-10.0625 1.30079,-0.90625 2.70704,-1.86328 4.38282,-1.51953 0.83984,0.17188 1.55078,0.78907 1.71875,1.62891 0.26953,1.35547 -0.94532,2.28516 -2.10547,2.76953 -0.66797,0.28125 -1.41797,0.52734 -1.59766,1.375 -0.18359,0.83984 0.34766,1.67187 1.16016,1.95312 1.78515,0.61719 3.25781,-0.5039 4.83594,-1.07421 1.27734,-0.45704 3.01562,-0.37891 3.60937,0.84375 0.21094,0.43359 0.23047,0.9375 0.16016,1.41406 -0.39063,2.75 -3.98047,4.46484 -6.36328,3.03515 -2.3086,-1.38281 -3.39844,-4.94921 -6.61719,-3.99218 -0.44531,0.13281 -0.86328,0.34765 -1.25,0.60547 l -24.97656,16.5 c -1.97657,1.30468 -4.07422,2.77734 -5.30079,4.73046 -0.65625,1.04688 0.42579,2.28516 1.54688,1.76563 0.94141,-0.43359 1.83594,-1.11328 2.6875,-1.71094 2.74609,-1.92578 5.94531,-3.20312 9.26172,-3.69531 2.13672,-0.31641 4.32422,-0.31641 6.42578,-0.8125 2.10156,-0.5 4.19531,-1.60547 5.20312,-3.51563 0.8086,-1.53125 0.8086,-3.33593 1.06641,-5.04296 0.30078,-2.03125 1.19531,-4.26172 3.45703,-4.625 1.29297,-0.20704 2.50391,0.625 2.57422,1.9375 0.0664,1.25781 -1.01953,1.90625 -1.78125,2.71875 -0.64062,0.67968 -1.03125,1.875 -0.31641,2.47265 0.29297,0.2461 0.69922,0.3125 1.08204,0.32422 2.44921,0.0977 4.64453,-1.41406 7.01562,-2.04297 2.86328,-0.76562 7.05859,0.76172 5.43359,4.48047 -0.61718,1.42188 -1.82812,2.49219 -3.26953,3.0625"
       fill-opacity="1"
       fill-rule="nonzero"
       id="path54" />
  </g>
  <g
     clip-path="url(#251e1515d7)"
     id="g60"
     transform="translate(-0.140625,-64.703125)">
    <path
       fill="#f0f1f1"
       d="m 262.04687,129.20312 c -0.21875,-1.07031 -1.0039,-1.94921 -1.90625,-2.55859 -0.83984,-0.57031 -2.0039,-0.9375 -2.83984,-0.35937 -0.37891,0.26172 -0.62109,0.67187 -0.84375,1.07422 -1.42578,2.55078 -2.63672,5.22656 -3.61328,7.98437 -0.44531,1.25391 -1.02734,2.71094 -2.31641,3.04297 -0.4375,-1.9375 -1.08203,-3.82813 -1.92187,-5.625 -0.45703,-0.97656 -1.08594,-2.02344 -2.12891,-2.29688 -1.33984,-0.35156 -2.59765,0.72266 -3.5664,1.71094 -0.3711,0.375 -0.75391,0.77734 -0.86719,1.28906 -0.19531,0.8711 0.4414,1.6836 0.99219,2.38672 2.47265,3.13672 4.0625,7.02344 4.16796,11.01563 0.10547,3.99218 -1.34765,8.0625 -4.1875,10.86718 -3.13281,3.09375 -7.82031,4.65625 -9.97265,8.4961 -0.0156,0.0234 -0.0273,0.0508 -0.043,0.082 -1.07031,-1.92188 -1.24219,-4.67578 -0.18359,-6.55859 1.125,-2.00391 2.79296,-3.64844 4,-5.60157 2.91015,-4.71875 2.8125,-10.625 2.71093,-16.16797 -0.10156,-5.51953 -0.10937,-11.1289 1.38672,-16.4414 1.5,-5.3125 4.71094,-10.37891 9.61719,-12.91797 1.42969,-0.73828 2.98437,-1.25781 4.32031,-2.15625 1.33594,-0.90234 2.47266,-2.32031 2.47266,-3.93359 -0.004,-0.94532 -0.39453,-1.84375 -0.77735,-2.710941 -0.17578,-0.402344 -0.39062,-0.839844 -0.80078,-0.996094 -0.55468,-0.210937 -1.13672,0.203125 -1.58593,0.589844 -4.32032,3.726561 -8.54297,7.566411 -12.66016,11.515621 -0.22656,-3.72265 -0.80078,-7.27734 -1.02734,-10.999996 -0.3125,-5.117188 -0.6211,-10.292969 0.32031,-15.335938 0.28906,-1.542968 0.69531,-3.070312 0.87109,-4.636718 0.082,-0.761719 0.10938,-1.550782 -0.14062,-2.277344 -0.65625,-1.902344 -2.86719,-2.6875 -4.8086,-3.222656 -0.59765,-0.167969 -1.27343,-0.324219 -1.8125,-0.01563 -0.75781,0.433594 -0.80078,1.488282 -0.73437,2.359376 0.33203,4.390624 1.08203,8.75 2.23047,13 -1.65625,-1.089844 -3.97657,-2.214844 -5.82422,-2.941407 -0.89063,-0.351562 -1.875,-0.660156 -2.79297,-0.386719 -1.81641,0.546876 -2.24219,2.878907 -2.34766,4.773438 -0.0156,0.308594 -0.0117,0.664062 0.22657,0.859375 0.15234,0.121094 0.35546,0.144531 0.55078,0.15625 2.57812,0.175781 5.45703,-0.394531 7.53515,1.144531 1.42969,1.0625 2.06641,2.867188 2.54688,4.582032 0.98047,3.523446 1.60547,7.148446 1.86328,10.800786 0.18359,2.58984 0.17969,5.1875 0.17578,7.78516 -0.004,3.1914 -0.008,6.3789 -0.008,9.57031 -0.004,0.45703 -1.07031,0.28906 -1.51953,0.21484 -1.54688,-0.25781 -3.16797,-0.60937 -4.3125,-1.67578 -0.84766,-0.78906 -1.33985,-1.89062 -2.125,-2.74219 -0.78907,-0.84765 -2.13282,-1.41797 -3.09375,-0.76953 -0.58594,0.39453 -0.84375,1.11719 -1.04688,1.79297 -0.27344,0.91797 -0.50781,1.84375 -0.71094,2.77734 -0.0742,0.35938 -0.125,0.78907 0.14454,1.03907 0.18359,0.16797 0.45703,0.1914 0.70703,0.20703 2.71093,0.18359 5.39062,0.91015 7.82422,2.125 0.94921,0.46875 1.95312,1.03125 2.99609,0.86328 0.625,3.76172 -0.42188,8.07812 -2.12891,11.48828 -1.78125,3.55469 -4.73828,6.55859 -5.74218,10.41016 -0.33985,1.30859 -0.44141,2.67968 -0.89844,3.94921 -0.45703,1.27344 -1.38281,2.49219 -2.69922,2.79297 -2.14844,0.49219 -3.95703,-1.55078 -5.21484,-3.36328 -1.375,-1.98047 -2.8086,-4.17187 -2.625,-6.57422 0.0977,-1.29687 0.67187,-2.5039 1.23046,-3.67968 0.92969,-1.9375 1.85547,-3.875 2.78125,-5.8125 1.70704,-3.57032 0.45704,-8.11329 0.52344,-12.06641 0.0352,-2.25781 0.0703,-4.52344 0.36719,-6.76172 0.39453,-3.00781 1.23828,-6.14453 0.21484,-9 -0.70703,-1.95703 -2.22265,-3.53906 -2.91797,-5.5 -1.57812,-4.45312 1.42969,-9.113284 2.09375,-13.789065 0.1875,-1.3125 0.16797,-2.726563 -0.5039,-3.871094 -0.67188,-1.144531 -2.16406,-1.882813 -3.37891,-1.351563 -1.44531,0.628907 -1.75,2.507813 -1.85156,4.082032 -0.23828,3.632812 -0.47656,7.265625 -0.71484,10.89844 -0.0352,0.5625 -0.23829,1.29688 -0.80469,1.3086 -0.1875,0.004 -0.36719,-0.0859 -0.53125,-0.1836 -1.875,-1.13281 -2.67578,-3.46094 -2.85547,-5.644534 -0.17578,-2.179688 0.11719,-4.394531 -0.23047,-6.558594 -0.34766,-2.160156 -1.55469,-4.398437 -3.63672,-5.066406 -1.97265,-0.632812 -4.07812,0.292969 -5.91015,1.253906 -0.23829,0.125 -0.4961,0.277344 -0.5586,0.535156 -0.0937,0.367188 0.25391,0.679688 0.55469,0.910157 2.42578,1.863281 4.30469,4.441406 5.33203,7.324219 0.76563,2.136718 1.09375,4.472656 2.34766,6.363286 1.57422,2.36328 4.32031,3.62109 6.44531,5.50391 1.77344,1.57421 3.12891,3.625 3.87891,5.875 0.82031,2.45312 0.92187,5.07812 1.01562,7.66015 0.1875,5.0586 0.375,10.11328 0.5625,15.17188 0.0195,0.55078 0.0312,1.14062 -0.26953,1.59765 -0.61328,0.9336 -2.15625,0.69922 -2.88672,-0.14453 -0.73047,-0.84375 -0.89453,-2.01953 -1.09375,-3.11719 -0.58594,-3.16797 -1.82422,-6.3164 -4.12109,-8.57421 -1.46094,-1.44141 -3.32032,-2.49219 -4.51953,-4.16016 -1.42188,-1.97656 -1.70704,-4.52734 -1.875,-6.95703 -0.12891,-1.80078 -0.21875,-3.60156 -0.25,-5.40625 -0.0273,-1.34375 -0.0312,-2.75 -0.64844,-3.94531 -0.61328,-1.19532 -2.0586,-2.08985 -3.3125,-1.60547 -1.76953,0.67968 -1.74219,3.20703 -1.11328,4.99609 1.07422,3.05078 3.0039,6.16797 2.10937,9.27734 -1.79687,-0.44921 -2.44531,-2.59375 -3.03515,-4.35156 -0.8086,-2.42578 -2.06641,-4.69922 -3.6836,-6.67969 -0.28125,-0.33984 -0.58594,-0.6875 -1,-0.83984 -0.39844,-0.14844 -0.83984,-0.10156 -1.26172,-0.0469 -1.94922,0.23828 -4.00781,0.51562 -5.55468,1.72265 -0.40235,0.3125 -0.77735,0.72266 -0.84375,1.22656 -0.17188,1.3125 1.58593,1.84766 2.85937,2.20704 5.83594,1.65625 8.05078,8.94531 13.18359,12.17578 1.65625,1.03906 3.56641,1.62109 5.20313,2.6914 2.60547,1.69922 4.32031,4.53125 5.21875,7.51172 0.89844,2.98047 1.05469,6.12891 1.09375,9.23828 0.0195,1.36719 0.008,2.77344 -0.50391,4.03906 -0.51172,1.26563 -1.64453,2.3711 -3.01172,2.44532 -1.38671,0.0742 -2.60546,-0.89844 -3.50781,-1.95703 -3.21875,-3.78516 -4.03515,-9.44922 -2.02344,-13.99219 0.41407,-0.9336 0.94532,-1.85938 0.98438,-2.87891 0.0508,-1.39844 -0.875,-2.6875 -2.04297,-3.45703 -1.16797,-0.77344 -2.55859,-1.12109 -3.91797,-1.45703 -0.004,1.51953 -0.008,3.04297 -0.0117,4.56641 -0.004,0.72656 -0.0352,1.53125 -0.53906,2.05859 -0.55078,0.57422 -1.51953,0.58594 -2.21094,0.19141 -0.6914,-0.39844 -1.14062,-1.11329 -1.44531,-1.84766 -1.16406,-2.81641 -0.50781,-6.07031 -1.30859,-9.00781 -0.16797,-0.625 -0.41797,-1.25 -0.89453,-1.6836 -0.6211,-0.5664 -1.51172,-0.70703 -2.35157,-0.78125 -1.48047,-0.1289 -3.20703,-0.0156 -4.10547,1.17188 -1.19921,1.58594 -0.082,3.875 1.28125,5.32812 1.36329,1.44922 3.08985,2.90625 3.16016,4.89844 -1.07812,0.33984 -2.20312,-0.44141 -2.86719,-1.35547 -0.66406,-0.91406 -1.09765,-2.01172 -1.93359,-2.77343 -0.62891,-0.57032 -1.46484,-0.91016 -2.3125,-0.94141 -0.73828,-0.0273 -1.52734,0.20312 -1.99219,0.77734 -0.46484,0.57422 -1.05859,0.0977 -0.73437,0.76172 1.125,2.29297 2.26172,4.60547 3.875,6.58984 1.60937,1.98047 3.75781,3.62891 6.25781,4.15625 1.73437,0.36719 3.57031,0.1875 5.25,0.74219 3.42578,1.12891 5.19141,4.86719 6.22266,8.32031 1.03515,3.45704 1.875,7.25782 4.60546,9.61719 2.76954,2.38672 6.90625,2.72656 9.58594,5.21875 1.98438,1.84375 2.84766,4.57031 3.60547,7.17188 0.28125,0.97265 0.56641,1.95703 1.07031,2.83203 1.07813,1.8789 3.16016,3.10937 5.32032,3.26953 2.16015,0.16406 4.35156,-0.70313 5.90625,-2.21094 1.33984,-1.30078 2.20703,-3.0039 3.375,-4.45703 2.77343,-3.45312 7.29296,-5.55859 8.97656,-9.65625 0.91797,-2.23047 0.84375,-4.76562 1.68359,-7.03125 0.48438,-1.29687 1.25391,-2.46875 2.01563,-3.62891 3.19922,-4.85937 6.39843,-9.72265 9.59765,-14.58593 0.86719,-1.3125 1.76953,-2.8125 1.45703,-4.35157"
       fill-opacity="1"
       fill-rule="nonzero"
       id="path58" />
  </g>
  <g
     fill="#ff6f61"
     fill-opacity="1"
     id="g68"
     transform="translate(-0.140625,-64.703125)">
    <g
       transform="translate(114.60455,115.88933)"
       id="g66">
      <g
         id="g64">
        <path
           d="m 1.375,0 v -11.8125 h 4.078125 v 1.25 H 5.5 c 1.0625,-1.0625 2.191406,-1.59375 3.390625,-1.59375 0.851563,0 1.65625,0.179688 2.40625,0.53125 0.75,0.355469 1.316406,0.902344 1.703125,1.640625 1.195312,-1.445313 2.503906,-2.171875 3.921875,-2.171875 1.25,0 2.328125,0.355469 3.234375,1.0625 0.90625,0.710938 1.359375,1.8125 1.359375,3.3125 V 0 h -4.0625 v -6.671875 c 0,-0.632813 -0.179687,-1.160156 -0.53125,-1.578125 -0.34375,-0.425781 -0.859375,-0.640625 -1.546875,-0.640625 -0.59375,0 -1.054688,0.183594 -1.375,0.546875 -0.3125,0.367188 -0.484375,0.796875 -0.515625,1.296875 V 0 H 9.40625 V -6.671875 C 9.40625,-7.304688 9.234375,-7.832031 8.890625,-8.25 8.546875,-8.675781 8.03125,-8.890625 7.34375,-8.890625 c -0.636719,0 -1.109375,0.199219 -1.421875,0.59375 -0.3125,0.398437 -0.46875,0.859375 -0.46875,1.390625 V 0 Z m 0,0"
           id="path62" />
      </g>
    </g>
  </g>
  <g
     fill="#ff6f61"
     fill-opacity="1"
     id="g76"
     transform="translate(-0.140625,-64.703125)">
    <g
       transform="translate(136.12402,115.88933)"
       id="g74">
      <g
         id="g72">
        <path
           d="m 13.328125,-5.34375 h -8.5625 c 0,0.835938 0.265625,1.449219 0.796875,1.84375 0.539062,0.398438 1.125,0.59375 1.75,0.59375 0.664062,0 1.1875,-0.082031 1.5625,-0.25 0.382812,-0.175781 0.828125,-0.53125 1.328125,-1.0625 l 2.9375,1.484375 c -1.230469,2.054687 -3.273437,3.078125 -6.125,3.078125 -1.78125,0 -3.308594,-0.609375 -4.578125,-1.828125 -1.273438,-1.21875 -1.90625,-2.6875 -1.90625,-4.40625 0,-1.71875 0.632812,-3.191406 1.90625,-4.421875 1.269531,-1.226562 2.796875,-1.84375 4.578125,-1.84375 1.875,0 3.394531,0.542969 4.5625,1.625 1.175781,1.085938 1.765625,2.632812 1.765625,4.640625 0,0.273437 -0.0078,0.453125 -0.01563,0.546875 z M 4.875,-7.59375 h 4.5 C 9.28125,-8.207031 9.035156,-8.675781 8.640625,-9 c -0.386719,-0.332031 -0.886719,-0.5 -1.5,-0.5 -0.679687,0 -1.21875,0.179688 -1.625,0.53125 C 5.117188,-8.625 4.90625,-8.164062 4.875,-7.59375 Z m 0,0"
           id="path70" />
      </g>
    </g>
  </g>
  <g
     fill="#ff6f61"
     fill-opacity="1"
     id="g84"
     transform="translate(-0.140625,-64.703125)">
    <g
       transform="translate(148.8515,115.88933)"
       id="g82">
      <g
         id="g80">
        <path
           d="m 13.328125,-5.34375 h -8.5625 c 0,0.835938 0.265625,1.449219 0.796875,1.84375 0.539062,0.398438 1.125,0.59375 1.75,0.59375 0.664062,0 1.1875,-0.082031 1.5625,-0.25 0.382812,-0.175781 0.828125,-0.53125 1.328125,-1.0625 l 2.9375,1.484375 c -1.230469,2.054687 -3.273437,3.078125 -6.125,3.078125 -1.78125,0 -3.308594,-0.609375 -4.578125,-1.828125 -1.273438,-1.21875 -1.90625,-2.6875 -1.90625,-4.40625 0,-1.71875 0.632812,-3.191406 1.90625,-4.421875 1.269531,-1.226562 2.796875,-1.84375 4.578125,-1.84375 1.875,0 3.394531,0.542969 4.5625,1.625 1.175781,1.085938 1.765625,2.632812 1.765625,4.640625 0,0.273437 -0.0078,0.453125 -0.01563,0.546875 z M 4.875,-7.59375 h 4.5 C 9.28125,-8.207031 9.035156,-8.675781 8.640625,-9 c -0.386719,-0.332031 -0.886719,-0.5 -1.5,-0.5 -0.679687,0 -1.21875,0.179688 -1.625,0.53125 C 5.117188,-8.625 4.90625,-8.164062 4.875,-7.59375 Z m 0,0"
           id="path78" />
      </g>
    </g>
  </g>
  <g
     fill="#ff6f61"
     fill-opacity="1"
     id="g92"
     transform="translate(-0.140625,-64.703125)">
    <g
       transform="translate(161.57898,115.88933)"
       id="g90">
      <g
         id="g88">
        <path
           d="m 2.078125,-11.8125 v -4.390625 h 4.0625 V -11.8125 H 8.625 v 3.109375 H 6.140625 v 3.75 c 0,1.09375 0.304687,1.640625 0.921875,1.640625 0.15625,0 0.316406,-0.03125 0.484375,-0.09375 0.164063,-0.0625 0.296875,-0.125 0.390625,-0.1875 L 8.078125,-3.6875 9.09375,-0.390625 c -0.875,0.4882812 -1.875,0.734375 -3,0.734375 C 5.332031,0.34375 4.675781,0.210938 4.125,-0.046875 3.570312,-0.316406 3.148438,-0.675781 2.859375,-1.125 2.578125,-1.582031 2.375,-2.0625 2.25,-2.5625 2.132812,-3.0625 2.078125,-3.597656 2.078125,-4.171875 v -4.53125 H 0.375 V -11.8125 Z m 0,0"
           id="path86" />
      </g>
    </g>
  </g>
  <g
     fill="#ff6f61"
     fill-opacity="1"
     id="g98"
     transform="translate(-0.140625,-64.703125)">
    <g
       transform="translate(169.5192,115.88933)"
       id="g96">
      <g
         id="g94" />
    </g>
  </g>
  <g
     fill="#ff6f61"
     fill-opacity="1"
     id="g106"
     transform="translate(-0.140625,-64.703125)">
    <g
       transform="translate(174.6515,115.88933)"
       id="g104">
      <g
         id="g102">
        <path
           d="m 2.078125,-11.8125 v -4.390625 h 4.0625 V -11.8125 H 8.625 v 3.109375 H 6.140625 v 3.75 c 0,1.09375 0.304687,1.640625 0.921875,1.640625 0.15625,0 0.316406,-0.03125 0.484375,-0.09375 0.164063,-0.0625 0.296875,-0.125 0.390625,-0.1875 L 8.078125,-3.6875 9.09375,-0.390625 c -0.875,0.4882812 -1.875,0.734375 -3,0.734375 C 5.332031,0.34375 4.675781,0.210938 4.125,-0.046875 3.570312,-0.316406 3.148438,-0.675781 2.859375,-1.125 2.578125,-1.582031 2.375,-2.0625 2.25,-2.5625 2.132812,-3.0625 2.078125,-3.597656 2.078125,-4.171875 v -4.53125 H 0.375 V -11.8125 Z m 0,0"
           id="path100" />
      </g>
    </g>
  </g>
  <g
     fill="#ff6f61"
     fill-opacity="1"
     id="g114"
     transform="translate(-0.140625,-64.703125)">
    <g
       transform="translate(182.59172,115.88933)"
       id="g112">
      <g
         id="g110">
        <path
           d="M 1.375,0 V -19.796875 H 5.453125 V -10.5625 H 5.5 c 1.0625,-1.0625 2.191406,-1.59375 3.390625,-1.59375 0.582031,0 1.160156,0.07813 1.734375,0.234375 0.570312,0.15625 1.125,0.398437 1.65625,0.71875 0.53125,0.324219 0.957031,0.78125 1.28125,1.375 0.332031,0.585937 0.5,1.265625 0.5,2.046875 V 0 H 9.984375 v -6.671875 c 0,-0.613281 -0.199219,-1.148437 -0.59375,-1.609375 C 9.003906,-8.738281 8.5,-8.96875 7.875,-8.96875 c -0.617188,0 -1.171875,0.242188 -1.671875,0.71875 -0.5,0.46875 -0.75,0.996094 -0.75,1.578125 V 0 Z m 0,0"
           id="path108" />
      </g>
    </g>
  </g>
  <g
     fill="#ff6f61"
     fill-opacity="1"
     id="g122"
     transform="translate(-0.140625,-64.703125)">
    <g
       transform="translate(196.6541,115.88933)"
       id="g120">
      <g
         id="g118">
        <path
           d="m 13.328125,-5.34375 h -8.5625 c 0,0.835938 0.265625,1.449219 0.796875,1.84375 0.539062,0.398438 1.125,0.59375 1.75,0.59375 0.664062,0 1.1875,-0.082031 1.5625,-0.25 0.382812,-0.175781 0.828125,-0.53125 1.328125,-1.0625 l 2.9375,1.484375 c -1.230469,2.054687 -3.273437,3.078125 -6.125,3.078125 -1.78125,0 -3.308594,-0.609375 -4.578125,-1.828125 -1.273438,-1.21875 -1.90625,-2.6875 -1.90625,-4.40625 0,-1.71875 0.632812,-3.191406 1.90625,-4.421875 1.269531,-1.226562 2.796875,-1.84375 4.578125,-1.84375 1.875,0 3.394531,0.542969 4.5625,1.625 1.175781,1.085938 1.765625,2.632812 1.765625,4.640625 0,0.273437 -0.0078,0.453125 -0.01563,0.546875 z M 4.875,-7.59375 h 4.5 C 9.28125,-8.207031 9.035156,-8.675781 8.640625,-9 c -0.386719,-0.332031 -0.886719,-0.5 -1.5,-0.5 -0.679687,0 -1.21875,0.179688 -1.625,0.53125 C 5.117188,-8.625 4.90625,-8.164062 4.875,-7.59375 Z m 0,0"
           id="path116" />
      </g>
    </g>
  </g>
  <g
     fill="#ff6f61"
     fill-opacity="1"
     id="g128"
     transform="translate(-0.140625,-64.703125)">
    <g
       transform="translate(209.38158,115.88933)"
       id="g126">
      <g
         id="g124" />
    </g>
  </g>
  <g
     fill="#ff6f61"
     fill-opacity="1"
     id="g136"
     transform="translate(-0.140625,-64.703125)">
    <g
       transform="translate(214.51388,115.88933)"
       id="g134">
      <g
         id="g132">
        <path
           d="m 7.671875,-8.8125 c -0.773437,0 -1.433594,0.289062 -1.984375,0.859375 -0.554688,0.5625 -0.828125,1.242187 -0.828125,2.03125 0,0.824219 0.273437,1.523437 0.828125,2.09375 0.550781,0.5625 1.210938,0.84375 1.984375,0.84375 0.363281,0 0.707031,-0.046875 1.03125,-0.140625 C 9.035156,-3.21875 9.28125,-3.3125 9.4375,-3.40625 L 9.640625,-3.546875 11.03125,-0.71875 C 10.914062,-0.632812 10.757812,-0.535156 10.5625,-0.421875 10.375,-0.304688 9.9375,-0.148438 9.25,0.046875 8.570312,0.242188 7.84375,0.34375 7.0625,0.34375 5.332031,0.34375 3.8125,-0.265625 2.5,-1.484375 1.1875,-2.703125 0.53125,-4.164062 0.53125,-5.875 c 0,-1.71875 0.65625,-3.191406 1.96875,-4.421875 1.3125,-1.238281 2.832031,-1.859375 4.5625,-1.859375 0.78125,0 1.5,0.09375 2.15625,0.28125 0.664062,0.1875 1.140625,0.371094 1.421875,0.546875 l 0.390625,0.28125 -1.390625,2.78125 c -0.5,-0.363281 -1.15625,-0.546875 -1.96875,-0.546875 z m 0,0"
           id="path130" />
      </g>
    </g>
  </g>
  <g
     fill="#ff6f61"
     fill-opacity="1"
     id="g144"
     transform="translate(-0.140625,-64.703125)">
    <g
       transform="translate(224.6636,115.88933)"
       id="g142">
      <g
         id="g140">
        <path
           d="m 1.375,0 v -11.8125 h 4.078125 v 1.703125 H 5.5 c 0.03125,-0.0625 0.078125,-0.132813 0.140625,-0.21875 0.070313,-0.09375 0.222656,-0.253906 0.453125,-0.484375 0.226562,-0.226562 0.472656,-0.4375 0.734375,-0.625 0.269531,-0.1875 0.609375,-0.351562 1.015625,-0.5 0.414062,-0.144531 0.835938,-0.21875 1.265625,-0.21875 0.445313,0 0.882813,0.0625 1.3125,0.1875 0.4375,0.125 0.753906,0.25 0.953125,0.375 l 0.3125,0.171875 -1.703125,3.453125 c -0.5,-0.425781 -1.203125,-0.640625 -2.109375,-0.640625 -0.492188,0 -0.914062,0.109375 -1.265625,0.328125 -0.355469,0.210938 -0.605469,0.46875 -0.75,0.78125 -0.148437,0.304688 -0.25,0.5625 -0.3125,0.78125 -0.0625,0.21875 -0.09375,0.386719 -0.09375,0.5 V 0 Z m 0,0"
           id="path138" />
      </g>
    </g>
  </g>
  <g
     fill="#ff6f61"
     fill-opacity="1"
     id="g152"
     transform="translate(-0.140625,-64.703125)">
    <g
       transform="translate(234.97443,115.88933)"
       id="g150">
      <g
         id="g148">
        <path
           d="m 13.328125,-5.34375 h -8.5625 c 0,0.835938 0.265625,1.449219 0.796875,1.84375 0.539062,0.398438 1.125,0.59375 1.75,0.59375 0.664062,0 1.1875,-0.082031 1.5625,-0.25 0.382812,-0.175781 0.828125,-0.53125 1.328125,-1.0625 l 2.9375,1.484375 c -1.230469,2.054687 -3.273437,3.078125 -6.125,3.078125 -1.78125,0 -3.308594,-0.609375 -4.578125,-1.828125 -1.273438,-1.21875 -1.90625,-2.6875 -1.90625,-4.40625 0,-1.71875 0.632812,-3.191406 1.90625,-4.421875 1.269531,-1.226562 2.796875,-1.84375 4.578125,-1.84375 1.875,0 3.394531,0.542969 4.5625,1.625 1.175781,1.085938 1.765625,2.632812 1.765625,4.640625 0,0.273437 -0.0078,0.453125 -0.01563,0.546875 z M 4.875,-7.59375 h 4.5 C 9.28125,-8.207031 9.035156,-8.675781 8.640625,-9 c -0.386719,-0.332031 -0.886719,-0.5 -1.5,-0.5 -0.679687,0 -1.21875,0.179688 -1.625,0.53125 C 5.117188,-8.625 4.90625,-8.164062 4.875,-7.59375 Z m 0,0"
           id="path146" />
      </g>
    </g>
  </g>
  <g
     fill="#ff6f61"
     fill-opacity="1"
     id="g160"
     transform="translate(-0.140625,-64.703125)">
    <g
       transform="translate(247.70191,115.88933)"
       id="g158">
      <g
         id="g156">
        <path
           d="m 8.625,0 h -2.75 l -6.328125,-11.8125 h 4.6875 l 2.875,6.375 2.828125,-6.375 H 12.75 l 2.828125,6.375 2.875,-6.375 H 23.15625 L 16.828125,0 H 14.0625 l -2.71875,-6.09375 z m 0,0"
           id="path154" />
      </g>
    </g>
  </g>
  <g
     clip-path="url(#29cdf26ef2)"
     id="g164"
     transform="translate(-0.140625,-64.703125)">
    <path
       fill="#00a8bb"
       d="m 40.496094,90.917969 c 0.554687,-0.207031 1.25,-0.34375 1.875,-0.34375 1.941406,0 3.746094,1.039062 4.789062,2.703125 0.207032,0.417968 0.621094,0.625 1.109375,0.695312 0.484375,0 0.902344,-0.207031 1.179688,-0.554687 2.011719,-2.636719 5.339843,-4.234375 8.878906,-4.234375 4.71875,0 8.882813,2.847656 10.339844,6.941406 -1.457031,4.09375 -5.621094,6.9375 -10.339844,6.9375 -3.539063,0 -6.867187,-1.59766 -8.878906,-4.234375 -0.277344,-0.34375 -0.695313,-0.554687 -1.179688,-0.554687 -0.488281,0 -0.902343,0.277343 -1.109375,0.695312 -1.042968,1.73438 -2.777344,2.70703 -4.789062,2.70703 -0.625,0 -1.25,-0.14062 -1.875,-0.34765 1.179687,-1.457036 1.875,-3.261724 1.875,-5.20313 0,-1.945312 -0.695313,-3.75 -1.875,-5.207031 z m 20.609375,5.484375 c 0,0.06641 0.07031,0.136718 0.07031,0.277344 0,0.06641 0.06641,0.136718 0.136719,0.207031 0.07031,0.07031 0.07031,0.140625 0.140625,0.207031 0.277344,0.277344 0.621094,0.417969 0.96875,0.417969 0.347656,0 0.695313,-0.140625 0.972656,-0.417969 0.07031,-0.06641 0.136719,-0.136719 0.136719,-0.207031 0.07031,-0.07031 0.07031,-0.140625 0.140625,-0.207031 0.07031,-0.07031 0.07031,-0.140626 0.07031,-0.277344 0,-0.07031 0,-0.210938 0,-0.277344 0,-0.347656 -0.140626,-0.695312 -0.417969,-0.972656 -0.07031,-0.07031 -0.136719,-0.140625 -0.207031,-0.140625 -0.07031,-0.06641 -0.140626,-0.06641 -0.207032,-0.136719 -0.07031,0 -0.140625,-0.07031 -0.277344,-0.07031 -0.210937,0 -0.347656,0 -0.558593,0 -0.06641,0 -0.136719,0.07031 -0.277344,0.07031 -0.06641,0.07031 -0.136719,0.07031 -0.207031,0.136719 -0.07031,0.07031 -0.136719,0.140625 -0.207032,0.140625 -0.277343,0.277344 -0.417968,0.625 -0.417968,0.972656 0.140625,0.06641 0.140625,0.207031 0.140625,0.277344 z M 70.125,117.63281 c 0,-1.9414 -0.695312,-3.74609 -1.875,-5.20312 0.554688,-0.21094 1.25,-0.34766 1.875,-0.34766 1.941406,0 3.746094,1.03906 4.785156,2.70703 0.210938,0.41407 0.625,0.6211 1.113282,0.69141 0.484374,0 0.902343,-0.13672 1.179687,-0.55469 2.011719,-2.70703 5.339844,-4.23047 8.878906,-4.23047 4.71875,0 8.882813,2.84375 10.339844,6.9375 -1.457031,4.09375 -5.621094,6.9375 -10.339844,6.9375 -3.539062,0 -6.867187,-1.59375 -8.878906,-4.23047 -0.277344,-0.34765 -0.695313,-0.55468 -1.179687,-0.55468 -0.488282,0 -0.902344,0.27734 -1.113282,0.6914 -1.039062,1.73438 -2.773437,2.70703 -4.785156,2.70703 -0.625,0 -1.25,-0.14062 -1.875,-0.34765 1.179688,-1.45703 1.875,-3.26172 1.875,-5.20313 z m 19.148438,0.97266 c 0.277343,0.27734 0.625,0.41406 0.972656,0.41406 0.347656,0 0.695312,-0.13672 0.972656,-0.41406 0.277344,-0.27734 0.414062,-0.625 0.414062,-0.97266 0,-0.34765 -0.136718,-0.69531 -0.414062,-0.97265 -0.07031,-0.0703 -0.140625,-0.13672 -0.210938,-0.13672 -0.06641,0 -0.136718,-0.0703 -0.207031,-0.14063 -0.07031,0 -0.140625,-0.0703 -0.277343,-0.0703 -0.207032,0 -0.347657,0 -0.554688,0 -0.07031,0 -0.207031,0.0703 -0.277344,0.0703 -0.07031,0.0703 -0.140625,0.0703 -0.207031,0.14063 -0.07031,0.0664 -0.140625,0.13672 -0.210937,0.13672 -0.277344,0.27734 -0.414063,0.625 -0.414063,0.97265 0,0.34766 0.136719,0.69532 0.414063,0.97266 z m -46.902344,14.98437 c 1.941406,0 3.746094,1.04297 4.789062,2.70703 0.207032,0.41407 0.621094,0.625 1.109375,0.69532 0.484375,0 0.902344,-0.14063 1.179688,-0.5586 2.011719,-2.70312 5.339843,-4.23047 8.878906,-4.23047 4.71875,0 8.882813,2.84375 10.339844,6.9375 -1.457031,4.09375 -5.621094,6.9375 -10.339844,6.9375 -3.539063,0 -6.867187,-1.59375 -8.878906,-4.23046 -0.277344,-0.34766 -0.695313,-0.55469 -1.179688,-0.55469 -0.488281,0 -0.902343,0.27734 -1.109375,0.6914 -1.042968,1.73438 -2.777344,2.70704 -4.789062,2.70704 -0.625,0 -1.25,-0.13672 -1.875,-0.34766 1.179687,-1.45703 1.875,-3.25781 1.875,-5.20313 0,-1.9414 -0.695313,-3.74609 -1.875,-5.20312 0.625,-0.20703 1.25,-0.34766 1.875,-0.34766 z m 19.148437,6.52344 c 0.277344,0.27734 0.625,0.41406 0.972657,0.41406 0.347656,0 0.695312,-0.13672 0.972656,-0.41406 0.277344,-0.27734 0.414062,-0.625 0.414062,-0.97266 0,-0.34765 -0.136718,-0.6914 -0.414062,-0.97265 -0.07031,-0.0664 -0.140625,-0.13672 -0.210938,-0.13672 -0.06641,0 -0.136718,-0.0703 -0.207031,-0.14063 -0.07031,0 -0.136719,-0.0664 -0.277344,-0.0664 -0.484375,-0.0703 -0.902343,0.0664 -1.25,0.34375 -0.277343,0.28125 -0.414062,0.625 -0.414062,0.97265 0,0.34766 0.136719,0.69532 0.414062,0.97266 z m 0,0"
       fill-opacity="1"
       fill-rule="nonzero"
       id="path162" />
  </g>
  <g
     clip-path="url(#5afb7997cb)"
     id="g168"
     transform="translate(-0.140625,-64.703125)">
    <path
       fill="#00a8bb"
       d="m 76.035156,101.54297 c 0.554688,-0.20703 1.25,-0.34766 1.875,-0.34766 1.941406,0 3.746094,1.03907 4.785156,2.70703 0.210938,0.41407 0.625,0.625 1.109376,0.69141 0.488281,0 0.902343,-0.20703 1.179687,-0.55469 2.011719,-2.63672 5.34375,-4.230466 8.882813,-4.230466 4.71875,0 8.878902,2.843746 10.335942,6.937496 -1.45704,4.09375 -5.617192,6.9375 -10.335942,6.9375 -3.539063,0 -6.871094,-1.59375 -8.882813,-4.23046 -0.277344,-0.34766 -0.691406,-0.55469 -1.179687,-0.55469 -0.484376,0 -0.898438,0.27734 -1.109376,0.6914 -1.039062,1.73438 -2.773437,2.70704 -4.785156,2.70704 -0.625,0 -1.25,-0.14063 -1.875,-0.34766 1.179688,-1.45703 1.875,-3.26172 1.875,-5.20313 0,-1.9414 -0.695312,-3.74609 -1.875,-5.20312 z m 20.605469,5.48047 c 0,0.0703 0.07031,0.14062 0.07031,0.27734 0,0.0703 0.07031,0.14063 0.140624,0.20703 0.06641,0.0703 0.06641,0.14063 0.136719,0.21094 0.277344,0.27734 0.625,0.41406 0.972657,0.41406 0.347656,0 0.695312,-0.13672 0.972656,-0.41406 0.06641,-0.0703 0.136718,-0.14062 0.136718,-0.21094 0.07031,-0.0664 0.07031,-0.13672 0.140626,-0.20703 0.06641,-0.0703 0.06641,-0.13672 0.06641,-0.27734 0,-0.0703 0,-0.20703 0,-0.27735 0,-0.34765 -0.136719,-0.69531 -0.414063,-0.97265 -0.07031,-0.0664 -0.140625,-0.13672 -0.207031,-0.13672 -0.07031,-0.0703 -0.140625,-0.0703 -0.210938,-0.14063 -0.07031,0 -0.136718,-0.0703 -0.277343,-0.0703 -0.207031,0 -0.347657,0 -0.554688,0 -0.07031,0 -0.136719,0.0703 -0.277343,0.0703 -0.07031,0.0703 -0.136719,0.0703 -0.207032,0.14063 -0.07031,0.0703 -0.140625,0.13672 -0.210937,0.13672 -0.277344,0.27734 -0.414063,0.625 -0.414063,0.97265 0.136719,0.0703 0.136719,0.20704 0.136719,0.27735 z m 9.023435,21.23047 c 0,-1.94141 -0.69531,-3.7461 -1.875,-5.20313 0.55469,-0.20703 1.25,-0.34765 1.875,-0.34765 1.94141,0 3.7461,1.04296 4.78516,2.70703 0.20703,0.41797 0.625,0.625 1.10937,0.69531 0.48829,0 0.90235,-0.14063 1.17969,-0.55469 2.01172,-2.70703 5.34375,-4.23437 8.88281,-4.23437 4.71875,0 8.87891,2.84375 10.33594,6.9375 -1.45703,4.09375 -5.61719,6.9375 -10.33594,6.9375 -3.53906,0 -6.87109,-1.59375 -8.88281,-4.23047 -0.27734,-0.34766 -0.6914,-0.55469 -1.17969,-0.55469 -0.48437,0 -0.90234,0.27734 -1.10937,0.69141 -1.03906,1.73828 -2.77344,2.70703 -4.78516,2.70703 -0.625,0 -1.25,-0.13672 -1.875,-0.34766 1.17969,-1.45703 1.875,-3.25781 1.875,-5.20312 z m 19.14844,0.97265 c 0.27734,0.27735 0.625,0.41406 0.97266,0.41406 0.34375,0 0.6914,-0.13671 0.96875,-0.41406 0.27734,-0.27734 0.41797,-0.625 0.41797,-0.97265 0,-0.34766 -0.14063,-0.69141 -0.41797,-0.96875 -0.0703,-0.0703 -0.13672,-0.14063 -0.20703,-0.14063 -0.0703,0 -0.14063,-0.0703 -0.20704,-0.13672 -0.0703,0 -0.14062,-0.0703 -0.27734,-0.0703 -0.21094,0 -0.34766,0 -0.55859,0 -0.0664,0 -0.20703,0.0703 -0.27735,0.0703 -0.0664,0.0664 -0.13672,0.0664 -0.20703,0.13672 -0.0703,0.0703 -0.13672,0.14063 -0.20703,0.14063 -0.27734,0.27734 -0.41797,0.62109 -0.41797,0.96875 0,0.34765 0.14063,0.69531 0.41797,0.97265 z m -46.902344,14.98828 c 1.941406,0 3.746094,1.03907 4.785156,2.70313 0.210938,0.41797 0.625,0.625 1.109376,0.69531 0.488281,0 0.902343,-0.14062 1.179687,-0.55469 2.011719,-2.70703 5.34375,-4.23437 8.882813,-4.23437 4.71875,0 8.878902,2.84765 10.335942,6.9414 -1.45704,4.08985 -5.617192,6.9375 -10.335942,6.9375 -3.539063,0 -6.871094,-1.59765 -8.882813,-4.23437 -0.277344,-0.34766 -0.691406,-0.55469 -1.179687,-0.55469 -0.484376,0 -0.898438,0.27735 -1.109376,0.69531 -1.039062,1.73438 -2.773437,2.70313 -4.785156,2.70313 -0.625,0 -1.25,-0.13672 -1.875,-0.34375 1.179688,-1.45703 1.875,-3.26172 1.875,-5.20313 0,-1.94531 -0.695312,-3.75 -1.875,-5.20703 0.625,-0.20703 1.25,-0.34375 1.875,-0.34375 z m 19.148438,6.51953 c 0.277344,0.27735 0.625,0.41797 0.972656,0.41797 0.34375,0 0.691406,-0.14062 0.96875,-0.41797 0.277344,-0.27734 0.417969,-0.625 0.417969,-0.96875 0,-0.34765 -0.140625,-0.69531 -0.417969,-0.97265 -0.06641,-0.0703 -0.136719,-0.14063 -0.207031,-0.14063 -0.07031,0 -0.136719,-0.0664 -0.207031,-0.13672 -0.07031,0 -0.140626,-0.0703 -0.277344,-0.0703 -0.488282,-0.0703 -0.902344,0.0703 -1.25,0.34766 -0.277344,0.27734 -0.417969,0.625 -0.417969,0.97265 0,0.34375 0.140625,0.69141 0.417969,0.96875 z m 0,0"
       fill-opacity="1"
       fill-rule="nonzero"
       id="path166" />
  </g>
  <path
     fill="#00a8bb"
     d="m 262.40235,73.890625 c 0.36719,0.0625 0.72656,0.16406 1.07031,0.3125 l 14.82813,6.24219 9.63671,-5.21094 c 0.008,-0.11719 0.0195,-0.23438 0.0312,-0.35547 l -10.50781,2.9375 -13.44922,-9.64062 c -0.30859,-0.22266 -0.64062,-0.39063 -0.98047,-0.51172 0.3125,2.08593 -0.125,4.4375 -0.6289,6.22656 z m 0,0"
     fill-opacity="1"
     fill-rule="nonzero"
     id="path170" />
  <path
     fill="#00a8bb"
     d="m 238.77344,74.648435 c 3.55078,-0.11328 17.48047,-0.58984 21.55078,-0.73047 l 0.26172,-0.008 c 0.16406,-0.0312 0.32813,-0.0586 0.4961,-0.0742 0.53515,-1.82422 1.04687,-4.35937 0.60546,-6.41406 -3.55468,-0.67969 -17.89843,-3.42969 -21.48437,-4.12109 -8.21484,-1.58594 -5.48828,4.80468 -3.74609,7.9375 0.66406,1.1914 0.37109,2.48828 -0.0352,3.67578 0.68359,-0.14844 1.46484,-0.23438 2.35156,-0.26563 z m -1.09375,-9.69922 c 0.15625,0.0352 15.66406,3.50782 22.07813,3.82813 l -0.0469,0.95703 c -6.49609,-0.32422 -21.60156,-3.70313 -22.24219,-3.84766 z m 0,0"
     fill-opacity="1"
     fill-rule="nonzero"
     id="path172" />
  <path
     fill="#00a8bb"
     d="m 260.66797,74.867185 c -3.61718,0.125 -18.21484,0.6211 -21.86328,0.74219 -8.36328,0.27344 -4.28515,5.90234 -1.89453,8.57031 2.39453,2.67188 -1.48047,7.48438 2.35156,7.39844 2.80078,-0.0625 15.40235,-5.21484 21.98047,-7.98438 0.17188,-1.04296 0.82422,-5.72656 -0.57422,-8.72656 z m -23.95703,3.8711 -0.004,-0.96094 c 0.16015,0 16.05468,-0.0508 22.3789,-1.16016 l 0.16797,0.94531 c -6.40625,1.125 -21.88672,1.17188 -22.54297,1.17579 z m 0,0"
     fill-opacity="1"
     fill-rule="nonzero"
     id="path174" />
  <path
     fill="#00a8bb"
     d="m 330.19532,68.121095 c -2.15235,0 -5.02344,-1.06641 -5.625,-3.70703 -0.0742,-0.3125 -0.11328,-0.60547 -0.12891,-0.88672 l -6.52344,-0.83984 c -0.5039,1.57421 -0.47656,3.32812 0.21094,4.97265 1.32422,3.18359 4.67188,4.91016 7.92969,4.31641 -0.0703,-0.0625 -0.12892,-0.13282 -0.17578,-0.21485 -0.39453,-0.68359 0.22265,-1.77343 1.375,-2.4375 1.15234,-0.66797 2.40234,-0.65234 2.79687,0.0273 0.0586,0.0977 0.0899,0.20703 0.10547,0.32031 0.46875,-0.52734 0.85547,-1.11719 1.14844,-1.75 -0.19141,0.10547 -0.38281,0.15625 -0.54297,0.17187 -0.18359,0.0156 -0.375,0.0273 -0.57031,0.0273 z m 0,0"
     fill-opacity="1"
     fill-rule="nonzero"
     id="path176" />
  <path
     fill="#00a8bb"
     d="m 324.89454,61.738285 c 0.55078,-0.78125 1.40625,-0.92969 1.53906,-0.94532 0.57422,-0.0937 2.86328,-0.41406 4.30078,0.0469 -1.87891,-2.77734 -5.51172,-3.94141 -8.73047,-2.60156 -1.46875,0.61328 -2.62891,1.65625 -3.39062,2.92578 l 6.14843,0.78906 c 0.0391,-0.0742 0.082,-0.14453 0.13282,-0.21484 z m 0,0"
     fill-opacity="1"
     fill-rule="nonzero"
     id="path178" />
  <path
     fill="#00a8bb"
     d="m 330.94141,62.039065 c -0.3125,-0.54297 -2.50781,-0.59375 -4.36328,-0.29688 h -0.0156 c -0.0351,0.008 -0.5625,0.0859 -0.89062,0.5586 -0.30078,0.43359 -0.35547,1.07031 -0.16797,1.90234 0.58202,2.53516 3.73437,3.07422 5.16797,2.93359 0.0742,-0.004 0.26562,-0.0234 0.45312,-0.39062 0.58204,-1.12891 0.30079,-3.87109 -0.18359,-4.70703 z m 0,0"
     fill-opacity="1"
     fill-rule="nonzero"
     id="path180" />
  <path
     fill="#00a8bb"
     d="m 327.58985,70.136715 c -0.86719,0.5 -1.4336,1.2461 -1.48828,1.875 -0.0156,0.20313 0.0195,0.39453 0.11328,0.5625 0.30469,0.52344 1.11719,0.65235 2,0.37891 0.17187,1 -0.0195,2.57812 -1.0586,3.55078 -1.21484,1.14063 -3.26953,1.10938 -5.94921,-0.0937 -1.14063,-0.51172 -2.37891,-1.23047 -3.70704,-2.14453 -0.25781,-0.17578 -0.51562,-0.35938 -0.78125,-0.55078 0.64454,-0.87891 0.97266,-1.88672 0.8125,-2.92578 -0.35937,-2.3711 -2.50781,-4.95313 -6.1875,-5.48047 -0.19531,0.0977 -0.39843,0.18359 -0.60937,0.25781 l -21.19531,7.50781 c -0.5,0.91016 -0.67969,1.83203 -0.65625,2.73828 l -10.52735,5.69532 -15.2539,-6.42188 c -0.35157,-0.14844 -0.71094,-0.23828 -1.07032,-0.28125 1.21485,3.11719 0.73829,7.28906 0.51954,8.73438 l 14.46484,6.08984 c 0.5,0.21094 1.02734,0.3125 1.55469,0.3125 0.65625,0 1.3125,-0.16016 1.90234,-0.48047 l 10.49609,-5.67578 4.16797,-6.53516 c 0.0586,-0.0977 0.125,-0.1875 0.19532,-0.27734 0.25781,-0.32422 0.57031,-0.59375 0.92577,-0.80078 l 13.13673,-7.62891 c 1.57421,-0.91015 3.59375,-0.375 4.50781,1.19532 0.6875,1.18359 0.58202,2.63671 -0.26953,3.70703 -0.25391,0.32422 -0.56641,0.59375 -0.92578,0.80078 l -5.41797,3.14453 c 1.55078,-0.32422 3.01953,-0.60156 4.3125,-0.86328 1.59765,-0.1836 3.13672,-0.88281 4.2539,-1.8711 0.26953,0.19532 0.53516,0.39063 0.79688,0.57032 3.67577,2.55078 6.30858,3.38672 8.18358,3.38672 1.51173,0 2.52736,-0.54688 3.19923,-1.17579 1.44922,-1.35937 1.75391,-3.60156 1.35156,-5.07812 0.90625,-0.66406 1.35157,-1.58984 1.00391,-2.19531 -0.0586,-0.0937 -0.13281,-0.17578 -0.22266,-0.2461 -0.53125,-0.42187 -1.58984,-0.35156 -2.57812,0.21875 z m 0,0"
     fill-opacity="1"
     fill-rule="nonzero"
     id="path182" />
  <path
     fill="#00a8bb"
     d="m 283.23047,63.660155 c -2.65625,0.94141 0.76563,10.59766 3.42188,9.65625 l 23.83983,-8.44141 c 2.58203,-0.91796 3.97267,-3.72265 3.18361,-6.32031 0.21875,-0.14453 0.43358,-0.29297 0.63281,-0.4414 0.0547,-0.0391 0.10156,-0.0781 0.15233,-0.11719 0.39844,-0.27734 0.71875,-0.55078 0.97267,-0.82031 2.05469,-1.94532 2.62108,-4.01172 2.15233,-5.47657 -0.60547,-1.88281 -2.70702,-2.83203 -5.62108,-2.53125 -2.1875,0.22266 -3.16406,1.02735 -3.78125,2.08985 -2.86719,0.29687 -3.4375,1.55469 -4.08985,3.01172 -0.20703,0.47265 -0.43359,0.97265 -0.76171,1.49218 -0.23048,0.35547 -0.50782,0.71875 -0.86329,1.08594 z m 24.32032,-8.58594 c 0.14843,-0.28125 0.27733,-0.55468 0.39452,-0.82421 0.15234,-0.35547 0.28515,-0.69922 0.41015,-1.02344 0.14844,-0.38672 0.28516,-0.73438 0.42969,-1.05078 3.46484,-0.19532 6.17188,1.1289 6.57422,2.5625 0.16406,0.58593 -0.0547,1.1914 -0.625,1.78515 -0.23437,0.21875 -0.49608,0.4375 -0.77733,0.65625 -0.0156,0.008 -0.0352,0.0195 -0.0508,0.0312 -0.1914,0.13282 -0.40234,0.26563 -0.6289,0.39063 -1.10156,-2.02344 -3.46485,-3.08594 -5.72656,-2.52735 z m 4.51171,-4.95312 c 2.42968,-0.24609 4.15235,0.45312 4.60937,1.87109 0.22267,0.70313 0.125,1.59375 -0.37108,2.55469 -0.008,-0.0234 -0.0117,-0.0469 -0.0156,-0.0664 -0.54688,-1.95312 -3.46875,-3.30078 -6.87892,-3.28515 0.51563,-0.56641 1.28125,-0.9336 2.65625,-1.07422 z m -7.375,5.15625 c 0.10547,-0.21094 0.19531,-0.41797 0.28516,-0.61328 0.55859,-1.25 0.92188,-2.05469 2.71875,-2.3711 -0.0781,0.19141 -0.15234,0.38672 -0.23048,0.58594 -0.20312,0.53125 -0.42187,1.09375 -0.71875,1.67188 -0.16797,0.32812 -0.36718,0.66015 -0.60156,0.99609 l -1.98047,0.69922 c 0.21094,-0.33203 0.37891,-0.65625 0.52735,-0.96875 z m 0,0"
     fill-opacity="1"
     fill-rule="nonzero"
     id="path184" />
  <path
     fill="#00a8bb"
     d="m 332.26563,55.632815 c -0.52734,0 -0.95703,0.43359 -0.95703,0.96094 0,0.53125 0.42969,0.96093 0.95703,0.96093 0.53125,0 0.96094,-0.42968 0.96094,-0.96093 0,-0.52735 -0.42969,-0.96094 -0.96094,-0.96094 z m -0.008,1.5039 c -0.29297,0 -0.53125,-0.23828 -0.53125,-0.53125 0,-0.29296 0.23828,-0.53125 0.53125,-0.53125 0.29297,0 0.53125,0.23829 0.53125,0.53125 0,0.29297 -0.23828,0.53125 -0.53125,0.53125 z m 0,0"
     fill-opacity="1"
     fill-rule="nonzero"
     id="path186" />
  <g
     clip-path="url(#4ade7790dc)"
     id="g190"
     transform="translate(-0.140625,-64.703125)">
    <path
       fill="#00a8bb"
       d="m 333.25,115.32422 c -0.77344,0 -1.40234,0.625 -1.40234,1.39844 0,0.77343 0.6289,1.40234 1.40234,1.40234 0.77344,0 1.39844,-0.62891 1.39844,-1.40234 0,-0.77344 -0.625,-1.39844 -1.39844,-1.39844 z m 0.0156,2.44922 c -0.53125,0 -0.96093,-0.42969 -0.96093,-0.96094 0,-0.53125 0.42968,-0.96094 0.96093,-0.96094 0.52735,0 0.95704,0.42969 0.95704,0.96094 0,0.53125 -0.42969,0.96094 -0.95704,0.96094 z m 0,0"
       fill-opacity="1"
       fill-rule="nonzero"
       id="path188" />
  </g>
  <path
     fill="#00a8bb"
     d="m 328.3711,48.031255 c 0,1.10546 0.89844,2 2,2 1.10547,0 2.0039,-0.89454 2.0039,-2 0,-1.10547 -0.89843,-2 -2.0039,-2 -1.10156,0 -2,0.89453 -2,2 z m 3.41406,0.0586 c 0,0.78516 -0.63281,1.42187 -1.41797,1.42187 -0.78515,0 -1.42187,-0.63671 -1.42187,-1.42187 0,-0.78125 0.63672,-1.41797 1.42187,-1.41797 0.78516,0 1.41797,0.63672 1.41797,1.41797 z m 0,0"
     fill-opacity="1"
     fill-rule="nonzero"
     id="path192" />
  <path
     fill="#00a8bb"
     d="m 332.98829,42.390625 c 0,-1.09766 -0.89063,-1.98828 -1.98829,-1.98828 -1.09765,0 -1.98828,0.89062 -1.98828,1.98828 0,1.09766 0.89063,1.98438 1.98828,1.98438 1.09766,0 1.98829,-0.88672 1.98829,-1.98438 z m -1.96094,1.51953 c -0.75391,0 -1.35938,-0.60937 -1.35938,-1.35937 0,-0.75391 0.60547,-1.36328 1.35938,-1.36328 0.75,0 1.35937,0.60937 1.35937,1.36328 0,0.75 -0.60937,1.35937 -1.35937,1.35937 z m 0,0"
     fill-opacity="1"
     fill-rule="nonzero"
     id="path194" />
  <path
     fill="#00a8bb"
     d="m 327.01172,34.691406 c -1.3125,0 -2.375,1.062499 -2.375,2.374999 0,1.3125 1.0625,2.375 2.375,2.375 1.3125,0 2.375,-1.0625 2.375,-2.375 0,-1.3125 -1.0625,-2.374999 -2.375,-2.374999 z m 0.0547,4.191409 c -0.91406,0 -1.65625,-0.74219 -1.65625,-1.65625 0,-0.91406 0.74219,-1.65235 1.65625,-1.65235 0.91016,0 1.65234,0.73829 1.65234,1.65235 0,0.91406 -0.74218,1.65625 -1.65234,1.65625 z m 0,0"
     fill-opacity="1"
     fill-rule="nonzero"
     id="path196" />
  <path
     fill="#00a8bb"
     d="m 300.46485,37.410155 c 1.01953,0 1.84375,-0.82422 1.84375,-1.84375 0,-1.015624 -0.82422,-1.839842 -1.84375,-1.839842 -1.01563,0 -1.83985,0.824218 -1.83985,1.839842 0,1.01953 0.82422,1.84375 1.83985,1.84375 z m 0.0391,-2.960936 c 0.66406,0 1.19922,0.535156 1.19922,1.199216 0,0.66407 -0.53516,1.19922 -1.19922,1.19922 -0.66406,0 -1.19922,-0.53515 -1.19922,-1.19922 0,-0.66406 0.53516,-1.199216 1.19922,-1.199216 z m 0,0"
     fill-opacity="1"
     fill-rule="nonzero"
     id="path198" />
  <path
     fill="#00a8bb"
     d="m 310.125,36.960935 c 0,1.01563 0.82422,1.83985 1.83985,1.83985 1.01562,0 1.83984,-0.82422 1.83984,-1.83985 0,-1.01562 -0.82422,-1.839841 -1.83984,-1.839841 -1.01563,0 -1.83985,0.824221 -1.83985,1.839841 z m 3.10157,0.0547 c 0,0.65625 -0.53516,1.1875 -1.1875,1.1875 -0.65625,0 -1.1875,-0.53125 -1.1875,-1.1875 0,-0.65625 0.53125,-1.1875 1.1875,-1.1875 0.65234,0 1.1875,0.53125 1.1875,1.1875 z m 0,0"
     fill-opacity="1"
     fill-rule="nonzero"
     id="path200" />
  <g
     clip-path="url(#998dc5daa0)"
     id="g204"
     transform="translate(-0.140625,-64.703125)">
    <path
       fill="#00a8bb"
       d="m 316.5625,94.273438 c 0,-1.207032 -0.98047,-2.1875 -2.1875,-2.1875 -1.21094,0 -2.1875,0.980468 -2.1875,2.1875 0,1.207031 0.97656,2.1875 2.1875,2.1875 1.20703,0 2.1875,-0.980469 2.1875,-2.1875 z m -3.66797,0.0039 c 0,-0.820313 0.66797,-1.488282 1.48828,-1.488282 0.82422,0 1.48828,0.667969 1.48828,1.488282 0,0.824218 -0.66406,1.492187 -1.48828,1.492187 -0.82031,0 -1.48828,-0.667969 -1.48828,-1.492187 z m 0,0"
       fill-opacity="1"
       fill-rule="nonzero"
       id="path202" />
  </g>
  <path
     fill="#00a8bb"
     d="m 317.54297,36.265625 c 0,1.32813 1.07422,2.40234 2.39844,2.40234 1.32813,0 2.40234,-1.07421 2.40234,-2.40234 0,-1.324219 -1.07421,-2.398438 -2.40234,-2.398438 -1.32423,0 -2.39844,1.074219 -2.39844,2.398438 z m 2.4961,-1.5 c 0.88281,0 1.60156,0.71875 1.60156,1.60156 0,0.88672 -0.71875,1.60157 -1.60156,1.60157 -0.88672,0 -1.60157,-0.71485 -1.60157,-1.60157 0,-0.88281 0.71485,-1.60156 1.60157,-1.60156 z m 0,0"
     fill-opacity="1"
     fill-rule="nonzero"
     id="path206" />
  <path
     fill="#00a8bb"
     d="m 305.15235,32.878906 c 0,1.015625 0.82422,1.839844 1.84375,1.839844 1.01562,0 1.83984,-0.824219 1.83984,-1.839844 0,-1.015625 -0.82422,-1.839843 -1.83984,-1.839843 -1.01953,0 -1.84375,0.824218 -1.84375,1.839843 z m 3.10156,0.05469 c 0,0.65625 -0.53125,1.1875 -1.1875,1.1875 -0.65625,0 -1.1875,-0.53125 -1.1875,-1.1875 0,-0.65625 0.53125,-1.1875 1.1875,-1.1875 0.65625,0 1.1875,0.53125 1.1875,1.1875 z m 0,0"
     fill-opacity="1"
     fill-rule="nonzero"
     id="path208" />
  <g
     clip-path="url(#94b1269d5e)"
     id="g212"
     transform="translate(-0.140625,-64.703125)">
    <path
       fill="#00a8bb"
       d="m 298.89062,96.0625 c 1.01954,0 1.84375,-0.824219 1.84375,-1.84375 0,-1.015625 -0.82421,-1.839844 -1.84375,-1.839844 -1.01562,0 -1.83984,0.824219 -1.83984,1.839844 0,1.019531 0.82422,1.84375 1.83984,1.84375 z m 0.0742,-2.972656 c 0.65625,0 1.1875,0.53125 1.1875,1.1875 0,0.65625 -0.53125,1.1875 -1.1875,1.1875 -0.65625,0 -1.1875,-0.53125 -1.1875,-1.1875 0,-0.65625 0.53125,-1.1875 1.1875,-1.1875 z m 0,0"
       fill-opacity="1"
       fill-rule="nonzero"
       id="path210" />
  </g>
  <path
     fill="#00a8bb"
     d="m 293.30079,34.875 c 0.88281,0 1.60156,-0.71875 1.60156,-1.601563 0,-0.882812 -0.71875,-1.601562 -1.60156,-1.601562 -0.88672,0 -1.60157,0.71875 -1.60157,1.601562 0,0.882813 0.71485,1.601563 1.60157,1.601563 z m 0.0625,-2.585937 c 0.57031,0 1.03125,0.464843 1.03125,1.035156 0,0.570312 -0.46094,1.03125 -1.03125,1.03125 -0.57032,0 -1.03125,-0.460938 -1.03125,-1.03125 0,-0.570313 0.46093,-1.035156 1.03125,-1.035156 z m 0,0"
     fill-opacity="1"
     fill-rule="nonzero"
     id="path214" />
  <path
     fill="#00a8bb"
     d="m 286.73829,28.84375 c -0.88672,0 -1.60157,0.71875 -1.60157,1.601563 0,0.886718 0.71485,1.601562 1.60157,1.601562 0.88281,0 1.60156,-0.714844 1.60156,-1.601562 0,-0.882813 -0.71875,-1.601563 -1.60156,-1.601563 z m 0.0625,2.683594 c -0.57032,0 -1.03125,-0.460938 -1.03125,-1.03125 0,-0.570313 0.46093,-1.035157 1.03125,-1.035157 0.57031,0 1.03125,0.464844 1.03125,1.035157 0,0.570312 -0.46094,1.03125 -1.03125,1.03125 z m 0,0"
     fill-opacity="1"
     fill-rule="nonzero"
     id="path216" />
  <path
     fill="#00a8bb"
     d="m 287.10157,91.210935 c -0.76172,1.19531 -0.41016,2.77735 0.78125,3.53906 1.19531,0.75782 2.78125,0.41016 3.53906,-0.78515 l 1.53125,-2.39844 -4.39453,-2.63672 z m 0,0"
     fill-opacity="1"
     fill-rule="nonzero"
     id="path218" />
  <path
     fill="#00a8bb"
     d="m 312.33594,73.609375 c 0.28516,-0.16406 0.52735,-0.375 0.72266,-0.62109 0.63281,-0.80079 0.75,-1.94141 0.20703,-2.87891 -0.71094,-1.22266 -2.27734,-1.63672 -3.5,-0.92969 l -13.13672,7.62891 c -0.35156,0.20312 -0.65234,0.49219 -0.87109,0.83594 l -6.80469,10.66406 4.39453,2.63672 6.39063,-10.01953 z m 0,0"
     fill-opacity="1"
     fill-rule="nonzero"
     id="path220" />
  <g
     clip-path="url(#6ea640b0a3)"
     id="g224"
     transform="translate(-0.140625,-64.703125)">
    <path
       fill="#00a8bb"
       d="m 46.992188,120.49219 c 0.558593,-0.21094 1.25,-0.34766 1.875,-0.34766 1.941406,0 3.746093,1.03906 4.789062,2.70703 0.207031,0.41407 0.621094,0.625 1.109375,0.69141 0.484375,0 0.902344,-0.20703 1.179687,-0.55469 2.011719,-2.63672 5.339844,-4.23047 8.878907,-4.23047 4.71875,0 8.882812,2.84375 10.339843,6.9375 -1.457031,4.09375 -5.621093,6.9375 -10.339843,6.9375 -3.539063,0 -6.867188,-1.59375 -8.878907,-4.23047 -0.277343,-0.34765 -0.695312,-0.55468 -1.179687,-0.55468 -0.488281,0 -0.902344,0.27734 -1.109375,0.6914 -1.042969,1.73438 -2.777344,2.70703 -4.789062,2.70703 -0.625,0 -1.25,-0.14062 -1.875,-0.34765 1.179687,-1.45703 1.875,-3.26172 1.875,-5.20313 0,-1.9414 -0.695313,-3.74609 -1.875,-5.20312 z m 20.609374,5.48047 c 0,0.0703 0.07031,0.14062 0.07031,0.27734 0,0.0703 0.06641,0.14063 0.136719,0.20703 0.07031,0.0703 0.07031,0.14063 0.140625,0.21094 0.277343,0.27734 0.625,0.41406 0.96875,0.41406 0.347656,0 0.695312,-0.13672 0.972656,-0.41406 0.07031,-0.0703 0.140625,-0.14063 0.140625,-0.21094 0.06641,-0.0664 0.06641,-0.13672 0.136719,-0.20703 0.07031,-0.0703 0.07031,-0.13672 0.07031,-0.27734 0,-0.0703 0,-0.20703 0,-0.27735 0,-0.34765 -0.140625,-0.69531 -0.417969,-0.97265 -0.07031,-0.0703 -0.136718,-0.13672 -0.207031,-0.13672 -0.07031,-0.0703 -0.140625,-0.0703 -0.207031,-0.14063 -0.07031,0 -0.140625,-0.0703 -0.277344,-0.0703 -0.210937,0 -0.347656,0 -0.554687,0 -0.07031,0 -0.140625,0.0703 -0.28125,0.0703 -0.06641,0.0703 -0.136719,0.0703 -0.207031,0.14063 -0.07031,0.0664 -0.136719,0.13672 -0.207032,0.13672 -0.277344,0.27734 -0.417968,0.625 -0.417968,0.97265 0.140624,0.0703 0.140624,0.20703 0.140624,0.27735 z m 9.019532,21.23046 c 0,-1.9414 -0.695313,-3.74609 -1.875,-5.20312 0.554687,-0.20703 1.25,-0.34766 1.875,-0.34766 1.941406,0 3.746094,1.04297 4.789062,2.70703 0.207032,0.41797 0.621094,0.625 1.109375,0.69532 0.484375,0 0.902344,-0.14063 1.179688,-0.5586 2.011719,-2.70312 5.339843,-4.23047 8.878906,-4.23047 4.71875,0 8.882815,2.84375 10.339845,6.9375 -1.45703,4.09375 -5.621095,6.9375 -10.339845,6.9375 -3.539063,0 -6.867187,-1.59375 -8.878906,-4.23046 -0.277344,-0.34766 -0.695313,-0.55469 -1.179688,-0.55469 -0.488281,0 -0.902343,0.27734 -1.109375,0.6914 -1.042968,1.73829 -2.777344,2.70704 -4.789062,2.70704 -0.625,0 -1.25,-0.13672 -1.875,-0.34766 1.179687,-1.45703 1.875,-3.25781 1.875,-5.20313 z m 19.148437,0.97266 c 0.277344,0.27734 0.625,0.41406 0.972657,0.41406 0.347656,0 0.695312,-0.13672 0.972656,-0.41406 0.277344,-0.27734 0.414062,-0.625 0.414062,-0.97266 0,-0.34765 -0.136718,-0.6914 -0.414062,-0.96875 -0.07031,-0.0703 -0.140625,-0.14062 -0.210938,-0.14062 -0.06641,0 -0.136718,-0.0703 -0.207031,-0.14063 -0.07031,0 -0.136719,-0.0664 -0.277344,-0.0664 -0.207031,0 -0.347656,0 -0.554687,0 -0.07031,0 -0.207032,0.0664 -0.277344,0.0664 -0.07031,0.0703 -0.140625,0.0703 -0.207031,0.14063 -0.07031,0.0703 -0.140625,0.14062 -0.210938,0.14062 -0.277343,0.27735 -0.414062,0.6211 -0.414062,0.96875 0,0.34766 0.136719,0.69532 0.414062,0.97266 z m -46.902343,14.98828 c 1.941406,0 3.746093,1.03906 4.789062,2.70313 0.207031,0.41797 0.621094,0.625 1.109375,0.69531 0.484375,0 0.902344,-0.14063 1.179687,-0.55469 2.011719,-2.70703 5.339844,-4.23437 8.878907,-4.23437 4.71875,0 8.882812,2.84765 10.339843,6.9375 -1.457031,4.09375 -5.621093,6.9414 -10.339843,6.9414 -3.539063,0 -6.867188,-1.59765 -8.878907,-4.23437 -0.277343,-0.34766 -0.695312,-0.55469 -1.179687,-0.55469 -0.488281,0 -0.902344,0.27734 -1.109375,0.69531 -1.042969,1.73438 -2.777344,2.70313 -4.789062,2.70313 -0.625,0 -1.25,-0.13672 -1.875,-0.34375 1.179687,-1.45703 1.875,-3.26172 1.875,-5.20703 0,-1.94141 -0.695313,-3.7461 -1.875,-5.20313 0.625,-0.20703 1.25,-0.34375 1.875,-0.34375 z m 19.148437,6.51953 c 0.277344,0.27735 0.625,0.41797 0.972656,0.41797 0.347657,0 0.695313,-0.14062 0.972657,-0.41797 0.277343,-0.27734 0.414062,-0.625 0.414062,-0.97265 0,-0.34375 -0.136719,-0.69141 -0.414062,-0.96875 -0.07031,-0.0703 -0.140626,-0.14063 -0.210938,-0.14063 -0.06641,0 -0.136719,-0.0664 -0.207031,-0.13672 -0.07031,0 -0.136719,-0.0703 -0.277344,-0.0703 -0.484375,-0.0703 -0.902344,0.0703 -1.25,0.34766 -0.277344,0.27734 -0.414063,0.625 -0.414063,0.96875 0,0.34765 0.136719,0.69531 0.414063,0.97265 z m 0,0"
       fill-opacity="1"
       fill-rule="nonzero"
       id="path222" />
  </g>
  <g
     clip-path="url(#55dca5529d)"
     id="g228"
     transform="translate(-0.140625,-64.703125)">
    <path
       fill="#ffffff"
       d="m 0.140625,120.05469 c 0.472656,-0.17578 1.0625,-0.29688 1.59375,-0.29688 1.652344,0 3.1875,0.88672 4.070313,2.30469 0.179687,0.35156 0.53125,0.53125 0.945312,0.58984 0.414062,0 0.769531,-0.17968 1.003906,-0.47265 1.710938,-2.24219 4.542969,-3.60156 7.554688,-3.60156 4.011718,0 7.550781,2.42187 8.789062,5.90234 -1.238281,3.48047 -4.777344,5.90234 -8.789062,5.90234 -3.011719,0 -5.84375,-1.35937 -7.554688,-3.60156 -0.234375,-0.29297 -0.589844,-0.47266 -1.003906,-0.47266 -0.414062,0 -0.765625,0.23829 -0.945312,0.58985 -0.882813,1.47656 -2.359376,2.30078 -4.070313,2.30078 -0.53125,0 -1.0625,-0.11719 -1.59375,-0.29297 1.003906,-1.23828 1.59375,-2.77344 1.59375,-4.42578 0,-1.65234 -0.589844,-3.1875 -1.59375,-4.42578 z m 17.527344,4.66015 c 0,0.0586 0.05859,0.1211 0.05859,0.23829 0,0.0586 0.05859,0.11718 0.117188,0.17578 0.05859,0.0586 0.05859,0.11718 0.117188,0.17578 0.238281,0.23828 0.53125,0.35547 0.828124,0.35547 0.292969,0 0.589844,-0.11719 0.824219,-0.35547 0.05859,-0.0586 0.121094,-0.11719 0.121094,-0.17578 0.05859,-0.0586 0.05859,-0.11719 0.117187,-0.17578 0.05859,-0.0586 0.05859,-0.11719 0.05859,-0.23829 0,-0.0586 0,-0.17578 0,-0.23437 0,-0.29688 -0.117187,-0.58984 -0.355468,-0.82813 -0.05859,-0.0586 -0.117188,-0.11718 -0.175782,-0.11718 -0.05859,-0.0586 -0.117187,-0.0586 -0.175781,-0.11719 -0.0625,0 -0.121094,-0.0586 -0.238281,-0.0586 -0.175782,0 -0.292969,0 -0.472656,0 -0.05859,0 -0.117188,0.0586 -0.234376,0.0586 -0.05859,0.0586 -0.117187,0.0586 -0.175781,0.11719 -0.0625,0.0586 -0.121093,0.11718 -0.179687,0.11718 -0.234375,0.23829 -0.351563,0.53125 -0.351563,0.82813 0.117188,0.0586 0.117188,0.17578 0.117188,0.23437 z m 7.671875,18.0586 c 0,-1.65235 -0.589844,-3.1875 -1.59375,-4.42578 0.472656,-0.17579 1.0625,-0.29688 1.59375,-0.29688 1.652344,0 3.183594,0.88672 4.070312,2.30469 0.175782,0.35156 0.53125,0.52734 0.945313,0.58984 0.410156,0 0.765625,-0.12109 1,-0.47265 1.714843,-2.30079 4.546875,-3.60157 7.554687,-3.60157 4.011719,0 7.554688,2.42188 8.792969,5.90235 -1.238281,3.48047 -4.78125,5.89843 -8.792969,5.89843 -3.007812,0 -5.839844,-1.35546 -7.554687,-3.59765 -0.234375,-0.29688 -0.589844,-0.47266 -1,-0.47266 -0.414063,0 -0.769531,0.23828 -0.945313,0.58985 -0.886718,1.47656 -2.359375,2.30078 -4.070312,2.30078 -0.53125,0 -1.0625,-0.11719 -1.59375,-0.29297 1.003906,-1.23828 1.59375,-2.77344 1.59375,-4.42578 z M 41.625,143.59766 c 0.234375,0.23828 0.53125,0.35546 0.824219,0.35546 0.296875,0 0.589843,-0.11718 0.828125,-0.35546 0.234375,-0.23438 0.355468,-0.53125 0.355468,-0.82422 0,-0.29688 -0.121093,-0.58985 -0.355468,-0.82813 -0.05859,-0.0586 -0.117188,-0.11719 -0.175782,-0.11719 -0.0625,0 -0.121093,-0.0586 -0.179687,-0.11718 -0.05859,0 -0.117187,-0.0586 -0.234375,-0.0586 -0.179688,0 -0.296875,0 -0.472656,0 -0.05859,0 -0.175782,0.0586 -0.234375,0.0586 -0.0625,0.0586 -0.121094,0.0586 -0.179688,0.11718 -0.05859,0.0586 -0.117187,0.11719 -0.175781,0.11719 -0.238281,0.23828 -0.355469,0.53125 -0.355469,0.82813 0,0.29297 0.117188,0.58984 0.355469,0.82422 z M 1.734375,156.34375 c 1.652344,0 3.1875,0.88672 4.070313,2.30078 0.179687,0.35547 0.53125,0.53125 0.945312,0.58984 0.414062,0 0.769531,-0.11718 1.003906,-0.46875 1.710938,-2.30468 4.542969,-3.60156 7.554688,-3.60156 4.011718,0 7.550781,2.41797 8.789062,5.90235 -1.238281,3.48046 -4.777344,5.89843 -8.789062,5.89843 -3.011719,0 -5.84375,-1.35547 -7.554688,-3.59765 -0.234375,-0.29688 -0.589844,-0.47266 -1.003906,-0.47266 -0.414062,0 -0.765625,0.23438 -0.945312,0.58984 -0.882813,1.47657 -2.359376,2.30079 -4.070313,2.30079 -0.53125,0 -1.0625,-0.11719 -1.59375,-0.29297 1.003906,-1.24219 1.59375,-2.77344 1.59375,-4.42578 0,-1.65235 -0.589844,-3.1875 -1.59375,-4.42579 0.53125,-0.17968 1.0625,-0.29687 1.59375,-0.29687 z m 16.285156,5.54687 c 0.238281,0.23829 0.53125,0.35547 0.828125,0.35547 0.292969,0 0.589844,-0.11718 0.824219,-0.35547 0.238281,-0.23437 0.355469,-0.53125 0.355469,-0.82421 0,-0.29688 -0.117188,-0.58985 -0.355469,-0.82813 -0.05859,-0.0586 -0.117187,-0.11719 -0.175781,-0.11719 -0.05859,0 -0.117188,-0.0586 -0.175782,-0.11718 -0.05859,0 -0.117187,-0.0586 -0.238281,-0.0586 -0.410156,-0.0586 -0.765625,0.0586 -1.0625,0.29297 -0.234375,0.23828 -0.351562,0.53125 -0.351562,0.82813 0,0.29296 0.117187,0.58984 0.351562,0.82421 z m 0,0"
       fill-opacity="1"
       fill-rule="nonzero"
       id="path226" />
  </g>
  <g
     clip-path="url(#35730377f7)"
     id="g232"
     transform="translate(-0.140625,-64.703125)">
    <path
       fill="#ffffff"
       d="m 350.44531,114.40625 c 0.46875,-0.17969 1.0586,-0.29687 1.58985,-0.29687 1.65234,0 3.1875,0.88671 4.07421,2.30078 0.17579,0.35547 0.53125,0.53125 0.94141,0.58984 0.41406,0 0.76953,-0.17578 1.00391,-0.46875 1.71093,-2.24219 4.54297,-3.60156 7.55468,-3.60156 4.01172,0 7.55079,2.41797 8.79297,5.90234 -1.24218,3.48047 -4.78125,5.89844 -8.79297,5.89844 -3.01171,0 -5.84375,-1.35547 -7.55468,-3.59766 -0.23438,-0.29687 -0.58985,-0.47265 -1.00391,-0.47265 -0.41016,0 -0.76562,0.23437 -0.94141,0.58984 -0.88671,1.47656 -2.35937,2.30078 -4.07421,2.30078 -0.53125,0 -1.0586,-0.11719 -1.58985,-0.29297 1,-1.24218 1.58985,-2.77343 1.58985,-4.42578 0,-1.65234 -0.58985,-3.1875 -1.58985,-4.42578 z m 17.52344,4.66016 c 0,0.0586 0.0586,0.11718 0.0586,0.23828 0,0.0586 0.0586,0.11719 0.11719,0.17578 0.0625,0.0586 0.0625,0.11719 0.12109,0.17578 0.23438,0.23828 0.53125,0.35547 0.82422,0.35547 0.29688,0 0.58985,-0.11719 0.82813,-0.35547 0.0586,-0.0586 0.11719,-0.11719 0.11719,-0.17578 0.0586,-0.0586 0.0586,-0.11719 0.11718,-0.17578 0.0586,-0.0625 0.0586,-0.1211 0.0586,-0.23828 0,-0.0586 0,-0.17578 0,-0.23438 0,-0.29687 -0.11719,-0.58984 -0.35547,-0.82812 -0.0586,-0.0586 -0.11719,-0.11719 -0.17578,-0.11719 -0.0586,-0.0586 -0.11719,-0.0586 -0.17578,-0.11719 -0.0586,0 -0.11719,-0.0586 -0.23829,-0.0586 -0.17578,0 -0.29296,0 -0.46875,0 -0.0625,0 -0.12109,0.0586 -0.23828,0.0586 -0.0586,0.0586 -0.11718,0.0586 -0.17578,0.11719 -0.0586,0.0586 -0.11719,0.11719 -0.17578,0.11719 -0.23828,0.23828 -0.35547,0.53125 -0.35547,0.82812 0.11719,0.0586 0.11719,0.17578 0.11719,0.23438 z m 7.67187,18.05859 c 0,-1.65234 -0.58984,-3.1875 -1.59375,-4.42578 0.47266,-0.17969 1.0625,-0.29688 1.59375,-0.29688 1.65235,0 3.1875,0.88672 4.07032,2.30078 0.17968,0.35547 0.53125,0.53125 0.94531,0.58985 0.41406,0 0.76562,-0.11719 1.00391,-0.47266 1.71093,-2.30078 4.54296,-3.59765 7.55078,-3.59765 4.01172,0 7.55468,2.41796 8.79297,5.90234 -1.23829,3.48047 -4.78125,5.89844 -8.79297,5.89844 -3.00782,0 -5.83985,-1.35547 -7.55078,-3.59766 -0.23829,-0.29687 -0.58985,-0.47266 -1.00391,-0.47266 -0.41406,0 -0.76563,0.23438 -0.94531,0.58985 -0.88282,1.47656 -2.35938,2.30078 -4.07032,2.30078 -0.53125,0 -1.0625,-0.11719 -1.59375,-0.29297 1.00391,-1.24219 1.59375,-2.77344 1.59375,-4.42578 z m 16.28516,0.82422 c 0.23828,0.23437 0.53125,0.35547 0.82813,0.35547 0.29296,0 0.58984,-0.1211 0.82421,-0.35547 0.23829,-0.23438 0.35547,-0.53125 0.35547,-0.82422 0,-0.29688 -0.11718,-0.58984 -0.35547,-0.82813 -0.0586,-0.0586 -0.11718,-0.11718 -0.17578,-0.11718 -0.0586,0 -0.11718,-0.0586 -0.17968,-0.11719 -0.0586,0 -0.11719,-0.0586 -0.23438,-0.0586 -0.17578,0 -0.29297,0 -0.47266,0 -0.0586,0 -0.17578,0.0586 -0.23437,0.0586 -0.0586,0.0586 -0.11719,0.0586 -0.17969,0.11719 -0.0586,0.0586 -0.11719,0.11718 -0.17578,0.11718 -0.23437,0.23829 -0.35156,0.53125 -0.35156,0.82813 0,0.29297 0.11719,0.58984 0.35156,0.82422 z m -39.89062,12.74609 c 1.65234,0 3.1875,0.88672 4.07421,2.30078 0.17579,0.35547 0.53125,0.53125 0.94141,0.58985 0.41406,0 0.76953,-0.11719 1.00391,-0.47266 1.71093,-2.30078 4.54297,-3.59766 7.55468,-3.59766 4.01172,0 7.55079,2.41797 8.79297,5.89844 -1.24218,3.48438 -4.78125,5.90235 -8.79297,5.90235 -3.01171,0 -5.84375,-1.35547 -7.55468,-3.59766 -0.23438,-0.29688 -0.58985,-0.47266 -1.00391,-0.47266 -0.41016,0 -0.76562,0.23438 -0.94141,0.58985 -0.88671,1.47265 -2.35937,2.30078 -4.07421,2.30078 -0.53125,0 -1.0586,-0.11719 -1.58985,-0.29688 1,-1.23828 1.58985,-2.77343 1.58985,-4.42578 0,-1.64844 -0.58985,-3.18359 -1.58985,-4.42187 0.53125,-0.17969 1.0586,-0.29688 1.58985,-0.29688 z m 16.28906,5.54688 c 0.23437,0.23437 0.53125,0.35547 0.82422,0.35547 0.29687,0 0.58984,-0.1211 0.82812,-0.35547 0.23438,-0.23438 0.35156,-0.53125 0.35156,-0.82813 0,-0.29297 -0.11718,-0.58984 -0.35156,-0.82422 -0.0586,-0.0586 -0.12109,-0.11718 -0.17969,-0.11718 -0.0586,0 -0.11718,-0.0586 -0.17578,-0.11719 -0.0586,0 -0.11718,-0.0625 -0.23437,-0.0625 -0.41406,-0.0586 -0.76953,0.0625 -1.0625,0.29687 -0.23828,0.23438 -0.35547,0.53125 -0.35547,0.82422 0,0.29688 0.11719,0.59375 0.35547,0.82813 z m 0,0"
       fill-opacity="1"
       fill-rule="nonzero"
       id="path230" />
  </g>
</svg>
