<?xml version="1.0" encoding="UTF-8" standalone="no"?>
<svg
   width="499.8125"
   zoomAndPan="magnify"
   viewBox="0 0 374.85938 121.83181"
   height="162.44241"
   preserveAspectRatio="xMidYMid meet"
   version="1.0"
   id="svg191"
   sodipodi:docname="reefsources_banner2.svg"
   inkscape:version="1.1.1 (3bf5ae0d25, 2021-09-20)"
   xmlns:inkscape="http://www.inkscape.org/namespaces/inkscape"
   xmlns:sodipodi="http://sodipodi.sourceforge.net/DTD/sodipodi-0.dtd"
   xmlns="http://www.w3.org/2000/svg"
   xmlns:svg="http://www.w3.org/2000/svg">
  <sodipodi:namedview
     id="namedview193"
     pagecolor="#ffffff"
     bordercolor="#666666"
     borderopacity="1.0"
     inkscape:pageshadow="2"
     inkscape:pageopacity="0.0"
     inkscape:pagecheckerboard="0"
     showgrid="false"
     inkscape:zoom="4.7404439"
     inkscape:cx="199.8758"
     inkscape:cy="103.68227"
     inkscape:window-width="2400"
     inkscape:window-height="1271"
     inkscape:window-x="2391"
     inkscape:window-y="-9"
     inkscape:window-maximized="1"
     inkscape:current-layer="svg191" />
  <defs
     id="defs43">
    <g
       id="g2" />
    <clipPath
       id="07efe1fedc">
      <path
         d="m 0,118.57813 h 24.75 v 12.74999 H 0 Z m 0,0"
         clip-rule="nonzero"
         id="path4" />
    </clipPath>
    <clipPath
       id="01268ca0f0">
      <path
         d="M 350.30078,112.92969 H 375 v 12.75 h -24.69922 z m 0,0"
         clip-rule="nonzero"
         id="path7" />
    </clipPath>
    <clipPath
       id="f152c2e066">
      <path
         d="m 135.49219,92 h 84.77343 v 14.77734 h -84.77343 z m 0,0"
         clip-rule="nonzero"
         id="path10" />
    </clipPath>
    <clipPath
       id="7a100565c6">
      <path
         d="m 148.51562,99 c -16.08203,-4.539062 -20.55859,13.93359 6.1836,5.53906 4.28125,2.375 9.23047,2.97657 15.375,0.4375 6.625,2.41407 12.07031,2.0586 16.65625,-0.30078 5.04297,1.77344 10.14844,2.50781 15.43359,0.20313 3.03125,2.09375 6.10938,1.67187 9.21485,-0.16016 10.14453,2.125 10.85546,-2.55469 5.87109,-2.75781 -2.19922,-3.390628 -3.64063,-3.49219 -6.91406,-2.320315 -0.76563,-3.511719 -2.57032,-4.625 -5.38282,-3.410156 0.87891,-5.464844 -1.42578,-7.058594 -5.95703,-5.941407 0.91797,-13.140624 -13.52343,-14.882812 -20.41015,-6.390624 -9.17188,-3.613282 -15.38282,0.02344 -14.08985,6.933593 -2.03125,0.0078 -3.67968,0.496094 -4.26953,2.296875 C 155.01562,92.890625 150.11719,94.496094 148.51562,99 Z m 0,0"
         clip-rule="evenodd"
         id="path13" />
    </clipPath>
    <clipPath
       id="7d9e9bd16f">
      <path
         d="m 185.375,105 h 114.63672 v 20.07813 H 185.375 Z m 0,0"
         clip-rule="nonzero"
         id="path16" />
    </clipPath>
    <clipPath
       id="46ac378cfe">
      <path
         d="m 202.99219,114.55859 c -21.75,-6.13671 -27.80469,18.83985 8.35937,7.49219 5.78516,3.21485 12.48438,4.02735 20.78906,0.59375 8.96094,3.26172 16.32422,2.78516 22.52735,-0.41015 6.82031,2.39843 13.72265,3.39453 20.87109,0.27343 4.09766,2.83594 8.26172,2.26563 12.45703,-0.21484 13.71875,2.875 14.67969,-3.45703 7.94141,-3.73047 -2.97656,-4.58203 -4.92578,-4.72266 -9.35156,-3.13672 -1.03516,-4.75 -3.47657,-6.25 -7.27735,-4.61328 1.19141,-7.39062 -1.92968,-9.54297 -8.05859,-8.03125 1.24609,-17.765625 -18.28906,-20.125 -27.59766,-8.644531 -12.40234,-4.882813 -20.80078,0.03125 -19.05468,9.378911 -2.7461,0.0117 -4.97657,0.67187 -5.77344,3.10546 -7.04688,-0.32031 -13.67188,1.85157 -15.83203,7.9375 z m 0,0"
         clip-rule="evenodd"
         id="path19" />
    </clipPath>
    <clipPath
       id="32ed813f35">
      <path
         d="m 212.37109,80 h 134.70703 v 23.15625 H 212.37109 Z m 0,0"
         clip-rule="nonzero"
         id="path22" />
    </clipPath>
    <clipPath
       id="065eb50aea">
      <path
         d="m 233.07422,90.792969 c -25.5586,-7.210938 -32.67188,22.140621 9.82031,8.804687 6.80078,3.777344 14.67188,4.734374 24.42969,0.699224 10.53125,3.82812 19.18359,3.26953 26.46875,-0.48438 8.01562,2.82031 16.1289,3.98828 24.52734,0.32422 4.81641,3.33203 9.70703,2.66016 14.64063,-0.253908 16.12109,3.378908 17.25,-4.0625 9.32812,-4.382812 -3.49609,-5.386719 -5.78515,-5.550781 -10.98828,-3.683594 -1.21484,-5.582031 -4.08203,-7.347656 -8.54687,-5.421875 1.39453,-8.683593 -2.26954,-11.214843 -9.47266,-9.441406 1.46484,-20.875 -21.48828,-23.644531 -32.42969,-10.152344 -14.57422,-5.742187 -24.4414,0.03516 -22.38672,11.015625 -3.23047,0.01563 -5.85156,0.789063 -6.78515,3.652344 -8.28516,-0.378906 -16.06641,2.175781 -18.60547,9.324219 z m 0,0"
         clip-rule="evenodd"
         id="path25" />
    </clipPath>
    <clipPath
       id="dc7be6506e">
      <path
         d="m 139.41016,158.16797 h 100.5 v 9 h -100.5 z m 0,0"
         clip-rule="nonzero"
         id="path28" />
    </clipPath>
    <clipPath
       id="cce9954d27">
      <path
         d="m 238.93359,158.16797 h 100.5 v 9 h -100.5 z m 0,0"
         clip-rule="nonzero"
         id="path31" />
    </clipPath>
    <clipPath
       id="8933e911a3">
      <path
         d="m 209.25781,51.800781 h 75 V 86 h -75 z m 0,0"
         clip-rule="nonzero"
         id="path34" />
    </clipPath>
    <clipPath
       id="642ba54ab4">
      <path
         d="M 44.921875,61.957031 H 155 V 174 H 44.921875 Z m 0,0"
         clip-rule="nonzero"
         id="path37" />
    </clipPath>
    <clipPath
       id="b9d155804f">
      <path
         d="M 39.058594,158.16797 H 139.55859 v 9 H 39.058594 Z m 0,0"
         clip-rule="nonzero"
         id="path40" />
    </clipPath>
  </defs>
  <g
     clip-path="url(#07efe1fedc)"
     id="g51"
     transform="translate(-0.140625,-51.800781)">
    <path
       fill="#ffffff"
       d="m 0.140625,120.05469 c 0.472656,-0.17578 1.0625,-0.29688 1.59375,-0.29688 1.652344,0 3.1875,0.88672 4.070313,2.30469 0.179687,0.35156 0.53125,0.53125 0.945312,0.58984 0.414062,0 0.769531,-0.17968 1.003906,-0.47265 1.710938,-2.24219 4.542969,-3.60156 7.554688,-3.60156 4.011718,0 7.550781,2.42187 8.789062,5.90234 -1.238281,3.48047 -4.777344,5.90234 -8.789062,5.90234 -3.011719,0 -5.84375,-1.35937 -7.554688,-3.60156 -0.234375,-0.29297 -0.589844,-0.47266 -1.003906,-0.47266 -0.414062,0 -0.765625,0.23829 -0.945312,0.58985 -0.882813,1.47656 -2.359376,2.30078 -4.070313,2.30078 -0.53125,0 -1.0625,-0.11719 -1.59375,-0.29297 1.003906,-1.23828 1.59375,-2.77344 1.59375,-4.42578 0,-1.65234 -0.589844,-3.1875 -1.59375,-4.42578 z m 17.527344,4.66015 c 0,0.0586 0.05859,0.1211 0.05859,0.23829 0,0.0586 0.05859,0.11718 0.117188,0.17578 0.05859,0.0586 0.05859,0.11718 0.117188,0.17578 0.238281,0.23828 0.53125,0.35547 0.828124,0.35547 0.292969,0 0.589844,-0.11719 0.824219,-0.35547 0.05859,-0.0586 0.121094,-0.11719 0.121094,-0.17578 0.05859,-0.0586 0.05859,-0.11719 0.117187,-0.17578 0.05859,-0.0586 0.05859,-0.11719 0.05859,-0.23829 0,-0.0586 0,-0.17578 0,-0.23437 0,-0.29688 -0.117187,-0.58984 -0.355468,-0.82813 -0.05859,-0.0586 -0.117188,-0.11718 -0.175782,-0.11718 -0.05859,-0.0586 -0.117187,-0.0586 -0.175781,-0.11719 -0.0625,0 -0.121094,-0.0586 -0.238281,-0.0586 -0.175782,0 -0.292969,0 -0.472656,0 -0.05859,0 -0.117188,0.0586 -0.234376,0.0586 -0.05859,0.0586 -0.117187,0.0586 -0.175781,0.11719 -0.0625,0.0586 -0.121093,0.11718 -0.179687,0.11718 -0.234375,0.23829 -0.351563,0.53125 -0.351563,0.82813 0.117188,0.0586 0.117188,0.17578 0.117188,0.23437 z m 7.671875,18.0586 c 0,-1.65235 -0.589844,-3.1875 -1.59375,-4.42578 0.472656,-0.17579 1.0625,-0.29688 1.59375,-0.29688 1.652344,0 3.183594,0.88672 4.070312,2.30469 0.175782,0.35156 0.53125,0.52734 0.945313,0.58984 0.410156,0 0.765625,-0.12109 1,-0.47265 1.714843,-2.30079 4.546875,-3.60157 7.554687,-3.60157 4.011719,0 7.554688,2.42188 8.792969,5.90235 -1.238281,3.48047 -4.78125,5.89843 -8.792969,5.89843 -3.007812,0 -5.839844,-1.35546 -7.554687,-3.59765 -0.234375,-0.29688 -0.589844,-0.47266 -1,-0.47266 -0.414063,0 -0.769531,0.23828 -0.945313,0.58985 -0.886718,1.47656 -2.359375,2.30078 -4.070312,2.30078 -0.53125,0 -1.0625,-0.11719 -1.59375,-0.29297 1.003906,-1.23828 1.59375,-2.77344 1.59375,-4.42578 z M 41.625,143.59766 c 0.234375,0.23828 0.53125,0.35546 0.824219,0.35546 0.296875,0 0.589843,-0.11718 0.828125,-0.35546 0.234375,-0.23438 0.355468,-0.53125 0.355468,-0.82422 0,-0.29688 -0.121093,-0.58985 -0.355468,-0.82813 -0.05859,-0.0586 -0.117188,-0.11719 -0.175782,-0.11719 -0.0625,0 -0.121093,-0.0586 -0.179687,-0.11718 -0.05859,0 -0.117187,-0.0586 -0.234375,-0.0586 -0.179688,0 -0.296875,0 -0.472656,0 -0.05859,0 -0.175782,0.0586 -0.234375,0.0586 -0.0625,0.0586 -0.121094,0.0586 -0.179688,0.11718 -0.05859,0.0586 -0.117187,0.11719 -0.175781,0.11719 -0.238281,0.23828 -0.355469,0.53125 -0.355469,0.82813 0,0.29297 0.117188,0.58984 0.355469,0.82422 z M 1.734375,156.34375 c 1.652344,0 3.1875,0.88672 4.070313,2.30078 0.179687,0.35547 0.53125,0.53125 0.945312,0.58984 0.414062,0 0.769531,-0.11718 1.003906,-0.46875 1.710938,-2.30468 4.542969,-3.60156 7.554688,-3.60156 4.011718,0 7.550781,2.41797 8.789062,5.90235 -1.238281,3.48046 -4.777344,5.89843 -8.789062,5.89843 -3.011719,0 -5.84375,-1.35547 -7.554688,-3.59765 -0.234375,-0.29688 -0.589844,-0.47266 -1.003906,-0.47266 -0.414062,0 -0.765625,0.23438 -0.945312,0.58984 -0.882813,1.47657 -2.359376,2.30079 -4.070313,2.30079 -0.53125,0 -1.0625,-0.11719 -1.59375,-0.29297 1.003906,-1.24219 1.59375,-2.77344 1.59375,-4.42578 0,-1.65235 -0.589844,-3.1875 -1.59375,-4.42579 0.53125,-0.17968 1.0625,-0.29687 1.59375,-0.29687 z m 16.285156,5.54687 c 0.238281,0.23829 0.53125,0.35547 0.828125,0.35547 0.292969,0 0.589844,-0.11718 0.824219,-0.35547 0.238281,-0.23437 0.355469,-0.53125 0.355469,-0.82421 0,-0.29688 -0.117188,-0.58985 -0.355469,-0.82813 -0.05859,-0.0586 -0.117187,-0.11719 -0.175781,-0.11719 -0.05859,0 -0.117188,-0.0586 -0.175782,-0.11718 -0.05859,0 -0.117187,-0.0586 -0.238281,-0.0586 -0.410156,-0.0586 -0.765625,0.0586 -1.0625,0.29297 -0.234375,0.23828 -0.351562,0.53125 -0.351562,0.82813 0,0.29296 0.117187,0.58984 0.351562,0.82421 z m 0,0"
       fill-opacity="1"
       fill-rule="nonzero"
       id="path49" />
  </g>
  <g
     clip-path="url(#01268ca0f0)"
     id="g55"
     transform="translate(-0.140625,-51.800781)">
    <path
       fill="#ffffff"
       d="m 350.44531,114.40625 c 0.46875,-0.17969 1.0586,-0.29687 1.58985,-0.29687 1.65234,0 3.1875,0.88671 4.07421,2.30078 0.17579,0.35547 0.53125,0.53125 0.94141,0.58984 0.41406,0 0.76953,-0.17578 1.00391,-0.46875 1.71093,-2.24219 4.54297,-3.60156 7.55468,-3.60156 4.01172,0 7.55079,2.41797 8.79297,5.90234 -1.24218,3.48047 -4.78125,5.89844 -8.79297,5.89844 -3.01171,0 -5.84375,-1.35547 -7.55468,-3.59766 -0.23438,-0.29687 -0.58985,-0.47265 -1.00391,-0.47265 -0.41016,0 -0.76562,0.23437 -0.94141,0.58984 -0.88671,1.47656 -2.35937,2.30078 -4.07421,2.30078 -0.53125,0 -1.0586,-0.11719 -1.58985,-0.29297 1,-1.24218 1.58985,-2.77343 1.58985,-4.42578 0,-1.65234 -0.58985,-3.1875 -1.58985,-4.42578 z m 17.52344,4.66016 c 0,0.0586 0.0586,0.11718 0.0586,0.23828 0,0.0586 0.0586,0.11719 0.11719,0.17578 0.0625,0.0586 0.0625,0.11719 0.12109,0.17578 0.23438,0.23828 0.53125,0.35547 0.82422,0.35547 0.29688,0 0.58985,-0.11719 0.82813,-0.35547 0.0586,-0.0586 0.11719,-0.11719 0.11719,-0.17578 0.0586,-0.0586 0.0586,-0.11719 0.11718,-0.17578 0.0586,-0.0625 0.0586,-0.1211 0.0586,-0.23828 0,-0.0586 0,-0.17578 0,-0.23438 0,-0.29687 -0.11719,-0.58984 -0.35547,-0.82812 -0.0586,-0.0586 -0.11719,-0.11719 -0.17578,-0.11719 -0.0586,-0.0586 -0.11719,-0.0586 -0.17578,-0.11719 -0.0586,0 -0.11719,-0.0586 -0.23829,-0.0586 -0.17578,0 -0.29296,0 -0.46875,0 -0.0625,0 -0.12109,0.0586 -0.23828,0.0586 -0.0586,0.0586 -0.11718,0.0586 -0.17578,0.11719 -0.0586,0.0586 -0.11719,0.11719 -0.17578,0.11719 -0.23828,0.23828 -0.35547,0.53125 -0.35547,0.82812 0.11719,0.0586 0.11719,0.17578 0.11719,0.23438 z m 7.67187,18.05859 c 0,-1.65234 -0.58984,-3.1875 -1.59375,-4.42578 0.47266,-0.17969 1.0625,-0.29688 1.59375,-0.29688 1.65235,0 3.1875,0.88672 4.07032,2.30078 0.17968,0.35547 0.53125,0.53125 0.94531,0.58985 0.41406,0 0.76562,-0.11719 1.00391,-0.47266 1.71093,-2.30078 4.54296,-3.59765 7.55078,-3.59765 4.01172,0 7.55468,2.41796 8.79297,5.90234 -1.23829,3.48047 -4.78125,5.89844 -8.79297,5.89844 -3.00782,0 -5.83985,-1.35547 -7.55078,-3.59766 -0.23829,-0.29687 -0.58985,-0.47266 -1.00391,-0.47266 -0.41406,0 -0.76563,0.23438 -0.94531,0.58985 -0.88282,1.47656 -2.35938,2.30078 -4.07032,2.30078 -0.53125,0 -1.0625,-0.11719 -1.59375,-0.29297 1.00391,-1.24219 1.59375,-2.77344 1.59375,-4.42578 z m 16.28516,0.82422 c 0.23828,0.23437 0.53125,0.35547 0.82813,0.35547 0.29296,0 0.58984,-0.1211 0.82421,-0.35547 0.23829,-0.23438 0.35547,-0.53125 0.35547,-0.82422 0,-0.29688 -0.11718,-0.58984 -0.35547,-0.82813 -0.0586,-0.0586 -0.11718,-0.11718 -0.17578,-0.11718 -0.0586,0 -0.11718,-0.0586 -0.17968,-0.11719 -0.0586,0 -0.11719,-0.0586 -0.23438,-0.0586 -0.17578,0 -0.29297,0 -0.47266,0 -0.0586,0 -0.17578,0.0586 -0.23437,0.0586 -0.0586,0.0586 -0.11719,0.0586 -0.17969,0.11719 -0.0586,0.0586 -0.11719,0.11718 -0.17578,0.11718 -0.23437,0.23829 -0.35156,0.53125 -0.35156,0.82813 0,0.29297 0.11719,0.58984 0.35156,0.82422 z m -39.89062,12.74609 c 1.65234,0 3.1875,0.88672 4.07421,2.30078 0.17579,0.35547 0.53125,0.53125 0.94141,0.58985 0.41406,0 0.76953,-0.11719 1.00391,-0.47266 1.71093,-2.30078 4.54297,-3.59766 7.55468,-3.59766 4.01172,0 7.55079,2.41797 8.79297,5.89844 -1.24218,3.48438 -4.78125,5.90235 -8.79297,5.90235 -3.01171,0 -5.84375,-1.35547 -7.55468,-3.59766 -0.23438,-0.29688 -0.58985,-0.47266 -1.00391,-0.47266 -0.41016,0 -0.76562,0.23438 -0.94141,0.58985 -0.88671,1.47265 -2.35937,2.30078 -4.07421,2.30078 -0.53125,0 -1.0586,-0.11719 -1.58985,-0.29688 1,-1.23828 1.58985,-2.77343 1.58985,-4.42578 0,-1.64844 -0.58985,-3.18359 -1.58985,-4.42187 0.53125,-0.17969 1.0586,-0.29688 1.58985,-0.29688 z m 16.28906,5.54688 c 0.23437,0.23437 0.53125,0.35547 0.82422,0.35547 0.29687,0 0.58984,-0.1211 0.82812,-0.35547 0.23438,-0.23438 0.35156,-0.53125 0.35156,-0.82813 0,-0.29297 -0.11718,-0.58984 -0.35156,-0.82422 -0.0586,-0.0586 -0.12109,-0.11718 -0.17969,-0.11718 -0.0586,0 -0.11718,-0.0586 -0.17578,-0.11719 -0.0586,0 -0.11718,-0.0625 -0.23437,-0.0625 -0.41406,-0.0586 -0.76953,0.0625 -1.0625,0.29687 -0.23828,0.23438 -0.35547,0.53125 -0.35547,0.82422 0,0.29688 0.11719,0.59375 0.35547,0.82813 z m 0,0"
       fill-opacity="1"
       fill-rule="nonzero"
       id="path53" />
  </g>
  <path
     fill="#ffffff"
     d="m 148.375,47.199219 c -16.08203,-4.539062 -20.55859,13.93359 6.1836,5.53906 4.28125,2.375 9.23047,2.97657 15.375,0.4375 6.625,2.41407 12.07031,2.0586 16.65625,-0.30078 5.04297,1.77344 10.14844,2.50781 15.43359,0.20313 3.03125,2.09375 6.10938,1.67187 9.21485,-0.16016 10.14453,2.125 10.85546,-2.55469 5.87109,-2.75781 -2.19922,-3.390628 -3.64063,-3.49219 -6.91406,-2.320315 -0.76563,-3.511719 -2.57032,-4.625 -5.38282,-3.410156 0.87891,-5.464844 -1.42578,-7.058594 -5.95703,-5.941407 0.91797,-13.140624 -13.52343,-14.882812 -20.41015,-6.390624 -9.17188,-3.613282 -15.38282,0.02344 -14.08985,6.933593 -2.03125,0.0078 -3.67968,0.496094 -4.26953,2.296875 -5.21094,-0.238281 -10.10937,1.367188 -11.71094,5.871094 z m 0,0"
     fill-opacity="1"
     fill-rule="evenodd"
     id="path57" />
  <g
     clip-path="url(#f152c2e066)"
     id="g63"
     transform="translate(-0.140625,-51.800781)">
    <g
       clip-path="url(#7a100565c6)"
       id="g61">
      <path
         fill="#f0f1f1"
         d="m 138.02734,99.117188 c 0.19141,-0.335938 0.0195,0.792968 0.17578,1.148442 1.33985,3.0664 4.21875,3.8164 7.32422,3.29296 2.67188,-0.45312 5.62891,-2.04687 8.35938,-1.88671 2.94922,0.17578 4.80078,2.5039 8.09765,1.875 2.40625,-0.45704 7.53516,-4.824224 7.5625,-4.824224 2.31641,-0.160156 5.71875,3.554684 10.55079,2.367184 3.80468,-0.93359 3.93359,-4.953121 2.04296,-7.660152 -0.082,-0.109376 -0.65234,-0.757813 -0.45703,-0.914063 0.63282,-0.507813 3.89063,2.433594 4.95703,2.433594 1.77735,0 3.56641,-0.6875 5.34766,-0.808594 0.0508,-0.0039 0.78906,-0.05859 0.76563,0.05859 -0.0156,0.09766 -0.35547,0.183593 -0.42579,0.207031 -2.34375,0.863281 -9.41015,3.941406 -4.01562,6.589844 3.20703,1.57813 6.63281,-0.96484 9.78125,-1.355469 2.23828,-0.277344 2.5,2.437509 4.375,3.074219 2.54687,0.86329 5.35156,0.0273 7.96094,0.14844 2.03125,0.0937 3.67968,0.92969 5.5625,1.5625 1.39453,0.47266 8.78906,-0.47656 8.14843,1.90625 -0.76562,2.85156 -20.11328,4.21094 -22.53125,4.35156 -17.44531,1.01954 -35.875,2.96875 -53.13281,-0.64843 -5.82422,-1.21875 -15.9375,-4.08985 -16.86328,-11.359383"
         fill-opacity="1"
         fill-rule="evenodd"
         id="path59" />
    </g>
  </g>
  <path
     fill="#ffffff"
     d="m 202.85157,62.757809 c -21.75,-6.13671 -27.80469,18.83985 8.35937,7.49219 5.78516,3.21485 12.48438,4.02735 20.78906,0.59375 8.96094,3.26172 16.32422,2.78516 22.52735,-0.41015 6.82031,2.39843 13.72265,3.39453 20.87109,0.27343 4.09766,2.83594 8.26172,2.26563 12.45703,-0.21484 13.71875,2.875 14.67969,-3.45703 7.94141,-3.73047 -2.97656,-4.58203 -4.92578,-4.72266 -9.35156,-3.13672 -1.03516,-4.75 -3.47657,-6.25 -7.27735,-4.61328 1.19141,-7.39062 -1.92968,-9.54297 -8.05859,-8.03125 1.24609,-17.765625 -18.28906,-20.125 -27.59766,-8.644531 -12.40234,-4.882813 -20.80078,0.03125 -19.05468,9.378911 -2.7461,0.0117 -4.97657,0.67187 -5.77344,3.10546 -7.04688,-0.32031 -13.67188,1.85157 -15.83203,7.9375 z m 0,0"
     fill-opacity="1"
     fill-rule="evenodd"
     id="path65" />
  <g
     clip-path="url(#7d9e9bd16f)"
     id="g71"
     transform="translate(-0.140625,-51.800781)">
    <g
       clip-path="url(#46ac378cfe)"
       id="g69">
      <path
         fill="#f0f1f1"
         d="m 188.80469,114.71875 c 0.25781,-0.45703 0.0273,1.07422 0.23828,1.55469 1.8125,4.14453 5.70703,5.16015 9.90625,4.44922 3.61328,-0.61328 7.61328,-2.76563 11.30078,-2.54688 3.98828,0.23828 6.49609,3.38672 10.95312,2.53516 3.25,-0.6211 10.19141,-6.52735 10.22657,-6.52735 3.1289,-0.21484 7.73437,4.8086 14.26562,3.20313 5.14453,-1.26172 5.32031,-6.69922 2.76172,-10.35547 -0.10547,-0.15234 -0.88281,-1.02734 -0.61328,-1.24219 0.85547,-0.68359 5.25781,3.29297 6.70312,3.29297 2.39844,0 4.82032,-0.92969 7.22657,-1.09375 0.0742,-0.008 1.0664,-0.0781 1.03906,0.082 -0.0234,0.12891 -0.48438,0.2461 -0.57422,0.28125 -3.17187,1.16407 -12.72656,5.32813 -5.43359,8.91016 4.33593,2.13281 8.96875,-1.30469 13.23047,-1.83203 3.02343,-0.375 3.375,3.29297 5.91406,4.15625 3.4414,1.16797 7.23437,0.0352 10.76172,0.19922 2.75,0.125 4.98047,1.25781 7.52343,2.11328 1.89063,0.63672 11.88672,-0.64453 11.01954,2.57812 -1.03516,3.85547 -27.19922,5.69141 -30.46875,5.88281 -23.58985,1.38282 -48.51563,4.01563 -71.85157,-0.875 -7.87109,-1.64843 -21.55078,-5.53124 -22.80468,-15.36328"
         fill-opacity="1"
         fill-rule="evenodd"
         id="path67" />
    </g>
  </g>
  <path
     fill="#ffffff"
     d="m 232.9336,38.992188 c -25.5586,-7.210938 -32.67188,22.140621 9.82031,8.804687 6.80078,3.777344 14.67188,4.734374 24.42969,0.699224 10.53125,3.82812 19.18359,3.26953 26.46875,-0.48438 8.01562,2.82031 16.1289,3.98828 24.52734,0.32422 4.81641,3.33203 9.70703,2.66016 14.64063,-0.253908 16.12109,3.378908 17.25,-4.0625 9.32812,-4.382812 -3.49609,-5.386719 -5.78515,-5.550781 -10.98828,-3.683594 -1.21484,-5.582031 -4.08203,-7.347656 -8.54687,-5.421875 1.39453,-8.683593 -2.26954,-11.214843 -9.47266,-9.441406 C 314.60547,4.277344 291.65235,1.507813 280.71094,15 c -14.57422,-5.742187 -24.4414,0.03516 -22.38672,11.015625 -3.23047,0.01563 -5.85156,0.789063 -6.78515,3.652344 -8.28516,-0.378906 -16.06641,2.175781 -18.60547,9.324219 z m 0,0"
     fill-opacity="1"
     fill-rule="evenodd"
     id="path73" />
  <g
     clip-path="url(#32ed813f35)"
     id="g79"
     transform="translate(-0.140625,-51.800781)">
    <g
       clip-path="url(#065eb50aea)"
       id="g77">
      <path
         fill="#f0f1f1"
         d="m 216.40234,90.984375 c 0.30469,-0.535156 0.0312,1.261719 0.27735,1.824219 2.13281,4.871094 6.70703,6.066406 11.64453,5.230468 4.24609,-0.71875 8.9414,-3.253906 13.27734,-2.992187 4.6875,0.277344 7.63281,3.976563 12.8711,2.976563 3.82031,-0.730469 11.97656,-7.667969 12.01562,-7.671876 3.67969,-0.25 9.08984,5.652344 16.76563,3.769532 6.04296,-1.488282 6.25,-7.875 3.24218,-12.171875 -0.125,-0.179688 -1.03515,-1.207031 -0.71875,-1.457031 1.00391,-0.804688 6.17578,3.867187 7.875,3.867187 2.82032,0 5.66407,-1.09375 8.49219,-1.285156 0.0859,-0.0078 1.25781,-0.09375 1.22266,0.09375 -0.0274,0.152343 -0.57032,0.292969 -0.67578,0.332031 -3.72657,1.371094 -14.95313,6.261719 -6.38672,10.472656 5.09765,2.503906 10.53906,-1.535156 15.54687,-2.15625 3.55469,-0.441406 3.96875,3.871094 6.94922,4.882813 4.04688,1.375 8.50391,0.04687 12.64844,0.234375 3.23047,0.148437 5.85156,1.480468 8.83984,2.488281 2.21875,0.746095 13.96875,-0.761719 12.94922,3.027345 -1.21875,4.53125 -31.96094,6.6875 -35.80469,6.91406 -27.71875,1.6211 -57.0039,4.71485 -84.42578,-1.03125 -9.2539,-1.9375 -25.32422,-6.49609 -26.79687,-18.05078"
         fill-opacity="1"
         fill-rule="evenodd"
         id="path75" />
    </g>
  </g>
  <g
     clip-path="url(#dc7be6506e)"
     id="g83"
     transform="translate(-0.140625,-51.800781)">
    <path
       fill="#00a8bb"
       d="m 229.71094,167.4375 c -3.42969,0 -5.28907,-1.53125 -6.64844,-2.64844 -1.11719,-0.92187 -1.79688,-1.47265 -3.38281,-1.47265 -1.58594,0 -2.26172,0.55468 -3.38282,1.47265 -1.35937,1.11719 -3.21875,2.64844 -6.64843,2.64844 -3.42969,0 -5.28907,-1.53125 -6.64844,-2.64844 -1.11719,-0.92187 -1.79688,-1.47265 -3.38281,-1.47265 -1.58594,0 -2.26172,0.55468 -3.38672,1.47265 -1.35938,1.11719 -3.21875,2.64844 -6.64844,2.64844 -3.42969,0 -5.28516,-1.53125 -6.64844,-2.64844 -1.11718,-0.92187 -1.79687,-1.47265 -3.38281,-1.47265 -1.58594,0 -2.25781,0.55468 -3.38281,1.47265 -1.35938,1.11719 -3.21875,2.64844 -6.64844,2.64844 -3.42969,0 -5.28906,-1.53125 -6.64844,-2.64844 -1.11718,-0.92187 -1.79687,-1.47265 -3.38281,-1.47265 -1.58594,0 -2.26172,0.55468 -3.38281,1.47265 -1.35938,1.11719 -3.21875,2.64844 -6.64844,2.64844 -3.42969,0 -5.28906,-1.53125 -6.64844,-2.64844 -1.12109,-0.91797 -1.79687,-1.47265 -3.38281,-1.47265 v -5.14844 c 3.42969,0 5.28906,1.52734 6.64844,2.64453 1.11719,0.92187 1.79687,1.47266 3.38281,1.47266 1.58594,0 2.26172,-0.55469 3.38281,-1.47266 1.35938,-1.11719 3.21875,-2.64453 6.64844,-2.64453 3.42969,0 5.28906,1.52734 6.64844,2.64453 1.11719,0.92187 1.79687,1.47266 3.38281,1.47266 1.58594,0 2.26172,-0.55469 3.38281,-1.47266 1.35938,-1.11719 3.21875,-2.64453 6.64844,-2.64453 3.42969,0 5.28906,1.52734 6.64844,2.64453 1.11719,0.92187 1.79687,1.47266 3.38281,1.47266 1.58984,0 2.26172,-0.55469 3.38672,-1.47266 1.35937,-1.11719 3.21875,-2.64453 6.64844,-2.64453 3.42968,0 5.28906,1.52734 6.64843,2.64453 1.11719,0.92187 1.79688,1.47266 3.38282,1.47266 1.58593,0 2.25781,-0.55469 3.38281,-1.47266 1.35937,-1.11719 3.21875,-2.64453 6.64844,-2.64453 3.42968,0 5.28906,1.52734 6.64843,2.64453 1.11719,0.92187 1.79688,1.47266 3.38282,1.47266 1.58593,0 2.26172,-0.55469 3.38281,-1.47266 1.35937,-1.11719 3.21875,-2.64453 6.64844,-2.64453 v 5.14844 c -1.58594,0 -2.26172,0.55468 -3.38282,1.47265 -1.35937,1.11719 -3.21875,2.64844 -6.64843,2.64844 z m 0,0"
       fill-opacity="1"
       fill-rule="nonzero"
       id="path81" />
  </g>
  <g
     clip-path="url(#cce9954d27)"
     id="g87"
     transform="translate(-0.140625,-51.800781)">
    <path
       fill="#00a8bb"
       d="m 329.23437,167.4375 c -3.42968,0 -5.28906,-1.53125 -6.64843,-2.64844 -1.11719,-0.92187 -1.79688,-1.47265 -3.38282,-1.47265 -1.58593,0 -2.26171,0.55468 -3.38281,1.47265 -1.35937,1.11719 -3.21875,2.64844 -6.64844,2.64844 -3.42968,0 -5.28906,-1.53125 -6.64843,-2.64844 -1.11719,-0.92187 -1.79688,-1.47265 -3.38282,-1.47265 -1.58593,0 -2.26171,0.55468 -3.38671,1.47265 -1.35938,1.11719 -3.21875,2.64844 -6.64844,2.64844 -3.42969,0 -5.28516,-1.53125 -6.64844,-2.64844 -1.11719,-0.92187 -1.79687,-1.47265 -3.38281,-1.47265 -1.58594,0 -2.25781,0.55468 -3.38281,1.47265 -1.35938,1.11719 -3.21875,2.64844 -6.64844,2.64844 -3.42969,0 -5.28906,-1.53125 -6.64844,-2.64844 -1.11719,-0.92187 -1.79687,-1.47265 -3.38281,-1.47265 -1.58594,0 -2.26172,0.55468 -3.38281,1.47265 -1.35938,1.11719 -3.21875,2.64844 -6.64844,2.64844 -3.42969,0 -5.28906,-1.53125 -6.64844,-2.64844 -1.12109,-0.91797 -1.79687,-1.47265 -3.38281,-1.47265 v -5.14844 c 3.42969,0 5.28906,1.52734 6.64844,2.64453 1.11718,0.92187 1.79687,1.47266 3.38281,1.47266 1.58594,0 2.26172,-0.55469 3.38281,-1.47266 1.35938,-1.11719 3.21875,-2.64453 6.64844,-2.64453 3.42969,0 5.28906,1.52734 6.64844,2.64453 1.11718,0.92187 1.79687,1.47266 3.38281,1.47266 1.58594,0 2.26172,-0.55469 3.38281,-1.47266 1.35938,-1.11719 3.21875,-2.64453 6.64844,-2.64453 3.42969,0 5.28906,1.52734 6.64844,2.64453 1.11718,0.92187 1.79687,1.47266 3.38281,1.47266 1.58984,0 2.26172,-0.55469 3.38672,-1.47266 1.35937,-1.11719 3.21875,-2.64453 6.64843,-2.64453 3.42969,0 5.28516,1.52734 6.64844,2.64453 1.11719,0.92187 1.79688,1.47266 3.38281,1.47266 1.58594,0 2.25782,-0.55469 3.38282,-1.47266 1.35937,-1.11719 3.21875,-2.64453 6.64843,-2.64453 3.42969,0 5.28907,1.52734 6.64844,2.64453 1.11719,0.92187 1.79688,1.47266 3.38281,1.47266 1.58594,0 2.26172,-0.55469 3.38282,-1.47266 1.35937,-1.11719 3.21875,-2.64453 6.64843,-2.64453 v 5.14844 c -1.58593,0 -2.26171,0.55468 -3.38281,1.47265 -1.35937,1.11719 -3.21875,2.64844 -6.64844,2.64844 z m 0,0"
       fill-opacity="1"
       fill-rule="nonzero"
       id="path85" />
  </g>
  <g
     clip-path="url(#8933e911a3)"
     id="g93"
     transform="translate(-0.140625,-51.800781)">
    <path
       fill="#ffde59"
       d="m 261.44531,51.90625 c 0.0781,0.242188 -0.0547,0.417969 -0.1289,0.597656 -0.80469,1.921875 -1.80079,3.746094 -2.71875,5.613282 -1.53516,3.136718 -3.125,6.246093 -4.42969,9.496093 -0.77344,1.929688 -1.63672,3.824219 -2.42969,5.746094 -0.0586,0.148437 -0.11328,0.449219 -0.30078,0.363281 -0.22266,-0.101562 -0.0117,-0.332031 0.0547,-0.492187 0.98437,-2.394531 1.95703,-4.792969 2.96875,-7.175781 1.03125,-2.417969 2.26953,-4.738282 3.42187,-7.101563 1.10156,-2.257813 2.22266,-4.503906 3.33594,-6.757813 0.0469,-0.09766 0.0703,-0.222656 0.22656,-0.289062 z m -28.35937,0.214844 c 0.1875,0.632812 0.37109,1.269531 0.625,1.882812 0.90625,2.164063 1.90625,4.296875 2.63672,6.523438 1.46484,4.472656 3.35937,8.78125 4.92968,13.214844 0.0469,0.132812 0.0586,0.40625 0.27735,0.324218 0.19531,-0.07422 0.0195,-0.269531 -0.0195,-0.398437 -0.36329,-1.210938 -0.83594,-2.382813 -1.29688,-3.554688 -2.35937,-5.972656 -4.55859,-12.007812 -6.89453,-17.988281 -0.0469,-0.125 -0.0664,-0.28125 -0.25781,-0.324219 -0.0625,0.125 -0.0312,0.222657 0,0.320313 z m 26.8164,28.582031 c 1.84375,-0.84375 3.67969,-1.695313 5.51953,-2.546875 2.82032,-1.308594 5.61329,-2.683594 8.44922,-3.957031 2.1875,-0.984375 4.41407,-1.878907 6.51172,-3.046875 0.15235,-0.08594 0.35156,-0.121094 0.47266,-0.414063 -7.34375,3.265625 -14.48438,6.753907 -21.69141,10.105469 0.28125,0.08594 0.51172,-0.03906 0.73828,-0.140625 z m 1.54688,5.199219 c 2.52734,-0.07813 5.05078,0.08203 7.58203,-0.01172 1.80859,-0.0625 3.62109,0.05469 5.43359,0.08984 2.26172,0.03906 4.51563,-0.09375 6.77344,-0.175781 0.91797,-0.03516 1.83984,-0.0625 2.75781,-0.09766 0.0977,0 0.24219,0 0.23828,-0.125 -0.004,-0.148437 -0.15625,-0.08984 -0.24609,-0.08594 -0.52344,0.01563 -1.04687,0.04297 -1.56641,0.0625 -4.42968,0.171875 -8.85937,0.02344 -13.28515,0.167968 -2.7461,0.08594 -5.48828,-0.175781 -8.23438,-0.05078 -0.15625,0.0078 -0.32812,-0.03906 -0.48437,0.132813 0.35547,0.109375 0.69531,0.105468 1.03125,0.09375 z m -28.84375,-0.316406 c -0.51953,-0.01563 -1.04297,-0.01953 -1.56641,-0.03125 -2.17187,-0.05469 -4.33594,0.195312 -6.5039,0.164062 -2.00391,-0.02734 -4.00391,-0.109375 -6.00782,-0.136719 -2.97265,-0.03906 -5.94531,0.01953 -8.91797,0.0625 -0.11718,0.0039 -0.30859,-0.04297 -0.3164,0.125 -0.008,0.195313 0.1914,0.113281 0.30078,0.113281 1.42969,0.01172 2.85547,0.02734 4.28516,0.01563 5.14062,-0.05078 10.28515,0.02734 15.42578,-0.08984 1.05859,-0.02344 2.11718,-0.0039 3.17578,-0.01172 0.16015,0 0.33594,0.05078 0.46875,-0.09766 -0.0859,-0.136719 -0.22266,-0.109375 -0.34375,-0.113281 z M 213.47266,70.933594 c 2.53906,1.1875 5.08593,2.371094 7.52734,3.765625 3.33594,1.90625 6.88672,3.390625 10.26953,5.21875 0.88281,0.476562 1.82031,0.859375 2.73438,1.28125 0.0742,0.03516 0.1914,0.15625 0.2539,0 0.043,-0.101563 -0.0859,-0.136719 -0.16015,-0.175781 -0.25,-0.132813 -0.4961,-0.265626 -0.7461,-0.390626 -2.1289,-1.050781 -4.27344,-2.070312 -6.38672,-3.148437 -4.54297,-2.320313 -9.09375,-4.632813 -13.66797,-6.894531 -0.10937,-0.05469 -0.21093,-0.160156 -0.39453,-0.05859 0.14453,0.230469 0.36719,0.308594 0.57032,0.402344 z m 33.38281,-14.292969 c -0.0195,1.671875 -0.0508,3.34375 -0.0664,5.015625 -0.0312,3.703125 -0.082,7.402344 -0.0195,11.105469 0.004,0.164062 -0.0586,0.433593 0.18359,0.425781 0.21485,-0.0078 0.1211,-0.269531 0.125,-0.417969 0.0977,-2.71875 -0.11328,-5.433593 -0.0273,-8.15625 0.0859,-2.5625 0.0234,-5.128906 0.0195,-7.695312 0,-0.160157 0.0508,-0.335938 -0.10937,-0.488281 -0.10157,0.05859 -0.10547,0.132812 -0.10547,0.210937 z m 21.21484,8.25 c -0.0898,0.04297 -0.17187,0.109375 -0.24219,0.179687 -1.00781,0.957032 -2.0039,1.929688 -3.01953,2.875 -1.1875,1.105469 -2.40625,2.175782 -3.58203,3.289063 -1.66406,1.578125 -3.27734,3.210937 -4.86328,4.871094 -0.10547,0.113281 -0.20703,0.226562 -0.30078,0.347656 -0.0469,0.05859 -0.0859,0.140625 -0.0234,0.207031 0.082,0.08594 0.16406,0.03125 0.23047,-0.03516 0.18359,-0.179688 0.35938,-0.363281 0.53906,-0.542969 0.96094,-0.953125 1.96875,-1.863281 2.8711,-2.867187 1.28906,-1.433594 2.66797,-2.777344 4.13672,-4.027344 1.42968,-1.214844 2.74609,-2.550781 4.09375,-3.855469 0.10937,-0.105469 0.20312,-0.226562 0.28906,-0.324219 -0.008,-0.117187 -0.0703,-0.148437 -0.12891,-0.117187 z m -42.17969,-0.355469 c 0.0664,0.203125 0.23047,0.332032 0.375,0.476563 3.09766,3.054687 6.03125,6.273437 9.125,9.332031 0.69141,0.683594 1.34766,1.398438 2,2.117188 0.0703,0.07812 0.16407,0.203124 0.28516,0.09375 0.11719,-0.109376 0.004,-0.207032 -0.0703,-0.289063 -0.27735,-0.300781 -0.55078,-0.605469 -0.83203,-0.902344 -1.83594,-1.917969 -3.75782,-3.75 -5.61328,-5.644531 -1.46094,-1.496094 -2.83985,-3.078125 -4.3711,-4.507812 -0.26953,-0.253907 -0.54687,-0.503907 -0.82031,-0.757813 -0.0273,0.02734 -0.0508,0.05469 -0.0781,0.08203 z M 239.60937,75 c -0.0312,-0.296875 -0.21484,-0.527344 -0.37109,-0.765625 -1.26172,-1.949219 -2.50781,-3.910156 -3.83984,-5.8125 -0.27735,-0.398437 -0.55078,-0.796875 -0.82813,-1.195313 -0.0508,-0.06641 -0.11719,-0.160156 -0.21875,-0.08594 -0.0781,0.0625 -0.0117,0.140625 0.0234,0.203125 0.0273,0.05859 0.0664,0.113281 0.10156,0.164062 1.39063,2.046876 2.85547,4.042969 4.08594,6.195313 0.27734,0.476563 0.63281,0.910156 0.94922,1.359375 0.0312,-0.01953 0.0664,-0.03906 0.0977,-0.0625 z m 4.86329,-1.796875 c 0,-0.398437 -0.15625,-0.769531 -0.23047,-1.15625 -0.48828,-2.566406 -0.96875,-5.132813 -1.45703,-7.695313 -0.0312,-0.175781 -0.0273,-0.503906 -0.21094,-0.464843 -0.22656,0.04687 -0.0977,0.34375 -0.0625,0.527343 0.48828,2.34375 1.07031,4.667969 1.36328,7.050782 0.0781,0.652344 0.26953,1.285156 0.46484,1.933594 0.14453,-0.06641 0.13282,-0.136719 0.13282,-0.195313 z m -8.8711,4.886719 c -0.38672,-0.355469 -0.82422,-0.640625 -1.25781,-0.941406 -1.42578,-0.984376 -2.85547,-1.96875 -4.22266,-3.039063 -0.42968,-0.335937 -0.88672,-0.640625 -1.33984,-0.953125 -0.0859,-0.05859 -0.22266,-0.144531 -0.29688,-0.0078 -0.0625,0.113281 0.0664,0.179687 0.14844,0.238281 0.25781,0.1875 0.51563,0.371093 0.78125,0.546875 0.45703,0.308594 0.92188,0.597656 1.36719,0.914062 1.5625,1.109375 3.02734,2.34375 4.625,3.398438 0.12891,0.08594 0.23047,0.257812 0.44141,0.171875 -0.0273,-0.15625 -0.14844,-0.234375 -0.2461,-0.328125 z m -2.28125,5.128906 c -0.0586,-0.02734 -0.10937,-0.07031 -0.16797,-0.08203 -1.1914,-0.203125 -2.33984,-0.59375 -3.52734,-0.824219 -1.42578,-0.273438 -2.79688,-0.769531 -4.21484,-1.066406 -0.25391,-0.05469 -0.51954,-0.183594 -0.8125,-0.04687 0.13671,0.1875 0.32031,0.199219 0.48828,0.242187 1.13281,0.289063 2.27343,0.550782 3.41797,0.800782 1.16406,0.257812 2.30859,0.617187 3.46875,0.90625 0.43359,0.109374 0.8789,0.203124 1.32812,0.167968 0.008,-0.03516 0.0117,-0.06641 0.0195,-0.09766 z m 24.95313,-4.539062 c 0.35547,-0.25 0.69922,-0.511719 1.05078,-0.765626 1.6875,-1.207031 3.375,-2.414062 5.0625,-3.628906 0.19531,-0.140625 0.37109,-0.308594 0.54687,-0.472656 0.0625,-0.05469 0.16407,-0.121094 0.0742,-0.21875 -0.0664,-0.06641 -0.14453,0.0039 -0.20312,0.04297 -0.29297,0.203125 -0.58203,0.414062 -0.875,0.617187 -1,0.683594 -1.86328,1.546875 -2.89453,2.1875 -0.96485,0.601563 -1.89063,1.257813 -2.78125,1.957032 -0.13672,0.109374 -0.30469,0.195312 -0.34766,0.410156 0.18359,0.05859 0.26953,-0.05859 0.36719,-0.128906 z m -3.60547,-4.460938 c 0.94922,-1.539062 1.91015,-3.074219 2.99219,-4.527344 0.41015,-0.554687 0.77343,-1.136718 1.11718,-1.734375 0.0586,-0.109375 0.16797,-0.265625 0.0469,-0.34375 -0.14063,-0.08594 -0.21094,0.09766 -0.27344,0.199219 -1.3125,2.183594 -2.80469,4.253906 -4.17578,6.398438 -0.16797,0.261718 -0.37109,0.507812 -0.42578,0.832031 0.33984,-0.199219 0.52734,-0.515625 0.71875,-0.824219 z m -5.32813,-0.945312 c 0.0352,-0.132813 0.0742,-0.265626 0.10157,-0.398438 0.49609,-2.550781 0.9414,-5.109375 1.53515,-7.636719 0.0625,-0.261719 0.10156,-0.527343 0.14063,-0.789062 0.0156,-0.09766 0.0234,-0.234375 -0.10938,-0.25 -0.13281,-0.01563 -0.14062,0.125 -0.17187,0.21875 -0.0156,0.04687 -0.0156,0.09766 -0.0234,0.148437 -0.34766,2.34375 -0.875,4.652344 -1.33594,6.976563 -0.11328,0.5625 -0.22656,1.132812 -0.23828,1.714843 0.0352,0.0039 0.0664,0.0078 0.10156,0.01563 z m 19.17969,8.222656 c -2.77734,0.582031 -5.55859,1.152344 -8.29687,1.914062 0.57031,0.08594 8.12109,-1.664062 8.29687,-1.914062 z m -44.88281,-0.480469 c 0.0391,0.0078 0.10156,-0.03516 0.11719,-0.07031 0.0312,-0.07422 -0.0312,-0.117187 -0.0937,-0.136718 -0.44141,-0.121094 -0.8711,-0.296875 -1.35157,-0.238282 0.41016,0.246094 0.85547,0.394532 1.32813,0.445313 z m 9.48047,-15.71875 c -0.0352,-0.0078 -0.0977,-0.0039 -0.10157,0.0078 -0.0117,0.04297 -0.0234,0.105468 -0.004,0.140624 0.17187,0.328126 0.38672,0.628907 0.6289,0.910157 0.0469,0.05078 0.10547,0.07813 0.17188,0.04297 0.0234,-0.01172 0.0312,-0.05859 0.0391,-0.07422 0,-0.148438 -0.61328,-0.996094 -0.73437,-1.027344 z m 32.71875,7.53125 c -0.0625,0.05078 -0.10157,0.132813 -0.0508,0.203125 0.0547,0.08203 0.13671,0.03516 0.19921,-0.0039 0.32422,-0.199219 0.61329,-0.4375 0.81641,-0.769532 -0.37109,0.117188 -0.67187,0.335938 -0.96484,0.570313 z M 242.29297,62.824219 c 0.0156,0.07031 0.0391,0.15625 0.14062,0.144531 0.0742,-0.01172 0.10547,-0.07422 0.0898,-0.140625 -0.0937,-0.410156 -0.10938,-0.84375 -0.39844,-1.191406 -0.0352,0.410156 0.0742,0.796875 0.16797,1.1875 z m 9.20312,-0.691407 c 0.004,-0.03906 -0.0312,-0.105468 -0.0664,-0.121093 -0.0781,-0.03516 -0.11719,0.03516 -0.13282,0.09375 -0.0898,0.371093 -0.23046,0.742187 -0.0937,1.140625 0.25,-0.335938 0.23829,-0.734375 0.29297,-1.113282 z m 8.64453,3.511719 c -0.29296,0.378907 -0.67187,0.691407 -0.76562,1.195313 0.32422,-0.351563 0.66016,-0.699219 0.76562,-1.195313 z m -33.85937,6.046875 c 0.26172,0.371094 0.63672,0.582032 1.05859,0.734375 -0.27343,-0.351562 -0.60156,-0.636719 -1.05859,-0.734375 z m 43.19531,9.628906 c 0.41797,-0.07422 0.86328,-0.04687 1.19922,-0.371093 -0.41797,0.0625 -0.86719,0.03125 -1.19922,0.371093 z m 0,0"
       fill-opacity="1"
       fill-rule="nonzero"
       id="path89" />
    <path
       fill="#ffde59"
       d="m 261.44531,51.90625 c 0.0781,0.242188 -0.0547,0.417969 -0.1289,0.597656 -0.80469,1.921875 -1.80079,3.746094 -2.71875,5.613282 -1.53516,3.136718 -3.125,6.246093 -4.42969,9.496093 -0.77344,1.929688 -1.63672,3.824219 -2.42969,5.746094 -0.0586,0.148437 -0.11328,0.449219 -0.30078,0.363281 -0.22266,-0.101562 -0.0117,-0.332031 0.0547,-0.492187 0.98437,-2.394531 1.95703,-4.792969 2.96875,-7.175781 1.03125,-2.417969 2.26953,-4.738282 3.42187,-7.101563 1.10156,-2.257813 2.22266,-4.503906 3.33594,-6.757813 0.0469,-0.09766 0.0703,-0.222656 0.22656,-0.289062 z m -28.35937,0.214844 c 0.1875,0.632812 0.37109,1.269531 0.625,1.882812 0.90625,2.164063 1.90625,4.296875 2.63672,6.523438 1.46484,4.472656 3.35937,8.78125 4.92968,13.214844 0.0469,0.132812 0.0586,0.40625 0.27735,0.324218 0.19531,-0.07422 0.0195,-0.269531 -0.0195,-0.398437 -0.36329,-1.210938 -0.83594,-2.382813 -1.29688,-3.554688 -2.35937,-5.972656 -4.55859,-12.007812 -6.89453,-17.988281 -0.0469,-0.125 -0.0664,-0.28125 -0.25781,-0.324219 -0.0625,0.125 -0.0312,0.222657 0,0.320313 z m 26.8164,28.582031 c 1.84375,-0.84375 3.67969,-1.695313 5.51953,-2.546875 2.82032,-1.308594 5.61329,-2.683594 8.44922,-3.957031 2.1875,-0.984375 4.41407,-1.878907 6.51172,-3.046875 0.15235,-0.08594 0.35156,-0.121094 0.47266,-0.414063 -7.34375,3.265625 -14.48438,6.753907 -21.69141,10.105469 0.28125,0.08594 0.51172,-0.03906 0.73828,-0.140625 z m 1.54688,5.199219 c 2.52734,-0.07813 5.05078,0.08203 7.58203,-0.01172 1.80859,-0.0625 3.62109,0.05469 5.43359,0.08984 2.26172,0.03906 4.51563,-0.09375 6.77344,-0.175781 0.91797,-0.03516 1.83984,-0.0625 2.75781,-0.09766 0.0977,0 0.24219,0 0.23828,-0.125 -0.004,-0.148437 -0.15625,-0.08984 -0.24609,-0.08594 -0.52344,0.01563 -1.04687,0.04297 -1.56641,0.0625 -4.42968,0.171875 -8.85937,0.02344 -13.28515,0.167968 -2.7461,0.08594 -5.48828,-0.175781 -8.23438,-0.05078 -0.15625,0.0078 -0.32812,-0.03906 -0.48437,0.132813 0.35547,0.109375 0.69531,0.105468 1.03125,0.09375 z m -28.84375,-0.316406 c -0.51953,-0.01563 -1.04297,-0.01953 -1.56641,-0.03125 -2.17187,-0.05469 -4.33594,0.195312 -6.5039,0.164062 -2.00391,-0.02734 -4.00391,-0.109375 -6.00782,-0.136719 -2.97265,-0.03906 -5.94531,0.01953 -8.91797,0.0625 -0.11718,0.0039 -0.30859,-0.04297 -0.3164,0.125 -0.008,0.195313 0.1914,0.113281 0.30078,0.113281 1.42969,0.01172 2.85547,0.02734 4.28516,0.01563 5.14062,-0.05078 10.28515,0.02734 15.42578,-0.08984 1.05859,-0.02344 2.11718,-0.0039 3.17578,-0.01172 0.16015,0 0.33594,0.05078 0.46875,-0.09766 -0.0859,-0.136719 -0.22266,-0.109375 -0.34375,-0.113281 z M 213.47266,70.933594 c 2.53906,1.1875 5.08593,2.371094 7.52734,3.765625 3.33594,1.90625 6.88672,3.390625 10.26953,5.21875 0.88281,0.476562 1.82031,0.859375 2.73438,1.28125 0.0742,0.03516 0.1914,0.15625 0.2539,0 0.043,-0.101563 -0.0859,-0.136719 -0.16015,-0.175781 -0.25,-0.132813 -0.4961,-0.265626 -0.7461,-0.390626 -2.1289,-1.050781 -4.27344,-2.070312 -6.38672,-3.148437 -4.54297,-2.320313 -9.09375,-4.632813 -13.66797,-6.894531 -0.10937,-0.05469 -0.21093,-0.160156 -0.39453,-0.05859 0.14453,0.230469 0.36719,0.308594 0.57032,0.402344 z m 33.38281,-14.292969 c -0.0195,1.671875 -0.0508,3.34375 -0.0664,5.015625 -0.0312,3.703125 -0.082,7.402344 -0.0195,11.105469 0.004,0.164062 -0.0586,0.433593 0.18359,0.425781 0.21485,-0.0078 0.1211,-0.269531 0.125,-0.417969 0.0977,-2.71875 -0.11328,-5.433593 -0.0273,-8.15625 0.0859,-2.5625 0.0234,-5.128906 0.0195,-7.695312 0,-0.160157 0.0508,-0.335938 -0.10937,-0.488281 -0.10157,0.05859 -0.10547,0.132812 -0.10547,0.210937 z m 21.21484,8.25 c -0.0898,0.04297 -0.17187,0.109375 -0.24219,0.179687 -1.00781,0.957032 -2.0039,1.929688 -3.01953,2.875 -1.1875,1.105469 -2.40625,2.175782 -3.58203,3.289063 -1.66406,1.578125 -3.27734,3.210937 -4.86328,4.871094 -0.10547,0.113281 -0.20703,0.226562 -0.30078,0.347656 -0.0469,0.05859 -0.0859,0.140625 -0.0234,0.207031 0.082,0.08594 0.16406,0.03125 0.23047,-0.03516 0.18359,-0.179688 0.35938,-0.363281 0.53906,-0.542969 0.96094,-0.953125 1.96875,-1.863281 2.8711,-2.867187 1.28906,-1.433594 2.66797,-2.777344 4.13672,-4.027344 1.42968,-1.214844 2.74609,-2.550781 4.09375,-3.855469 0.10937,-0.105469 0.20312,-0.226562 0.28906,-0.324219 -0.008,-0.117187 -0.0703,-0.148437 -0.12891,-0.117187 z m -42.17969,-0.355469 c 0.0664,0.203125 0.23047,0.332032 0.375,0.476563 3.09766,3.054687 6.03125,6.273437 9.125,9.332031 0.69141,0.683594 1.34766,1.398438 2,2.117188 0.0703,0.07812 0.16407,0.203124 0.28516,0.09375 0.11719,-0.109376 0.004,-0.207032 -0.0703,-0.289063 -0.27735,-0.300781 -0.55078,-0.605469 -0.83203,-0.902344 -1.83594,-1.917969 -3.75782,-3.75 -5.61328,-5.644531 -1.46094,-1.496094 -2.83985,-3.078125 -4.3711,-4.507812 -0.26953,-0.253907 -0.54687,-0.503907 -0.82031,-0.757813 -0.0273,0.02734 -0.0508,0.05469 -0.0781,0.08203 z M 239.60937,75 c -0.0312,-0.296875 -0.21484,-0.527344 -0.37109,-0.765625 -1.26172,-1.949219 -2.50781,-3.910156 -3.83984,-5.8125 -0.27735,-0.398437 -0.55078,-0.796875 -0.82813,-1.195313 -0.0508,-0.06641 -0.11719,-0.160156 -0.21875,-0.08594 -0.0781,0.0625 -0.0117,0.140625 0.0234,0.203125 0.0273,0.05859 0.0664,0.113281 0.10156,0.164062 1.39063,2.046876 2.85547,4.042969 4.08594,6.195313 0.27734,0.476563 0.63281,0.910156 0.94922,1.359375 0.0312,-0.01953 0.0664,-0.03906 0.0977,-0.0625 z m 4.86329,-1.796875 c 0,-0.398437 -0.15625,-0.769531 -0.23047,-1.15625 -0.48828,-2.566406 -0.96875,-5.132813 -1.45703,-7.695313 -0.0312,-0.175781 -0.0273,-0.503906 -0.21094,-0.464843 -0.22656,0.04687 -0.0977,0.34375 -0.0625,0.527343 0.48828,2.34375 1.07031,4.667969 1.36328,7.050782 0.0781,0.652344 0.26953,1.285156 0.46484,1.933594 0.14453,-0.06641 0.13282,-0.136719 0.13282,-0.195313 z m -8.8711,4.886719 c -0.38672,-0.355469 -0.82422,-0.640625 -1.25781,-0.941406 -1.42578,-0.984376 -2.85547,-1.96875 -4.22266,-3.039063 -0.42968,-0.335937 -0.88672,-0.640625 -1.33984,-0.953125 -0.0859,-0.05859 -0.22266,-0.144531 -0.29688,-0.0078 -0.0625,0.113281 0.0664,0.179687 0.14844,0.238281 0.25781,0.1875 0.51563,0.371093 0.78125,0.546875 0.45703,0.308594 0.92188,0.597656 1.36719,0.914062 1.5625,1.109375 3.02734,2.34375 4.625,3.398438 0.12891,0.08594 0.23047,0.257812 0.44141,0.171875 -0.0273,-0.15625 -0.14844,-0.234375 -0.2461,-0.328125 z m -2.28125,5.128906 c -0.0586,-0.02734 -0.10937,-0.07031 -0.16797,-0.08203 -1.1914,-0.203125 -2.33984,-0.59375 -3.52734,-0.824219 -1.42578,-0.273438 -2.79688,-0.769531 -4.21484,-1.066406 -0.25391,-0.05469 -0.51954,-0.183594 -0.8125,-0.04687 0.13671,0.1875 0.32031,0.199219 0.48828,0.242187 1.13281,0.289063 2.27343,0.550782 3.41797,0.800782 1.16406,0.257812 2.30859,0.617187 3.46875,0.90625 0.43359,0.109374 0.8789,0.203124 1.32812,0.167968 0.008,-0.03516 0.0117,-0.06641 0.0195,-0.09766 z m 24.95313,-4.539062 c 0.35547,-0.25 0.69922,-0.511719 1.05078,-0.765626 1.6875,-1.207031 3.375,-2.414062 5.0625,-3.628906 0.19531,-0.140625 0.37109,-0.308594 0.54687,-0.472656 0.0625,-0.05469 0.16407,-0.121094 0.0742,-0.21875 -0.0664,-0.06641 -0.14453,0.0039 -0.20312,0.04297 -0.29297,0.203125 -0.58203,0.414062 -0.875,0.617187 -1,0.683594 -1.86328,1.546875 -2.89453,2.1875 -0.96485,0.601563 -1.89063,1.257813 -2.78125,1.957032 -0.13672,0.109374 -0.30469,0.195312 -0.34766,0.410156 0.18359,0.05859 0.26953,-0.05859 0.36719,-0.128906 z m -3.60547,-4.460938 c 0.94922,-1.539062 1.91015,-3.074219 2.99219,-4.527344 0.41015,-0.554687 0.77343,-1.136718 1.11718,-1.734375 0.0586,-0.109375 0.16797,-0.265625 0.0469,-0.34375 -0.14063,-0.08594 -0.21094,0.09766 -0.27344,0.199219 -1.3125,2.183594 -2.80469,4.253906 -4.17578,6.398438 -0.16797,0.261718 -0.37109,0.507812 -0.42578,0.832031 0.33984,-0.199219 0.52734,-0.515625 0.71875,-0.824219 z m -5.32813,-0.945312 c 0.0352,-0.132813 0.0742,-0.265626 0.10157,-0.398438 0.49609,-2.550781 0.9414,-5.109375 1.53515,-7.636719 0.0625,-0.261719 0.10156,-0.527343 0.14063,-0.789062 0.0156,-0.09766 0.0234,-0.234375 -0.10938,-0.25 -0.13281,-0.01563 -0.14062,0.125 -0.17187,0.21875 -0.0156,0.04687 -0.0156,0.09766 -0.0234,0.148437 -0.34766,2.34375 -0.875,4.652344 -1.33594,6.976563 -0.11328,0.5625 -0.22656,1.132812 -0.23828,1.714843 0.0352,0.0039 0.0664,0.0078 0.10156,0.01563 z m 19.17969,8.222656 c -2.77734,0.582031 -5.55859,1.152344 -8.29687,1.914062 0.57031,0.08594 8.12109,-1.664062 8.29687,-1.914062 z m -44.88281,-0.480469 c 0.0391,0.0078 0.10156,-0.03516 0.11719,-0.07031 0.0312,-0.07422 -0.0312,-0.117187 -0.0937,-0.136718 -0.44141,-0.121094 -0.8711,-0.296875 -1.35157,-0.238282 0.41016,0.246094 0.85547,0.394532 1.32813,0.445313 z m 9.48047,-15.71875 c -0.0352,-0.0078 -0.0977,-0.0039 -0.10157,0.0078 -0.0117,0.04297 -0.0234,0.105468 -0.004,0.140624 0.17187,0.328126 0.38672,0.628907 0.6289,0.910157 0.0469,0.05078 0.10547,0.07813 0.17188,0.04297 0.0234,-0.01172 0.0312,-0.05859 0.0391,-0.07422 0,-0.148438 -0.61328,-0.996094 -0.73437,-1.027344 z m 32.71875,7.53125 c -0.0625,0.05078 -0.10157,0.132813 -0.0508,0.203125 0.0547,0.08203 0.13671,0.03516 0.19921,-0.0039 0.32422,-0.199219 0.61329,-0.4375 0.81641,-0.769532 -0.37109,0.117188 -0.67187,0.335938 -0.96484,0.570313 z M 242.29297,62.824219 c 0.0156,0.07031 0.0391,0.15625 0.14062,0.144531 0.0742,-0.01172 0.10547,-0.07422 0.0898,-0.140625 -0.0937,-0.410156 -0.10938,-0.84375 -0.39844,-1.191406 -0.0352,0.410156 0.0742,0.796875 0.16797,1.1875 z m 9.20312,-0.691407 c 0.004,-0.03906 -0.0312,-0.105468 -0.0664,-0.121093 -0.0781,-0.03516 -0.11719,0.03516 -0.13282,0.09375 -0.0898,0.371093 -0.23046,0.742187 -0.0937,1.140625 0.25,-0.335938 0.23829,-0.734375 0.29297,-1.113282 z m 8.64453,3.511719 c -0.29296,0.378907 -0.67187,0.691407 -0.76562,1.195313 0.32422,-0.351563 0.66016,-0.699219 0.76562,-1.195313 z m -33.85937,6.046875 c 0.26172,0.371094 0.63672,0.582032 1.05859,0.734375 -0.27343,-0.351562 -0.60156,-0.636719 -1.05859,-0.734375 z m 43.19531,9.628906 c 0.41797,-0.07422 0.86328,-0.04687 1.19922,-0.371093 -0.41797,0.0625 -0.86719,0.03125 -1.19922,0.371093 z m 0,0"
       fill-opacity="1"
       fill-rule="nonzero"
       id="path91" />
  </g>
  <g
     clip-path="url(#642ba54ab4)"
     id="g97"
     transform="translate(-0.140625,-51.800781)">
    <path
       fill="#00a8bb"
       d="m 86.886719,61.964844 c -2.058594,0 -3.730469,1.671875 -3.730469,3.730468 0,1.199219 0.585938,2.25 1.464844,2.929688 v 77.31641 H 46.078125 c 0,0 21.554687,26.8125 37.972656,27.625 32.964849,1.63671 70.792969,-27.625 70.792969,-27.625 H 89.246094 V 68.554688 c 0.832031,-0.683594 1.375,-1.703126 1.375,-2.859376 0,-2.058593 -1.671875,-3.730468 -3.730469,-3.730468 z m 5.21875,5.699218 c 5.546875,28.414063 9.570311,55.613278 0,71.937498 l 54.679691,0.0703 C 136.54297,115.67188 120.69922,91.664062 92.105469,67.664062 Z M 81.875,91.789062 C 76.710938,117.80469 58.472656,126.64453 44.957031,139.71875 L 81.875,139.67187 Z m 0,0"
       fill-opacity="1"
       fill-rule="nonzero"
       id="path95" />
  </g>
  <g
     fill="#ff6f61"
     fill-opacity="1"
     id="g105"
     transform="translate(-0.140625,-51.800781)">
    <g
       transform="translate(208.94694,150.78942)"
       id="g103">
      <g
         id="g101">
        <path
           d="m 6.515625,-12.15625 c 0.675781,0 1.34375,0.07813 2,0.234375 0.65625,0.15625 1.144531,0.308594 1.46875,0.453125 l 0.484375,0.234375 -1.328125,2.671875 c -0.929687,-0.488281 -1.804687,-0.734375 -2.625,-0.734375 -0.460937,0 -0.789063,0.054687 -0.984375,0.15625 -0.1875,0.09375 -0.28125,0.28125 -0.28125,0.5625 0,0.054687 0.00391,0.109375 0.015625,0.171875 0.019531,0.0625 0.050781,0.125 0.09375,0.1875 0.050781,0.054688 0.09375,0.101562 0.125,0.140625 0.039063,0.03125 0.109375,0.074219 0.203125,0.125 0.09375,0.042969 0.164062,0.074219 0.21875,0.09375 0.050781,0.023437 0.140625,0.058594 0.265625,0.109375 0.125,0.042969 0.210937,0.074219 0.265625,0.09375 0.0625,0.023438 0.164062,0.058594 0.3125,0.109375 0.144531,0.042969 0.257812,0.074219 0.34375,0.09375 C 7.5625,-7.316406 7.972656,-7.164062 8.328125,-7 c 0.351563,0.167969 0.722656,0.398438 1.109375,0.6875 0.394531,0.292969 0.695312,0.664062 0.90625,1.109375 C 10.5625,-4.753906 10.671875,-4.25 10.671875,-3.6875 10.671875,-1 8.8125,0.34375 5.09375,0.34375 4.25,0.34375 3.445312,0.210938 2.6875,-0.046875 1.925781,-0.304688 1.375,-0.566406 1.03125,-0.828125 L 0.53125,-1.25 2.1875,-4.03125 c 0.125,0.117188 0.285156,0.246094 0.484375,0.390625 0.195313,0.148437 0.554687,0.34375 1.078125,0.59375 0.519531,0.25 0.972656,0.375 1.359375,0.375 0.84375,0 1.265625,-0.28125 1.265625,-0.84375 C 6.375,-3.773438 6.265625,-3.976562 6.046875,-4.125 5.835938,-4.269531 5.472656,-4.4375 4.953125,-4.625 4.441406,-4.8125 4.039062,-4.976562 3.75,-5.125 3.007812,-5.507812 2.425781,-5.941406 2,-6.421875 1.570312,-6.910156 1.359375,-7.554688 1.359375,-8.359375 c 0,-1.195313 0.460937,-2.128906 1.390625,-2.796875 0.925781,-0.664062 2.179688,-1 3.765625,-1 z m 0,0"
           id="path99" />
      </g>
    </g>
  </g>
  <g
     fill="#ff6f61"
     fill-opacity="1"
     id="g113"
     transform="translate(-0.140625,-51.800781)">
    <g
       transform="translate(219.11968,150.78942)"
       id="g111">
      <g
         id="g109">
        <path
           d="M 2.5,-1.40625 C 1.1875,-2.570312 0.53125,-4.066406 0.53125,-5.890625 c 0,-1.820313 0.679688,-3.320313 2.046875,-4.5 1.363281,-1.175781 3.050781,-1.765625 5.0625,-1.765625 1.976563,0 3.644531,0.59375 5,1.78125 1.363281,1.179688 2.046875,2.671875 2.046875,4.484375 0,1.8125 -0.667969,3.308594 -2,4.484375 -1.324219,1.167969 -3.007812,1.75 -5.046875,1.75 -2.117187,0 -3.828125,-0.582031 -5.140625,-1.75 z m 3.140625,-6.484375 c -0.523437,0.523437 -0.78125,1.1875 -0.78125,2 0,0.8125 0.25,1.480469 0.75,2 C 6.117188,-3.378906 6.789062,-3.125 7.625,-3.125 c 0.789062,0 1.441406,-0.257812 1.953125,-0.78125 0.519531,-0.519531 0.78125,-1.179688 0.78125,-1.984375 0,-0.8125 -0.265625,-1.476563 -0.796875,-2 -0.53125,-0.519531 -1.179688,-0.78125 -1.9375,-0.78125 -0.792969,0 -1.453125,0.261719 -1.984375,0.78125 z m 0,0"
           id="path107" />
      </g>
    </g>
  </g>
  <g
     fill="#ff6f61"
     fill-opacity="1"
     id="g121"
     transform="translate(-0.140625,-51.800781)">
    <g
       transform="translate(233.18206,150.78942)"
       id="g119">
      <g
         id="g117">
        <path
           d="m 5.21875,-11.8125 v 5.625 c 0,1.167969 0.175781,1.996094 0.53125,2.484375 0.351562,0.492187 0.953125,0.734375 1.796875,0.734375 0.84375,0 1.441406,-0.242188 1.796875,-0.734375 C 9.695312,-4.191406 9.875,-5.019531 9.875,-6.1875 v -5.625 h 4.078125 v 6.609375 c 0,1.96875 -0.511719,3.386719 -1.53125,4.25 -1.023437,0.8671875 -2.648437,1.296875 -4.875,1.296875 -2.21875,0 -3.839844,-0.4296875 -4.859375,-1.296875 -1.023438,-0.863281 -1.53125,-2.28125 -1.53125,-4.25 V -11.8125 Z m 0,0"
           id="path115" />
      </g>
    </g>
  </g>
  <g
     fill="#ff6f61"
     fill-opacity="1"
     id="g129"
     transform="translate(-0.140625,-51.800781)">
    <g
       transform="translate(247.12937,150.78942)"
       id="g127">
      <g
         id="g125">
        <path
           d="m 1.375,0 v -11.8125 h 4.078125 v 1.703125 H 5.5 c 0.03125,-0.0625 0.078125,-0.132813 0.140625,-0.21875 0.070313,-0.09375 0.222656,-0.253906 0.453125,-0.484375 0.226562,-0.226562 0.472656,-0.4375 0.734375,-0.625 0.269531,-0.1875 0.609375,-0.351562 1.015625,-0.5 0.414062,-0.144531 0.835938,-0.21875 1.265625,-0.21875 0.445313,0 0.882813,0.0625 1.3125,0.1875 0.4375,0.125 0.753906,0.25 0.953125,0.375 l 0.3125,0.171875 -1.703125,3.453125 c -0.5,-0.425781 -1.203125,-0.640625 -2.109375,-0.640625 -0.492188,0 -0.914062,0.109375 -1.265625,0.328125 -0.355469,0.210938 -0.605469,0.46875 -0.75,0.78125 -0.148437,0.304688 -0.25,0.5625 -0.3125,0.78125 -0.0625,0.21875 -0.09375,0.386719 -0.09375,0.5 V 0 Z m 0,0"
           id="path123" />
      </g>
    </g>
  </g>
  <g
     fill="#ff6f61"
     fill-opacity="1"
     id="g137"
     transform="translate(-0.140625,-51.800781)">
    <g
       transform="translate(257.4402,150.78942)"
       id="g135">
      <g
         id="g133">
        <path
           d="m 7.671875,-8.8125 c -0.773437,0 -1.433594,0.289062 -1.984375,0.859375 -0.554688,0.5625 -0.828125,1.242187 -0.828125,2.03125 0,0.824219 0.273437,1.523437 0.828125,2.09375 0.550781,0.5625 1.210938,0.84375 1.984375,0.84375 0.363281,0 0.707031,-0.046875 1.03125,-0.140625 C 9.035156,-3.21875 9.28125,-3.3125 9.4375,-3.40625 L 9.640625,-3.546875 11.03125,-0.71875 C 10.914062,-0.632812 10.757812,-0.535156 10.5625,-0.421875 10.375,-0.304688 9.9375,-0.148438 9.25,0.046875 8.570312,0.242188 7.84375,0.34375 7.0625,0.34375 5.332031,0.34375 3.8125,-0.265625 2.5,-1.484375 1.1875,-2.703125 0.53125,-4.164062 0.53125,-5.875 c 0,-1.71875 0.65625,-3.191406 1.96875,-4.421875 1.3125,-1.238281 2.832031,-1.859375 4.5625,-1.859375 0.78125,0 1.5,0.09375 2.15625,0.28125 0.664062,0.1875 1.140625,0.371094 1.421875,0.546875 l 0.390625,0.28125 -1.390625,2.78125 c -0.5,-0.363281 -1.15625,-0.546875 -1.96875,-0.546875 z m 0,0"
           id="path131" />
      </g>
    </g>
  </g>
  <g
     fill="#ff6f61"
     fill-opacity="1"
     id="g145"
     transform="translate(-0.140625,-51.800781)">
    <g
       transform="translate(267.58992,150.78942)"
       id="g143">
      <g
         id="g141">
        <path
           d="m 13.328125,-5.34375 h -8.5625 c 0,0.835938 0.265625,1.449219 0.796875,1.84375 0.539062,0.398438 1.125,0.59375 1.75,0.59375 0.664062,0 1.1875,-0.082031 1.5625,-0.25 0.382812,-0.175781 0.828125,-0.53125 1.328125,-1.0625 l 2.9375,1.484375 c -1.230469,2.054687 -3.273437,3.078125 -6.125,3.078125 -1.78125,0 -3.308594,-0.609375 -4.578125,-1.828125 -1.273438,-1.21875 -1.90625,-2.6875 -1.90625,-4.40625 0,-1.71875 0.632812,-3.191406 1.90625,-4.421875 1.269531,-1.226562 2.796875,-1.84375 4.578125,-1.84375 1.875,0 3.394531,0.542969 4.5625,1.625 1.175781,1.085938 1.765625,2.632812 1.765625,4.640625 0,0.273437 -0.0078,0.453125 -0.01563,0.546875 z M 4.875,-7.59375 h 4.5 C 9.28125,-8.207031 9.035156,-8.675781 8.640625,-9 c -0.386719,-0.332031 -0.886719,-0.5 -1.5,-0.5 -0.679687,0 -1.21875,0.179688 -1.625,0.53125 C 5.117188,-8.625 4.90625,-8.164062 4.875,-7.59375 Z m 0,0"
           id="path139" />
      </g>
    </g>
  </g>
  <g
     fill="#ff6f61"
     fill-opacity="1"
     id="g153"
     transform="translate(-0.140625,-51.800781)">
    <g
       transform="translate(280.31739,150.78942)"
       id="g151">
      <g
         id="g149">
        <path
           d="m 6.515625,-12.15625 c 0.675781,0 1.34375,0.07813 2,0.234375 0.65625,0.15625 1.144531,0.308594 1.46875,0.453125 l 0.484375,0.234375 -1.328125,2.671875 c -0.929687,-0.488281 -1.804687,-0.734375 -2.625,-0.734375 -0.460937,0 -0.789063,0.054687 -0.984375,0.15625 -0.1875,0.09375 -0.28125,0.28125 -0.28125,0.5625 0,0.054687 0.00391,0.109375 0.015625,0.171875 0.019531,0.0625 0.050781,0.125 0.09375,0.1875 0.050781,0.054688 0.09375,0.101562 0.125,0.140625 0.039063,0.03125 0.109375,0.074219 0.203125,0.125 0.09375,0.042969 0.164062,0.074219 0.21875,0.09375 0.050781,0.023437 0.140625,0.058594 0.265625,0.109375 0.125,0.042969 0.210937,0.074219 0.265625,0.09375 0.0625,0.023438 0.164062,0.058594 0.3125,0.109375 0.144531,0.042969 0.257812,0.074219 0.34375,0.09375 C 7.5625,-7.316406 7.972656,-7.164062 8.328125,-7 c 0.351563,0.167969 0.722656,0.398438 1.109375,0.6875 0.394531,0.292969 0.695312,0.664062 0.90625,1.109375 C 10.5625,-4.753906 10.671875,-4.25 10.671875,-3.6875 10.671875,-1 8.8125,0.34375 5.09375,0.34375 4.25,0.34375 3.445312,0.210938 2.6875,-0.046875 1.925781,-0.304688 1.375,-0.566406 1.03125,-0.828125 L 0.53125,-1.25 2.1875,-4.03125 c 0.125,0.117188 0.285156,0.246094 0.484375,0.390625 0.195313,0.148437 0.554687,0.34375 1.078125,0.59375 0.519531,0.25 0.972656,0.375 1.359375,0.375 0.84375,0 1.265625,-0.28125 1.265625,-0.84375 C 6.375,-3.773438 6.265625,-3.976562 6.046875,-4.125 5.835938,-4.269531 5.472656,-4.4375 4.953125,-4.625 4.441406,-4.8125 4.039062,-4.976562 3.75,-5.125 3.007812,-5.507812 2.425781,-5.941406 2,-6.421875 1.570312,-6.910156 1.359375,-7.554688 1.359375,-8.359375 c 0,-1.195313 0.460937,-2.128906 1.390625,-2.796875 0.925781,-0.664062 2.179688,-1 3.765625,-1 z m 0,0"
           id="path147" />
      </g>
    </g>
  </g>
  <g
     fill="#ff6f61"
     fill-opacity="1"
     id="g161"
     transform="translate(-0.140625,-51.800781)">
    <g
       transform="translate(161.23063,150.78942)"
       id="g159">
      <g
         id="g157">
        <path
           d="m 11.515625,-7.9375 c -0.375,-0.257812 -0.953125,-0.390625 -1.734375,-0.390625 -0.980469,0 -1.75,0.289063 -2.3125,0.859375 -0.5625,0.5625 -0.945312,1.460938 -1.140625,2.6875 L 5.5625,0 H 1.375 L 3.25,-11.8125 H 7.4375 L 7.140625,-9.875 H 7.1875 c 0.988281,-1.394531 2.390625,-2.09375 4.203125,-2.09375 H 12.125 Z m 0,0"
           id="path155" />
      </g>
    </g>
  </g>
  <g
     fill="#ff6f61"
     fill-opacity="1"
     id="g169"
     transform="translate(-0.140625,-51.800781)">
    <g
       transform="translate(171.19634,150.78942)"
       id="g167">
      <g
         id="g165">
        <path
           d="m 14.515625,-7.0625 c 0,0.46875 -0.05859,1.089844 -0.171875,1.859375 h -8.8125 c -0.023438,0.074219 -0.039062,0.171875 -0.046875,0.296875 0,0.117188 0,0.230469 0,0.34375 0,1.3125 0.75,1.976562 2.25,1.984375 0.945313,0 1.664063,-0.359375 2.15625,-1.078125 h 4.03125 c -0.46875,1.242188 -1.304687,2.226562 -2.5,2.953125 -1.199219,0.7265625 -2.585937,1.09375 -4.15625,1.09375 -1.855469,0 -3.304687,-0.453125 -4.34375,-1.359375 -1.042969,-0.90625 -1.5625,-2.144531 -1.5625,-3.71875 0,-1.382812 0.332031,-2.664062 1,-3.84375 0.664063,-1.1875 1.582031,-2.09375 2.75,-2.71875 1.175781,-0.632812 2.425781,-0.953125 3.75,-0.953125 1.8125,0 3.207031,0.445313 4.1875,1.328125 0.976563,0.886719 1.46875,2.15625 1.46875,3.8125 z M 10.8125,-7.625 V -7.640625 C 10.800781,-8.191406 10.59375,-8.632812 10.1875,-8.96875 9.789062,-9.3125 9.300781,-9.484375 8.71875,-9.484375 8.101562,-9.484375 7.546875,-9.320312 7.046875,-9 6.554688,-8.675781 6.195312,-8.21875 5.96875,-7.625 Z m 0,0"
           id="path163" />
      </g>
    </g>
  </g>
  <g
     fill="#ff6f61"
     fill-opacity="1"
     id="g177"
     transform="translate(-0.140625,-51.800781)">
    <g
       transform="translate(184.77552,150.78942)"
       id="g175">
      <g
         id="g173">
        <path
           d="m 14.515625,-7.0625 c 0,0.46875 -0.05859,1.089844 -0.171875,1.859375 h -8.8125 c -0.023438,0.074219 -0.039062,0.171875 -0.046875,0.296875 0,0.117188 0,0.230469 0,0.34375 0,1.3125 0.75,1.976562 2.25,1.984375 0.945313,0 1.664063,-0.359375 2.15625,-1.078125 h 4.03125 c -0.46875,1.242188 -1.304687,2.226562 -2.5,2.953125 -1.199219,0.7265625 -2.585937,1.09375 -4.15625,1.09375 -1.855469,0 -3.304687,-0.453125 -4.34375,-1.359375 -1.042969,-0.90625 -1.5625,-2.144531 -1.5625,-3.71875 0,-1.382812 0.332031,-2.664062 1,-3.84375 0.664063,-1.1875 1.582031,-2.09375 2.75,-2.71875 1.175781,-0.632812 2.425781,-0.953125 3.75,-0.953125 1.8125,0 3.207031,0.445313 4.1875,1.328125 0.976563,0.886719 1.46875,2.15625 1.46875,3.8125 z M 10.8125,-7.625 V -7.640625 C 10.800781,-8.191406 10.59375,-8.632812 10.1875,-8.96875 9.789062,-9.3125 9.300781,-9.484375 8.71875,-9.484375 8.101562,-9.484375 7.546875,-9.320312 7.046875,-9 6.554688,-8.675781 6.195312,-8.21875 5.96875,-7.625 Z m 0,0"
           id="path171" />
      </g>
    </g>
  </g>
  <g
     fill="#ff6f61"
     fill-opacity="1"
     id="g185"
     transform="translate(-0.140625,-51.800781)">
    <g
       transform="translate(198.35469,150.78942)"
       id="g183">
      <g
         id="g181">
        <path
           d="m 10.15625,-19.328125 c 0.6875,0 1.269531,0.136719 1.75,0.40625 l -0.578125,3.609375 c -0.523437,-0.257812 -0.992187,-0.390625 -1.40625,-0.390625 -0.554687,0 -0.964844,0.183594 -1.234375,0.546875 -0.273438,0.367188 -0.453125,0.84375 -0.546875,1.4375 L 7.84375,-11.8125 h 2.921875 L 10.21875,-8.359375 H 7.296875 L 5.984375,0 h -4.1875 l 1.3125,-8.359375 H 1.640625 L 2.1875,-11.8125 h 1.46875 l 0.25,-1.484375 C 4.125,-14.742188 4.425781,-15.75 4.8125,-16.3125 c 0.382812,-0.570312 0.875,-1.101562 1.46875,-1.59375 0.601562,-0.488281 1.242188,-0.847656 1.921875,-1.078125 0.6875,-0.226563 1.335937,-0.34375 1.953125,-0.34375 z m 0,0"
           id="path179" />
      </g>
    </g>
  </g>
  <g
     clip-path="url(#b9d155804f)"
     id="g189"
     transform="translate(-0.140625,-51.800781)">
    <path
       fill="#00a8bb"
       d="m 129.35937,167.4375 c -3.42968,0 -5.28906,-1.53125 -6.64843,-2.64844 -1.11719,-0.92187 -1.79688,-1.47265 -3.38281,-1.47265 -1.58594,0 -2.26172,0.55468 -3.38672,1.47265 -1.35938,1.11719 -3.21875,2.64844 -6.64844,2.64844 -3.42969,0 -5.28516,-1.53125 -6.64453,-2.64844 -1.1211,-0.92187 -1.80078,-1.47265 -3.386721,-1.47265 -1.585938,0 -2.257813,0.55468 -3.382813,1.47265 -1.359375,1.11719 -3.21875,2.64844 -6.648437,2.64844 -3.429688,0 -5.289063,-1.53125 -6.648438,-2.64844 -1.117187,-0.92187 -1.796875,-1.47265 -3.382812,-1.47265 -1.585938,0 -2.261719,0.55468 -3.382813,1.47265 -1.359375,1.11719 -3.21875,2.64844 -6.648437,2.64844 -3.429688,0 -5.289063,-1.53125 -6.648438,-2.64844 -1.117187,-0.92187 -1.796875,-1.47265 -3.382812,-1.47265 -1.585938,0 -2.261719,0.55468 -3.382813,1.47265 -1.359375,1.11719 -3.21875,2.64844 -6.648437,2.64844 -3.429688,0 -5.289063,-1.53125 -6.648438,-2.64844 -1.125,-0.91797 -1.796875,-1.47265 -3.382812,-1.47265 v -5.14844 c 3.429687,0 5.289062,1.52734 6.648437,2.64453 1.117188,0.92187 1.796875,1.47266 3.382813,1.47266 1.585937,0 2.261719,-0.55469 3.382812,-1.47266 1.359375,-1.11719 3.21875,-2.64453 6.648438,-2.64453 3.429687,0 5.289062,1.52734 6.648437,2.64453 1.117188,0.92187 1.796875,1.47266 3.382813,1.47266 1.585937,0 2.261719,-0.55469 3.382812,-1.47266 1.359375,-1.11719 3.21875,-2.64453 6.648438,-2.64453 3.429687,0 5.289062,1.52734 6.648437,2.64453 1.117188,0.92187 1.796875,1.47266 3.382813,1.47266 1.585937,0 2.261719,-0.55469 3.382812,-1.47266 1.359375,-1.11719 3.21875,-2.64453 6.648438,-2.64453 3.429691,0 5.289061,1.52734 6.648441,2.64453 1.11718,0.92187 1.79687,1.47266 3.38281,1.47266 1.58984,0 2.26172,-0.55469 3.38672,-1.47266 1.35937,-1.11719 3.21875,-2.64453 6.64844,-2.64453 3.42968,0 5.28906,1.52734 6.64843,2.64453 1.11719,0.92187 1.79688,1.47266 3.38281,1.47266 1.58594,0 2.25782,-0.55469 3.38282,-1.47266 1.35937,-1.11719 3.21875,-2.64453 6.64843,-2.64453 v 5.14844 c -1.58593,0 -2.26171,0.55468 -3.38281,1.47265 -1.35937,1.11719 -3.21875,2.64844 -6.64844,2.64844 z m 0,0"
       fill-opacity="1"
       fill-rule="nonzero"
       id="path187" />
  </g>
  <rect
     style="fill:#00a8bb;stroke:#00a8bb;stroke-width:2.43837;stroke-linecap:round;stroke-linejoin:round;fill-opacity:1"
     id="rect1315"
     width="0.37860203"
     height="2.7331135"
     x="139.16811"
     y="107.56395" />
</svg>
