<?xml version="1.0" encoding="UTF-8" standalone="no"?>
<svg
   width="30"
   zoomAndPan="magnify"
   viewBox="0 0 361.17579 184.5"
   height="auto"
   preserveAspectRatio="xMidYMid meet"
   version="1.0"
   id="svg11"
   sodipodi:docname="tpr .svg"
   inkscape:version="1.1.1 (3bf5ae0d25, 2021-09-20)"
   xmlns:inkscape="http://www.inkscape.org/namespaces/inkscape"
   xmlns:sodipodi="http://sodipodi.sourceforge.net/DTD/sodipodi-0.dtd"
   xmlns="http://www.w3.org/2000/svg"
   xmlns:svg="http://www.w3.org/2000/svg">
  <sodipodi:namedview
     id="namedview13"
     pagecolor="#ffffff"
     bordercolor="#666666"
     borderopacity="1.0"
     inkscape:pageshadow="2"
     inkscape:pageopacity="0.0"
     inkscape:pagecheckerboard="0"
     showgrid="false"
     inkscape:zoom="1.624"
     inkscape:cx="239.22414"
     inkscape:cy="123.46059"
     inkscape:window-width="1920"
     inkscape:window-height="1001"
     inkscape:window-x="-9"
     inkscape:window-y="144"
     inkscape:window-maximized="1"
     inkscape:current-layer="svg11" />
  <defs
     id="defs5">
    <clipPath
       id="5e095473aa">
      <path
         d="M 7,95.089844 H 368.99219 V 279.58984 H 7 Z m 0,0"
         clip-rule="nonzero"
         id="path2" />
    </clipPath>
  </defs>
  <g
     clip-path="url(#5e095473aa)"
     id="g9"
     transform="translate(-7.816406,-95.089844)">
    <path
       fill="#ffffff"
       d="m 7.816406,116.76563 c 6.941406,-2.60157 15.617188,-4.33594 23.429688,-4.33594 24.292968,0 46.855468,13.00781 59.867187,33.8164 2.605469,5.20313 7.8125,7.80469 13.886719,8.67188 6.07031,0 11.27734,-2.60156 14.75,-6.9375 25.16016,-32.94922 66.8125,-52.890626 111.0625,-52.890626 59.00391,0 111.06641,35.546876 129.28516,86.707026 -18.21875,51.15625 -70.28125,86.70704 -129.28516,86.70704 -44.25,0 -85.90234,-19.94532 -111.0625,-52.89454 -3.47266,-4.33203 -8.67969,-6.93359 -14.75,-6.93359 -6.074219,0 -11.28125,3.46875 -13.886719,8.66797 -13.011719,21.67969 -34.707031,33.81641 -59.867187,33.81641 -7.8125,0 -15.621094,-1.73438 -23.429688,-4.33594 14.75,-18.20703 23.429688,-40.75 23.429688,-65.02735 0,-24.28125 -8.679688,-46.82421 -23.429688,-65.03124 z m 257.703124,68.49999 c 0,0.86329 0.87109,1.73047 0.87109,3.46485 0,0.86719 0.86719,1.73437 1.73438,2.60156 0.86719,0.86719 0.86719,1.73438 1.73437,2.60156 3.47266,3.46875 7.8086,5.20313 12.14844,5.20313 4.33594,0 8.67578,-1.73438 12.14844,-5.20313 0.86719,-0.86718 1.73437,-1.73437 1.73437,-2.60156 0.86719,-0.86719 0.86719,-1.73437 1.73438,-2.60156 0.86719,-0.86719 0.86719,-1.73438 0.86719,-3.46485 0,-0.86718 0,-2.60156 0,-3.46875 0,-4.33593 -1.73438,-8.67187 -5.20313,-12.14062 -0.87109,-0.86719 -1.73828,-1.73438 -2.60547,-1.73438 -0.86718,-0.86718 -1.73437,-0.86718 -2.60156,-1.73437 -0.86719,0 -1.73437,-0.86719 -3.47266,-0.86719 -2.60156,0 -4.33593,0 -6.9414,0 -0.86719,0 -1.73438,0.86719 -3.46875,0.86719 -0.86719,0.86719 -1.73828,0.86719 -2.60547,1.73437 -0.86719,0.86719 -1.73438,1.73438 -2.60156,1.73438 -3.47266,3.46875 -5.20703,7.80469 -5.20703,12.14062 1.73437,0.86719 1.73437,2.60157 1.73437,3.46875 z m 112.80078,265.32422 c 0,-24.28125 -8.67578,-46.82422 -23.42578,-65.03125 6.94141,-2.60156 15.61719,-4.33593 23.42578,-4.33593 24.29688,0 46.85547,13.0039 59.8711,33.8164 2.60156,5.20313 7.80859,7.80469 13.88281,8.66797 6.07422,0 11.28125,-1.73047 14.75,-6.93359 25.16406,-33.81641 66.8125,-52.89063 111.0664,-52.89063 59.00391,0 111.0625,35.54688 129.28516,86.70703 -18.22266,51.15625 -70.28125,86.70703 -129.28516,86.70703 -44.2539,0 -85.90234,-19.94531 -111.0664,-52.89453 -3.46875,-4.33203 -8.67578,-6.93359 -14.75,-6.93359 -6.07422,0 -11.28125,3.46875 -13.88281,8.66797 -13.01563,21.67969 -34.70704,33.8164 -59.8711,33.8164 -7.80859,0 -15.61719,-1.73437 -23.42578,-4.33593 14.75,-18.20703 23.42578,-40.75 23.42578,-65.02735 z m 239.48438,12.13672 c 3.46875,3.46875 7.80859,5.20313 12.14843,5.20313 4.33594,0 8.67579,-1.73438 12.14454,-5.20313 3.47265,-3.46875 5.20703,-7.80469 5.20703,-12.13672 0,-4.33593 -1.73438,-8.67187 -5.20703,-12.14062 -0.86719,-0.86719 -1.73438,-1.73438 -2.60157,-1.73438 -0.86718,0 -1.73437,-0.86718 -2.60156,-1.73437 -0.87109,0 -1.73828,-0.86719 -3.47266,-0.86719 -2.60156,0 -4.33984,0 -6.9414,0 -0.86719,0 -2.60156,0.86719 -3.46875,0.86719 -0.8711,0.86719 -1.73828,0.86719 -2.60547,1.73437 -0.86719,0.86719 -1.73438,1.73438 -2.60156,1.73438 -3.47266,3.46875 -5.20703,7.80469 -5.20703,12.14062 0,4.33203 1.73437,8.66797 5.20703,12.13672 z M 31.246094,650.01562 c 24.292968,0 46.855468,13.00391 59.867187,33.81641 2.605469,5.20313 7.8125,7.80078 13.886719,8.66797 6.07031,0 11.27734,-1.73438 14.75,-6.93359 25.16016,-33.81641 66.8125,-52.89454 111.0625,-52.89454 59.00391,0 111.06641,35.55079 129.28516,86.70704 -18.21875,51.16015 -70.28125,86.71093 -129.28516,86.71093 -44.25,0 -85.90234,-19.94531 -111.0625,-52.89453 -3.47266,-4.33203 -8.67969,-6.93359 -14.75,-6.93359 -6.074219,0 -11.28125,3.46484 -13.886719,8.66797 -13.011719,21.67968 -34.707031,33.8164 -59.867187,33.8164 -7.8125,0 -15.621094,-1.73437 -23.429688,-4.33593 14.75,-18.20704 23.429688,-40.75 23.429688,-65.03125 0,-24.27735 -8.679688,-46.82032 -23.429688,-65.02735 7.808594,-2.60156 15.617188,-4.33594 23.429688,-4.33594 z m 239.480466,81.50391 c 3.47266,3.46875 7.8086,5.20313 12.14844,5.20313 4.33984,0 8.67578,-1.73438 12.14844,-5.20313 3.46875,-3.46875 5.20703,-7.80469 5.20703,-12.14062 0,-4.33204 -1.73828,-8.66797 -5.20703,-12.13672 -0.86719,-0.86719 -1.73438,-1.73438 -2.60547,-1.73438 -0.86719,0 -1.73438,-0.86719 -2.60156,-1.73437 -0.86719,0 -1.73438,-0.86719 -3.47266,-0.86719 -6.07031,-0.86719 -11.27734,0.86719 -15.61719,4.33594 -3.46875,3.46875 -5.20703,7.80468 -5.20703,12.14062 0,4.33203 1.73828,8.66797 5.20703,12.13672 z m 0,0"
       fill-opacity="1"
       fill-rule="nonzero"
       id="path7" />
  </g>
</svg>
